<svg xmlns="http://www.w3.org/2000/svg" viewBox="0 0 2281 1163.6"><defs><style>.cls-1{fill:#0a0400;stroke:#e85e00;stroke-miterlimit:10;}</style></defs><title>BG</title><g id="Layer_2" data-name="Layer 2"><g id="Layer_1-2" data-name="Layer 1"><rect x="53" y="82.07" width="1920" height="1080"/><polygon class="cls-1" points="0.84 1.05 53.21 43.65 105.5 1.05 105.5 113.4 0.84 113.4 0.84 1.05"/><path class="cls-1" d="M9.36,128.74l9.37,22.84h.39l9.37-22.84h9.17v34.09H30.5v-22.5h-.28l-8.88,22.16h-4.5L8,140.33H7.66v22.16H.5V128.74Z"/><path class="cls-1" d="M66.3,140.32c-.56-3.77-3.42-6.06-7.39-6.06-5.31,0-8.8,4.07-8.8,11.21,0,7.34,3.54,11.21,8.75,11.21,3.87,0,6.75-2.11,7.44-5.78l7.34,0c-.79,6.32-6.1,12.17-14.9,12.17-9.18,0-16-6.44-16-17.63s6.92-17.62,16-17.62c7.94,0,13.94,4.56,14.9,12.48H66.3Z"/><path class="cls-1" d="M77.54,128.74h28v5.8H95.27v28.29H88.11V134.54H77.55v-5.8Z"/><polygon class="cls-1" points="150.84 1.05 203.21 43.65 255.5 1.05 255.5 113.4 150.84 113.4 150.84 1.05"/><path class="cls-1" d="M159.36,128.74l9.37,22.84h.39l9.37-22.84h9.17v34.09H180.5v-22.5h-.28l-8.88,22.16h-4.5L158,140.33h-.34v22.16H150.5V128.74Z"/><path class="cls-1" d="M216.3,140.32c-.56-3.77-3.42-6.06-7.39-6.06-5.31,0-8.8,4.07-8.8,11.21,0,7.34,3.54,11.21,8.75,11.21,3.87,0,6.75-2.11,7.44-5.78l7.34,0c-.79,6.32-6.1,12.17-14.9,12.17-9.18,0-16-6.44-16-17.63s6.92-17.62,16-17.62c7.94,0,13.94,4.56,14.9,12.48H216.3Z"/><path class="cls-1" d="M227.54,128.74h28v5.8H245.27v28.29h-7.16V134.54H227.55v-5.8Z"/><polygon class="cls-1" points="300.84 1.05 353.21 43.65 405.5 1.05 405.5 113.4 300.84 113.4 300.84 1.05"/><path class="cls-1" d="M309.36,128.74l9.37,22.84h.39l9.37-22.84h9.17v34.09H330.5v-22.5h-.28l-8.88,22.16h-4.5L308,140.33h-.34v22.16H300.5V128.74Z"/><path class="cls-1" d="M366.3,140.32c-.56-3.77-3.42-6.06-7.39-6.06-5.31,0-8.8,4.07-8.8,11.21,0,7.34,3.54,11.21,8.75,11.21,3.87,0,6.75-2.11,7.44-5.78l7.34,0c-.79,6.32-6.1,12.17-14.9,12.17-9.18,0-16-6.44-16-17.63s6.92-17.62,16-17.62c7.94,0,13.94,4.56,14.9,12.48H366.3Z"/><path class="cls-1" d="M377.54,128.74h28v5.8H395.27v28.29h-7.16V134.54H377.55v-5.8Z"/><polygon class="cls-1" points="450.84 1.05 503.21 43.65 555.5 1.05 555.5 113.4 450.84 113.4 450.84 1.05"/><path class="cls-1" d="M459.36,128.74l9.37,22.84h.39l9.37-22.84h9.17v34.09H480.5v-22.5h-.28l-8.88,22.16h-4.5L458,140.33h-.34v22.16H450.5V128.74Z"/><path class="cls-1" d="M516.3,140.32c-.56-3.77-3.42-6.06-7.39-6.06-5.31,0-8.8,4.07-8.8,11.21,0,7.34,3.54,11.21,8.75,11.21,3.87,0,6.75-2.11,7.44-5.78l7.34,0c-.79,6.32-6.1,12.17-14.9,12.17-9.18,0-16-6.44-16-17.63s6.92-17.62,16-17.62c7.94,0,13.94,4.56,14.9,12.48H516.3Z"/><path class="cls-1" d="M527.54,128.74h28v5.8H545.27v28.29h-7.16V134.54H527.55v-5.8Z"/><polygon class="cls-1" points="600.84 1.05 653.21 43.65 705.5 1.05 705.5 113.4 600.84 113.4 600.84 1.05"/><path class="cls-1" d="M609.36,128.74l9.37,22.84h.39l9.37-22.84h9.17v34.09H630.5v-22.5h-.28l-8.88,22.16h-4.5L608,140.33h-.34v22.16H600.5V128.74Z"/><path class="cls-1" d="M666.3,140.32c-.56-3.77-3.42-6.06-7.39-6.06-5.31,0-8.8,4.07-8.8,11.21,0,7.34,3.54,11.21,8.75,11.21,3.87,0,6.75-2.11,7.44-5.78l7.34,0c-.79,6.32-6.1,12.17-14.9,12.17-9.18,0-16-6.44-16-17.63s6.92-17.62,16-17.62c7.94,0,13.94,4.56,14.9,12.48H666.3Z"/><path class="cls-1" d="M677.54,128.74h28v5.8H695.27v28.29h-7.16V134.54H677.55v-5.8Z"/><polygon class="cls-1" points="750.84 1.05 803.21 43.65 855.5 1.05 855.5 113.4 750.84 113.4 750.84 1.05"/><path class="cls-1" d="M759.36,128.74l9.37,22.84h.39l9.37-22.84h9.17v34.09H780.5v-22.5h-.28l-8.88,22.16h-4.5L758,140.33h-.34v22.16H750.5V128.74Z"/><path class="cls-1" d="M816.3,140.32c-.56-3.77-3.42-6.06-7.39-6.06-5.31,0-8.8,4.07-8.8,11.21,0,7.34,3.54,11.21,8.75,11.21,3.87,0,6.75-2.11,7.44-5.78l7.34,0c-.79,6.32-6.1,12.17-14.9,12.17-9.18,0-16-6.44-16-17.63s6.92-17.62,16-17.62c7.94,0,13.94,4.56,14.9,12.48H816.3Z"/><path class="cls-1" d="M827.54,128.74h28v5.8H845.27v28.29h-7.16V134.54H827.55v-5.8Z"/><polygon class="cls-1" points="900.84 1.05 953.21 43.65 1005.5 1.05 1005.5 113.4 900.84 113.4 900.84 1.05"/><path class="cls-1" d="M909.36,128.74l9.37,22.84h.39l9.37-22.84h9.17v34.09H930.5v-22.5h-.28l-8.88,22.16h-4.5L908,140.33h-.34v22.16H900.5V128.74Z"/><path class="cls-1" d="M966.3,140.32c-.56-3.77-3.42-6.06-7.39-6.06-5.31,0-8.8,4.07-8.8,11.21,0,7.34,3.54,11.21,8.75,11.21,3.87,0,6.75-2.11,7.44-5.78l7.34,0c-.79,6.32-6.1,12.17-14.9,12.17-9.18,0-16-6.44-16-17.63s6.92-17.62,16-17.62c7.94,0,13.94,4.56,14.9,12.48H966.3Z"/><path class="cls-1" d="M977.54,128.74h28v5.8H995.27v28.29h-7.16V134.54H977.55v-5.8Z"/><polygon class="cls-1" points="1050.84 1.05 1103.21 43.65 1155.5 1.05 1155.5 113.4 1050.84 113.4 1050.84 1.05"/><path class="cls-1" d="M1059.36,128.74l9.37,22.84h.39l9.37-22.84h9.17v34.09h-7.16v-22.5h-.28l-8.88,22.16h-4.5L1058,140.33h-.34v22.16h-7.16V128.74Z"/><path class="cls-1" d="M1116.3,140.32c-.56-3.77-3.42-6.06-7.39-6.06-5.31,0-8.8,4.07-8.8,11.21,0,7.34,3.54,11.21,8.75,11.21,3.87,0,6.75-2.11,7.44-5.78l7.34,0c-.79,6.32-6.1,12.17-14.9,12.17-9.18,0-16-6.44-16-17.63s6.92-17.62,16-17.62c7.94,0,13.94,4.56,14.9,12.48h-7.34Z"/><path class="cls-1" d="M1127.54,128.74h28v5.8h-10.23v28.29h-7.16V134.54h-10.56v-5.8Z"/><polygon class="cls-1" points="1200.84 1.05 1253.21 43.65 1305.5 1.05 1305.5 113.4 1200.84 113.4 1200.84 1.05"/><path class="cls-1" d="M1209.36,128.74l9.37,22.84h.39l9.37-22.84h9.17v34.09h-7.16v-22.5h-.28l-8.88,22.16h-4.5L1208,140.33h-.34v22.16h-7.16V128.74Z"/><path class="cls-1" d="M1266.3,140.32c-.56-3.77-3.42-6.06-7.39-6.06-5.31,0-8.8,4.07-8.8,11.21,0,7.34,3.54,11.21,8.75,11.21,3.87,0,6.75-2.11,7.44-5.78l7.34,0c-.79,6.32-6.1,12.17-14.9,12.17-9.18,0-16-6.44-16-17.63s6.92-17.62,16-17.62c7.94,0,13.94,4.56,14.9,12.48h-7.34Z"/><path class="cls-1" d="M1277.54,128.74h28v5.8h-10.23v28.29h-7.16V134.54h-10.56v-5.8Z"/><polygon class="cls-1" points="1350.84 1.05 1403.21 43.65 1455.5 1.05 1455.5 113.4 1350.84 113.4 1350.84 1.05"/><path class="cls-1" d="M1359.36,128.74l9.37,22.84h.39l9.37-22.84h9.17v34.09h-7.16v-22.5h-.28l-8.88,22.16h-4.5L1358,140.33h-.34v22.16h-7.16V128.74Z"/><path class="cls-1" d="M1416.3,140.32c-.56-3.77-3.42-6.06-7.39-6.06-5.31,0-8.8,4.07-8.8,11.21,0,7.34,3.54,11.21,8.75,11.21,3.87,0,6.75-2.11,7.44-5.78l7.34,0c-.79,6.32-6.1,12.17-14.9,12.17-9.18,0-16-6.44-16-17.63s6.92-17.62,16-17.62c7.94,0,13.94,4.56,14.9,12.48h-7.34Z"/><path class="cls-1" d="M1427.54,128.74h28v5.8h-10.23v28.29h-7.16V134.54h-10.56v-5.8Z"/><polygon class="cls-1" points="1500.84 1.05 1553.21 43.65 1605.5 1.05 1605.5 113.4 1500.84 113.4 1500.84 1.05"/><path class="cls-1" d="M1509.36,128.74l9.37,22.84h.39l9.37-22.84h9.17v34.09h-7.16v-22.5h-.28l-8.88,22.16h-4.5L1508,140.33h-.34v22.16h-7.16V128.74Z"/><path class="cls-1" d="M1566.3,140.32c-.56-3.77-3.42-6.06-7.39-6.06-5.31,0-8.8,4.07-8.8,11.21,0,7.34,3.54,11.21,8.75,11.21,3.87,0,6.75-2.11,7.44-5.78l7.34,0c-.79,6.32-6.1,12.17-14.9,12.17-9.18,0-16-6.44-16-17.63s6.92-17.62,16-17.62c7.94,0,13.94,4.56,14.9,12.48h-7.34Z"/><path class="cls-1" d="M1577.54,128.74h28v5.8h-10.23v28.29h-7.16V134.54h-10.56v-5.8Z"/><polygon class="cls-1" points="1650.84 1.05 1703.21 43.65 1755.5 1.05 1755.5 113.4 1650.84 113.4 1650.84 1.05"/><path class="cls-1" d="M1659.36,128.74l9.37,22.84h.39l9.37-22.84h9.17v34.09h-7.16v-22.5h-.28l-8.88,22.16h-4.5L1658,140.33h-.34v22.16h-7.16V128.74Z"/><path class="cls-1" d="M1716.3,140.32c-.56-3.77-3.42-6.06-7.39-6.06-5.31,0-8.8,4.07-8.8,11.21,0,7.34,3.54,11.21,8.75,11.21,3.87,0,6.75-2.11,7.44-5.78l7.34,0c-.79,6.32-6.1,12.17-14.9,12.17-9.18,0-16-6.44-16-17.63s6.92-17.62,16-17.62c7.94,0,13.94,4.56,14.9,12.48h-7.34Z"/><path class="cls-1" d="M1727.54,128.74h28v5.8h-10.23v28.29h-7.16V134.54h-10.56v-5.8Z"/><polygon class="cls-1" points="1800.84 1.05 1853.21 43.65 1905.5 1.05 1905.5 113.4 1800.84 113.4 1800.84 1.05"/><path class="cls-1" d="M1809.36,128.74l9.37,22.84h.39l9.37-22.84h9.17v34.09h-7.16v-22.5h-.28l-8.88,22.16h-4.5L1808,140.33h-.34v22.16h-7.16V128.74Z"/><path class="cls-1" d="M1866.3,140.32c-.56-3.77-3.42-6.06-7.39-6.06-5.31,0-8.8,4.07-8.8,11.21,0,7.34,3.54,11.21,8.75,11.21,3.87,0,6.75-2.11,7.44-5.78l7.34,0c-.79,6.32-6.1,12.17-14.9,12.17-9.18,0-16-6.44-16-17.63s6.92-17.62,16-17.62c7.94,0,13.94,4.56,14.9,12.48h-7.34Z"/><path class="cls-1" d="M1877.54,128.74h28v5.8h-10.23v28.29h-7.16V134.54h-10.56v-5.8Z"/><polygon class="cls-1" points="1950.84 1.05 2003.21 43.65 2055.5 1.05 2055.5 113.4 1950.84 113.4 1950.84 1.05"/><path class="cls-1" d="M1959.36,128.74l9.37,22.84h.39l9.37-22.84h9.17v34.09h-7.16v-22.5h-.28l-8.88,22.16h-4.5L1958,140.33h-.34v22.16h-7.16V128.74Z"/><path class="cls-1" d="M2016.3,140.32c-.56-3.77-3.42-6.06-7.39-6.06-5.31,0-8.8,4.07-8.8,11.21,0,7.34,3.54,11.21,8.75,11.21,3.87,0,6.75-2.11,7.44-5.78l7.34,0c-.79,6.32-6.1,12.17-14.9,12.17-9.18,0-16-6.44-16-17.63s6.92-17.62,16-17.62c7.94,0,13.94,4.56,14.9,12.48h-7.34Z"/><path class="cls-1" d="M2027.54,128.74h28v5.8h-10.23v28.29h-7.16V134.54h-10.56v-5.8Z"/><polygon class="cls-1" points="2100.84 1.05 2153.21 43.65 2205.5 1.05 2205.5 113.4 2100.84 113.4 2100.84 1.05"/><path class="cls-1" d="M2109.36,128.74l9.37,22.84h.39l9.37-22.84h9.17v34.09h-7.16v-22.5h-.28l-8.88,22.16h-4.5L2108,140.33h-.34v22.16h-7.16V128.74Z"/><path class="cls-1" d="M2166.3,140.32c-.56-3.77-3.42-6.06-7.39-6.06-5.31,0-8.8,4.07-8.8,11.21,0,7.34,3.54,11.21,8.75,11.21,3.87,0,6.75-2.11,7.44-5.78l7.34,0c-.79,6.32-6.1,12.17-14.9,12.17-9.18,0-16-6.44-16-17.63s6.92-17.62,16-17.62c7.94,0,13.94,4.56,14.9,12.48h-7.34Z"/><path class="cls-1" d="M2177.54,128.74h28v5.8h-10.23v28.29h-7.16V134.54h-10.56v-5.8Z"/><polygon class="cls-1" points="75.84 201.05 128.21 243.65 180.5 201.05 180.5 313.4 75.84 313.4 75.84 201.05"/><path class="cls-1" d="M84.36,328.74l9.37,22.84h.39l9.37-22.84h9.17v34.09H105.5v-22.5h-.28l-8.88,22.16h-4.5L83,340.33h-.34v22.16H75.5V328.74Z"/><path class="cls-1" d="M141.3,340.32c-.56-3.77-3.42-6.06-7.39-6.06-5.31,0-8.8,4.07-8.8,11.21,0,7.34,3.54,11.21,8.75,11.21,3.87,0,6.75-2.11,7.44-5.78l7.34,0c-.79,6.32-6.1,12.17-14.9,12.17-9.18,0-16-6.44-16-17.63s6.92-17.62,16-17.62c7.94,0,13.94,4.56,14.9,12.48H141.3Z"/><path class="cls-1" d="M152.54,328.74h28v5.8H170.27v28.29h-7.16V334.54H152.55v-5.8Z"/><polygon class="cls-1" points="225.84 201.05 278.21 243.65 330.5 201.05 330.5 313.4 225.84 313.4 225.84 201.05"/><path class="cls-1" d="M234.36,328.74l9.37,22.84h.39l9.37-22.84h9.17v34.09H255.5v-22.5h-.28l-8.88,22.16h-4.5L233,340.33h-.34v22.16H225.5V328.74Z"/><path class="cls-1" d="M291.3,340.32c-.56-3.77-3.42-6.06-7.39-6.06-5.31,0-8.8,4.07-8.8,11.21,0,7.34,3.54,11.21,8.75,11.21,3.87,0,6.75-2.11,7.44-5.78l7.34,0c-.79,6.32-6.1,12.17-14.9,12.17-9.18,0-16-6.44-16-17.63s6.92-17.62,16-17.62c7.94,0,13.94,4.56,14.9,12.48H291.3Z"/><path class="cls-1" d="M302.54,328.74h28v5.8H320.27v28.29h-7.16V334.54H302.55v-5.8Z"/><polygon class="cls-1" points="375.84 201.05 428.21 243.65 480.5 201.05 480.5 313.4 375.84 313.4 375.84 201.05"/><path class="cls-1" d="M384.36,328.74l9.37,22.84h.39l9.37-22.84h9.17v34.09H405.5v-22.5h-.28l-8.88,22.16h-4.5L383,340.33h-.34v22.16H375.5V328.74Z"/><path class="cls-1" d="M441.3,340.32c-.56-3.77-3.42-6.06-7.39-6.06-5.31,0-8.8,4.07-8.8,11.21,0,7.34,3.54,11.21,8.75,11.21,3.87,0,6.75-2.11,7.44-5.78l7.34,0c-.79,6.32-6.1,12.17-14.9,12.17-9.18,0-16-6.44-16-17.63s6.92-17.62,16-17.62c7.94,0,13.94,4.56,14.9,12.48H441.3Z"/><path class="cls-1" d="M452.54,328.74h28v5.8H470.27v28.29h-7.16V334.54H452.55v-5.8Z"/><polygon class="cls-1" points="525.84 201.05 578.21 243.65 630.5 201.05 630.5 313.4 525.84 313.4 525.84 201.05"/><path class="cls-1" d="M534.36,328.74l9.37,22.84h.39l9.37-22.84h9.17v34.09H555.5v-22.5h-.28l-8.88,22.16h-4.5L533,340.33h-.34v22.16H525.5V328.74Z"/><path class="cls-1" d="M591.3,340.32c-.56-3.77-3.42-6.06-7.39-6.06-5.31,0-8.8,4.07-8.8,11.21,0,7.34,3.54,11.21,8.75,11.21,3.87,0,6.75-2.11,7.44-5.78l7.34,0c-.79,6.32-6.1,12.17-14.9,12.17-9.18,0-16-6.44-16-17.63s6.92-17.62,16-17.62c7.94,0,13.94,4.56,14.9,12.48H591.3Z"/><path class="cls-1" d="M602.54,328.74h28v5.8H620.27v28.29h-7.16V334.54H602.55v-5.8Z"/><polygon class="cls-1" points="675.84 201.05 728.21 243.65 780.5 201.05 780.5 313.4 675.84 313.4 675.84 201.05"/><path class="cls-1" d="M684.36,328.74l9.37,22.84h.39l9.37-22.84h9.17v34.09H705.5v-22.5h-.28l-8.88,22.16h-4.5L683,340.33h-.34v22.16H675.5V328.74Z"/><path class="cls-1" d="M741.3,340.32c-.56-3.77-3.42-6.06-7.39-6.06-5.31,0-8.8,4.07-8.8,11.21,0,7.34,3.54,11.21,8.75,11.21,3.87,0,6.75-2.11,7.44-5.78l7.34,0c-.79,6.32-6.1,12.17-14.9,12.17-9.18,0-16-6.44-16-17.63s6.92-17.62,16-17.62c7.94,0,13.94,4.56,14.9,12.48H741.3Z"/><path class="cls-1" d="M752.54,328.74h28v5.8H770.27v28.29h-7.16V334.54H752.55v-5.8Z"/><polygon class="cls-1" points="825.84 201.05 878.21 243.65 930.5 201.05 930.5 313.4 825.84 313.4 825.84 201.05"/><path class="cls-1" d="M834.36,328.74l9.37,22.84h.39l9.37-22.84h9.17v34.09H855.5v-22.5h-.28l-8.88,22.16h-4.5L833,340.33h-.34v22.16H825.5V328.74Z"/><path class="cls-1" d="M891.3,340.32c-.56-3.77-3.42-6.06-7.39-6.06-5.31,0-8.8,4.07-8.8,11.21,0,7.34,3.54,11.21,8.75,11.21,3.87,0,6.75-2.11,7.44-5.78l7.34,0c-.79,6.32-6.1,12.17-14.9,12.17-9.18,0-16-6.44-16-17.63s6.92-17.62,16-17.62c7.94,0,13.94,4.56,14.9,12.48H891.3Z"/><path class="cls-1" d="M902.54,328.74h28v5.8H920.27v28.29h-7.16V334.54H902.55v-5.8Z"/><polygon class="cls-1" points="975.84 201.05 1028.21 243.65 1080.5 201.05 1080.5 313.4 975.84 313.4 975.84 201.05"/><path class="cls-1" d="M984.36,328.74l9.37,22.84h.39l9.37-22.84h9.17v34.09h-7.16v-22.5h-.28l-8.88,22.16h-4.5L983,340.33h-.34v22.16H975.5V328.74Z"/><path class="cls-1" d="M1041.3,340.32c-.56-3.77-3.42-6.06-7.39-6.06-5.31,0-8.8,4.07-8.8,11.21,0,7.34,3.54,11.21,8.75,11.21,3.87,0,6.75-2.11,7.44-5.78l7.34,0c-.79,6.32-6.1,12.17-14.9,12.17-9.18,0-16-6.44-16-17.63s6.92-17.62,16-17.62c7.94,0,13.94,4.56,14.9,12.48h-7.34Z"/><path class="cls-1" d="M1052.54,328.74h28v5.8h-10.23v28.29h-7.16V334.54h-10.56v-5.8Z"/><polygon class="cls-1" points="1125.84 201.05 1178.21 243.65 1230.5 201.05 1230.5 313.4 1125.84 313.4 1125.84 201.05"/><path class="cls-1" d="M1134.36,328.74l9.37,22.84h.39l9.37-22.84h9.17v34.09h-7.16v-22.5h-.28l-8.88,22.16h-4.5L1133,340.33h-.34v22.16h-7.16V328.74Z"/><path class="cls-1" d="M1191.3,340.32c-.56-3.77-3.42-6.06-7.39-6.06-5.31,0-8.8,4.07-8.8,11.21,0,7.34,3.54,11.21,8.75,11.21,3.87,0,6.75-2.11,7.44-5.78l7.34,0c-.79,6.32-6.1,12.17-14.9,12.17-9.18,0-16-6.44-16-17.63s6.92-17.62,16-17.62c7.94,0,13.94,4.56,14.9,12.48h-7.34Z"/><path class="cls-1" d="M1202.54,328.74h28v5.8h-10.23v28.29h-7.16V334.54h-10.56v-5.8Z"/><polygon class="cls-1" points="1275.84 201.05 1328.21 243.65 1380.5 201.05 1380.5 313.4 1275.84 313.4 1275.84 201.05"/><path class="cls-1" d="M1284.36,328.74l9.37,22.84h.39l9.37-22.84h9.17v34.09h-7.16v-22.5h-.28l-8.88,22.16h-4.5L1283,340.33h-.34v22.16h-7.16V328.74Z"/><path class="cls-1" d="M1341.3,340.32c-.56-3.77-3.42-6.06-7.39-6.06-5.31,0-8.8,4.07-8.8,11.21,0,7.34,3.54,11.21,8.75,11.21,3.87,0,6.75-2.11,7.44-5.78l7.34,0c-.79,6.32-6.1,12.17-14.9,12.17-9.18,0-16-6.44-16-17.63s6.92-17.62,16-17.62c7.94,0,13.94,4.56,14.9,12.48h-7.34Z"/><path class="cls-1" d="M1352.54,328.74h28v5.8h-10.23v28.29h-7.16V334.54h-10.56v-5.8Z"/><polygon class="cls-1" points="1425.84 201.05 1478.21 243.65 1530.5 201.05 1530.5 313.4 1425.84 313.4 1425.84 201.05"/><path class="cls-1" d="M1434.36,328.74l9.37,22.84h.39l9.37-22.84h9.17v34.09h-7.16v-22.5h-.28l-8.88,22.16h-4.5L1433,340.33h-.34v22.16h-7.16V328.74Z"/><path class="cls-1" d="M1491.3,340.32c-.56-3.77-3.42-6.06-7.39-6.06-5.31,0-8.8,4.07-8.8,11.21,0,7.34,3.54,11.21,8.75,11.21,3.87,0,6.75-2.11,7.44-5.78l7.34,0c-.79,6.32-6.1,12.17-14.9,12.17-9.18,0-16-6.44-16-17.63s6.92-17.62,16-17.62c7.94,0,13.94,4.56,14.9,12.48h-7.34Z"/><path class="cls-1" d="M1502.54,328.74h28v5.8h-10.23v28.29h-7.16V334.54h-10.56v-5.8Z"/><polygon class="cls-1" points="1575.84 201.05 1628.21 243.65 1680.5 201.05 1680.5 313.4 1575.84 313.4 1575.84 201.05"/><path class="cls-1" d="M1584.36,328.74l9.37,22.84h.39l9.37-22.84h9.17v34.09h-7.16v-22.5h-.28l-8.88,22.16h-4.5L1583,340.33h-.34v22.16h-7.16V328.74Z"/><path class="cls-1" d="M1641.3,340.32c-.56-3.77-3.42-6.06-7.39-6.06-5.31,0-8.8,4.07-8.8,11.21,0,7.34,3.54,11.21,8.75,11.21,3.87,0,6.75-2.11,7.44-5.78l7.34,0c-.79,6.32-6.1,12.17-14.9,12.17-9.18,0-16-6.44-16-17.63s6.92-17.62,16-17.62c7.94,0,13.94,4.56,14.9,12.48h-7.34Z"/><path class="cls-1" d="M1652.54,328.74h28v5.8h-10.23v28.29h-7.16V334.54h-10.56v-5.8Z"/><polygon class="cls-1" points="1725.84 201.05 1778.21 243.65 1830.5 201.05 1830.5 313.4 1725.84 313.4 1725.84 201.05"/><path class="cls-1" d="M1734.36,328.74l9.37,22.84h.39l9.37-22.84h9.17v34.09h-7.16v-22.5h-.28l-8.88,22.16h-4.5L1733,340.33h-.34v22.16h-7.16V328.74Z"/><path class="cls-1" d="M1791.3,340.32c-.56-3.77-3.42-6.06-7.39-6.06-5.31,0-8.8,4.07-8.8,11.21,0,7.34,3.54,11.21,8.75,11.21,3.87,0,6.75-2.11,7.44-5.78l7.34,0c-.79,6.32-6.1,12.17-14.9,12.17-9.18,0-16-6.44-16-17.63s6.92-17.62,16-17.62c7.94,0,13.94,4.56,14.9,12.48h-7.34Z"/><path class="cls-1" d="M1802.54,328.74h28v5.8h-10.23v28.29h-7.16V334.54h-10.56v-5.8Z"/><polygon class="cls-1" points="1875.84 201.05 1928.21 243.65 1980.5 201.05 1980.5 313.4 1875.84 313.4 1875.84 201.05"/><path class="cls-1" d="M1884.36,328.74l9.37,22.84h.39l9.37-22.84h9.17v34.09h-7.16v-22.5h-.28l-8.88,22.16h-4.5L1883,340.33h-.34v22.16h-7.16V328.74Z"/><path class="cls-1" d="M1941.3,340.32c-.56-3.77-3.42-6.06-7.39-6.06-5.31,0-8.8,4.07-8.8,11.21,0,7.34,3.54,11.21,8.75,11.21,3.87,0,6.75-2.11,7.44-5.78l7.34,0c-.79,6.32-6.1,12.17-14.9,12.17-9.18,0-16-6.44-16-17.63s6.92-17.62,16-17.62c7.94,0,13.94,4.56,14.9,12.48h-7.34Z"/><path class="cls-1" d="M1952.54,328.74h28v5.8h-10.23v28.29h-7.16V334.54h-10.56v-5.8Z"/><polygon class="cls-1" points="2025.84 201.05 2078.21 243.65 2130.5 201.05 2130.5 313.4 2025.84 313.4 2025.84 201.05"/><path class="cls-1" d="M2034.36,328.74l9.37,22.84h.39l9.37-22.84h9.17v34.09h-7.16v-22.5h-.28l-8.88,22.16h-4.5L2033,340.33h-.34v22.16h-7.16V328.74Z"/><path class="cls-1" d="M2091.3,340.32c-.56-3.77-3.42-6.06-7.39-6.06-5.31,0-8.8,4.07-8.8,11.21,0,7.34,3.54,11.21,8.75,11.21,3.87,0,6.75-2.11,7.44-5.78l7.34,0c-.79,6.32-6.1,12.17-14.9,12.17-9.18,0-16-6.44-16-17.63s6.92-17.62,16-17.62c7.94,0,13.94,4.56,14.9,12.48h-7.34Z"/><path class="cls-1" d="M2102.54,328.74h28v5.8h-10.23v28.29h-7.16V334.54h-10.56v-5.8Z"/><polygon class="cls-1" points="2175.84 201.05 2228.21 243.65 2280.5 201.05 2280.5 313.4 2175.84 313.4 2175.84 201.05"/><path class="cls-1" d="M2184.36,328.74l9.37,22.84h.39l9.37-22.84h9.17v34.09h-7.16v-22.5h-.28l-8.88,22.16h-4.5L2183,340.33h-.34v22.16h-7.16V328.74Z"/><path class="cls-1" d="M2241.3,340.32c-.56-3.77-3.42-6.06-7.39-6.06-5.31,0-8.8,4.07-8.8,11.21,0,7.34,3.54,11.21,8.75,11.21,3.87,0,6.75-2.11,7.44-5.78l7.34,0c-.79,6.32-6.1,12.17-14.9,12.17-9.18,0-16-6.44-16-17.63s6.92-17.62,16-17.62c7.94,0,13.94,4.56,14.9,12.48h-7.34Z"/><path class="cls-1" d="M2252.54,328.74h28v5.8h-10.23v28.29h-7.16V334.54h-10.56v-5.8Z"/><polygon class="cls-1" points="0.84 401.05 53.21 443.65 105.5 401.05 105.5 513.4 0.84 513.4 0.84 401.05"/><path class="cls-1" d="M9.36,528.74l9.37,22.84h.39l9.37-22.84h9.17v34.09H30.5v-22.5h-.28l-8.88,22.16h-4.5L8,540.33H7.66v22.16H.5V528.74Z"/><path class="cls-1" d="M66.3,540.32c-.56-3.77-3.42-6.06-7.39-6.06-5.31,0-8.8,4.07-8.8,11.21,0,7.34,3.54,11.21,8.75,11.21,3.87,0,6.75-2.11,7.44-5.78l7.34,0c-.79,6.32-6.1,12.17-14.9,12.17-9.18,0-16-6.44-16-17.63s6.92-17.62,16-17.62c7.94,0,13.94,4.56,14.9,12.48H66.3Z"/><path class="cls-1" d="M77.54,528.74h28v5.8H95.27v28.29H88.11V534.54H77.55v-5.8Z"/><polygon class="cls-1" points="150.84 401.05 203.21 443.65 255.5 401.05 255.5 513.4 150.84 513.4 150.84 401.05"/><path class="cls-1" d="M159.36,528.74l9.37,22.84h.39l9.37-22.84h9.17v34.09H180.5v-22.5h-.28l-8.88,22.16h-4.5L158,540.33h-.34v22.16H150.5V528.74Z"/><path class="cls-1" d="M216.3,540.32c-.56-3.77-3.42-6.06-7.39-6.06-5.31,0-8.8,4.07-8.8,11.21,0,7.34,3.54,11.21,8.75,11.21,3.87,0,6.75-2.11,7.44-5.78l7.34,0c-.79,6.32-6.1,12.17-14.9,12.17-9.18,0-16-6.44-16-17.63s6.92-17.62,16-17.62c7.94,0,13.94,4.56,14.9,12.48H216.3Z"/><path class="cls-1" d="M227.54,528.74h28v5.8H245.27v28.29h-7.16V534.54H227.55v-5.8Z"/><polygon class="cls-1" points="300.84 401.05 353.21 443.65 405.5 401.05 405.5 513.4 300.84 513.4 300.84 401.05"/><path class="cls-1" d="M309.36,528.74l9.37,22.84h.39l9.37-22.84h9.17v34.09H330.5v-22.5h-.28l-8.88,22.16h-4.5L308,540.33h-.34v22.16H300.5V528.74Z"/><path class="cls-1" d="M366.3,540.32c-.56-3.77-3.42-6.06-7.39-6.06-5.31,0-8.8,4.07-8.8,11.21,0,7.34,3.54,11.21,8.75,11.21,3.87,0,6.75-2.11,7.44-5.78l7.34,0c-.79,6.32-6.1,12.17-14.9,12.17-9.18,0-16-6.44-16-17.63s6.92-17.62,16-17.62c7.94,0,13.94,4.56,14.9,12.48H366.3Z"/><path class="cls-1" d="M377.54,528.74h28v5.8H395.27v28.29h-7.16V534.54H377.55v-5.8Z"/><polygon class="cls-1" points="450.84 401.05 503.21 443.65 555.5 401.05 555.5 513.4 450.84 513.4 450.84 401.05"/><path class="cls-1" d="M459.36,528.74l9.37,22.84h.39l9.37-22.84h9.17v34.09H480.5v-22.5h-.28l-8.88,22.16h-4.5L458,540.33h-.34v22.16H450.5V528.74Z"/><path class="cls-1" d="M516.3,540.32c-.56-3.77-3.42-6.06-7.39-6.06-5.31,0-8.8,4.07-8.8,11.21,0,7.34,3.54,11.21,8.75,11.21,3.87,0,6.75-2.11,7.44-5.78l7.34,0c-.79,6.32-6.1,12.17-14.9,12.17-9.18,0-16-6.44-16-17.63s6.92-17.62,16-17.62c7.94,0,13.94,4.56,14.9,12.48H516.3Z"/><path class="cls-1" d="M527.54,528.74h28v5.8H545.27v28.29h-7.16V534.54H527.55v-5.8Z"/><polygon class="cls-1" points="600.84 401.05 653.21 443.65 705.5 401.05 705.5 513.4 600.84 513.4 600.84 401.05"/><path class="cls-1" d="M609.36,528.74l9.37,22.84h.39l9.37-22.84h9.17v34.09H630.5v-22.5h-.28l-8.88,22.16h-4.5L608,540.33h-.34v22.16H600.5V528.74Z"/><path class="cls-1" d="M666.3,540.32c-.56-3.77-3.42-6.06-7.39-6.06-5.31,0-8.8,4.07-8.8,11.21,0,7.34,3.54,11.21,8.75,11.21,3.87,0,6.75-2.11,7.44-5.78l7.34,0c-.79,6.32-6.1,12.17-14.9,12.17-9.18,0-16-6.44-16-17.63s6.92-17.62,16-17.62c7.94,0,13.94,4.56,14.9,12.48H666.3Z"/><path class="cls-1" d="M677.54,528.74h28v5.8H695.27v28.29h-7.16V534.54H677.55v-5.8Z"/><polygon class="cls-1" points="750.84 401.05 803.21 443.65 855.5 401.05 855.5 513.4 750.84 513.4 750.84 401.05"/><path class="cls-1" d="M759.36,528.74l9.37,22.84h.39l9.37-22.84h9.17v34.09H780.5v-22.5h-.28l-8.88,22.16h-4.5L758,540.33h-.34v22.16H750.5V528.74Z"/><path class="cls-1" d="M816.3,540.32c-.56-3.77-3.42-6.06-7.39-6.06-5.31,0-8.8,4.07-8.8,11.21,0,7.34,3.54,11.21,8.75,11.21,3.87,0,6.75-2.11,7.44-5.78l7.34,0c-.79,6.32-6.1,12.17-14.9,12.17-9.18,0-16-6.44-16-17.63s6.92-17.62,16-17.62c7.94,0,13.94,4.56,14.9,12.48H816.3Z"/><path class="cls-1" d="M827.54,528.74h28v5.8H845.27v28.29h-7.16V534.54H827.55v-5.8Z"/><polygon class="cls-1" points="900.84 401.05 953.21 443.65 1005.5 401.05 1005.5 513.4 900.84 513.4 900.84 401.05"/><path class="cls-1" d="M909.36,528.74l9.37,22.84h.39l9.37-22.84h9.17v34.09H930.5v-22.5h-.28l-8.88,22.16h-4.5L908,540.33h-.34v22.16H900.5V528.74Z"/><path class="cls-1" d="M966.3,540.32c-.56-3.77-3.42-6.06-7.39-6.06-5.31,0-8.8,4.07-8.8,11.21,0,7.34,3.54,11.21,8.75,11.21,3.87,0,6.75-2.11,7.44-5.78l7.34,0c-.79,6.32-6.1,12.17-14.9,12.17-9.18,0-16-6.44-16-17.63s6.92-17.62,16-17.62c7.94,0,13.94,4.56,14.9,12.48H966.3Z"/><path class="cls-1" d="M977.54,528.74h28v5.8H995.27v28.29h-7.16V534.54H977.55v-5.8Z"/><polygon class="cls-1" points="1050.84 401.05 1103.21 443.65 1155.5 401.05 1155.5 513.4 1050.84 513.4 1050.84 401.05"/><path class="cls-1" d="M1059.36,528.74l9.37,22.84h.39l9.37-22.84h9.17v34.09h-7.16v-22.5h-.28l-8.88,22.16h-4.5L1058,540.33h-.34v22.16h-7.16V528.74Z"/><path class="cls-1" d="M1116.3,540.32c-.56-3.77-3.42-6.06-7.39-6.06-5.31,0-8.8,4.07-8.8,11.21,0,7.34,3.54,11.21,8.75,11.21,3.87,0,6.75-2.11,7.44-5.78l7.34,0c-.79,6.32-6.1,12.17-14.9,12.17-9.18,0-16-6.44-16-17.63s6.92-17.62,16-17.62c7.94,0,13.94,4.56,14.9,12.48h-7.34Z"/><path class="cls-1" d="M1127.54,528.74h28v5.8h-10.23v28.29h-7.16V534.54h-10.56v-5.8Z"/><polygon class="cls-1" points="1200.84 401.05 1253.21 443.65 1305.5 401.05 1305.5 513.4 1200.84 513.4 1200.84 401.05"/><path class="cls-1" d="M1209.36,528.74l9.37,22.84h.39l9.37-22.84h9.17v34.09h-7.16v-22.5h-.28l-8.88,22.16h-4.5L1208,540.33h-.34v22.16h-7.16V528.74Z"/><path class="cls-1" d="M1266.3,540.32c-.56-3.77-3.42-6.06-7.39-6.06-5.31,0-8.8,4.07-8.8,11.21,0,7.34,3.54,11.21,8.75,11.21,3.87,0,6.75-2.11,7.44-5.78l7.34,0c-.79,6.32-6.1,12.17-14.9,12.17-9.18,0-16-6.44-16-17.63s6.92-17.62,16-17.62c7.94,0,13.94,4.56,14.9,12.48h-7.34Z"/><path class="cls-1" d="M1277.54,528.74h28v5.8h-10.23v28.29h-7.16V534.54h-10.56v-5.8Z"/><polygon class="cls-1" points="1350.84 401.05 1403.21 443.65 1455.5 401.05 1455.5 513.4 1350.84 513.4 1350.84 401.05"/><path class="cls-1" d="M1359.36,528.74l9.37,22.84h.39l9.37-22.84h9.17v34.09h-7.16v-22.5h-.28l-8.88,22.16h-4.5L1358,540.33h-.34v22.16h-7.16V528.74Z"/><path class="cls-1" d="M1416.3,540.32c-.56-3.77-3.42-6.06-7.39-6.06-5.31,0-8.8,4.07-8.8,11.21,0,7.34,3.54,11.21,8.75,11.21,3.87,0,6.75-2.11,7.44-5.78l7.34,0c-.79,6.32-6.1,12.17-14.9,12.17-9.18,0-16-6.44-16-17.63s6.92-17.62,16-17.62c7.94,0,13.94,4.56,14.9,12.48h-7.34Z"/><path class="cls-1" d="M1427.54,528.74h28v5.8h-10.23v28.29h-7.16V534.54h-10.56v-5.8Z"/><polygon class="cls-1" points="1500.84 401.05 1553.21 443.65 1605.5 401.05 1605.5 513.4 1500.84 513.4 1500.84 401.05"/><path class="cls-1" d="M1509.36,528.74l9.37,22.84h.39l9.37-22.84h9.17v34.09h-7.16v-22.5h-.28l-8.88,22.16h-4.5L1508,540.33h-.34v22.16h-7.16V528.74Z"/><path class="cls-1" d="M1566.3,540.32c-.56-3.77-3.42-6.06-7.39-6.06-5.31,0-8.8,4.07-8.8,11.21,0,7.34,3.54,11.21,8.75,11.21,3.87,0,6.75-2.11,7.44-5.78l7.34,0c-.79,6.32-6.1,12.17-14.9,12.17-9.18,0-16-6.44-16-17.63s6.92-17.62,16-17.62c7.94,0,13.94,4.56,14.9,12.48h-7.34Z"/><path class="cls-1" d="M1577.54,528.74h28v5.8h-10.23v28.29h-7.16V534.54h-10.56v-5.8Z"/><polygon class="cls-1" points="1650.84 401.05 1703.21 443.65 1755.5 401.05 1755.5 513.4 1650.84 513.4 1650.84 401.05"/><path class="cls-1" d="M1659.36,528.74l9.37,22.84h.39l9.37-22.84h9.17v34.09h-7.16v-22.5h-.28l-8.88,22.16h-4.5L1658,540.33h-.34v22.16h-7.16V528.74Z"/><path class="cls-1" d="M1716.3,540.32c-.56-3.77-3.42-6.06-7.39-6.06-5.31,0-8.8,4.07-8.8,11.21,0,7.34,3.54,11.21,8.75,11.21,3.87,0,6.75-2.11,7.44-5.78l7.34,0c-.79,6.32-6.1,12.17-14.9,12.17-9.18,0-16-6.44-16-17.63s6.92-17.62,16-17.62c7.94,0,13.94,4.56,14.9,12.48h-7.34Z"/><path class="cls-1" d="M1727.54,528.74h28v5.8h-10.23v28.29h-7.16V534.54h-10.56v-5.8Z"/><polygon class="cls-1" points="1800.84 401.05 1853.21 443.65 1905.5 401.05 1905.5 513.4 1800.84 513.4 1800.84 401.05"/><path class="cls-1" d="M1809.36,528.74l9.37,22.84h.39l9.37-22.84h9.17v34.09h-7.16v-22.5h-.28l-8.88,22.16h-4.5L1808,540.33h-.34v22.16h-7.16V528.74Z"/><path class="cls-1" d="M1866.3,540.32c-.56-3.77-3.42-6.06-7.39-6.06-5.31,0-8.8,4.07-8.8,11.21,0,7.34,3.54,11.21,8.75,11.21,3.87,0,6.75-2.11,7.44-5.78l7.34,0c-.79,6.32-6.1,12.17-14.9,12.17-9.18,0-16-6.44-16-17.63s6.92-17.62,16-17.62c7.94,0,13.94,4.56,14.9,12.48h-7.34Z"/><path class="cls-1" d="M1877.54,528.74h28v5.8h-10.23v28.29h-7.16V534.54h-10.56v-5.8Z"/><polygon class="cls-1" points="1950.84 401.05 2003.21 443.65 2055.5 401.05 2055.5 513.4 1950.84 513.4 1950.84 401.05"/><path class="cls-1" d="M1959.36,528.74l9.37,22.84h.39l9.37-22.84h9.17v34.09h-7.16v-22.5h-.28l-8.88,22.16h-4.5L1958,540.33h-.34v22.16h-7.16V528.74Z"/><path class="cls-1" d="M2016.3,540.32c-.56-3.77-3.42-6.06-7.39-6.06-5.31,0-8.8,4.07-8.8,11.21,0,7.34,3.54,11.21,8.75,11.21,3.87,0,6.75-2.11,7.44-5.78l7.34,0c-.79,6.32-6.1,12.17-14.9,12.17-9.18,0-16-6.44-16-17.63s6.92-17.62,16-17.62c7.94,0,13.94,4.56,14.9,12.48h-7.34Z"/><path class="cls-1" d="M2027.54,528.74h28v5.8h-10.23v28.29h-7.16V534.54h-10.56v-5.8Z"/><polygon class="cls-1" points="2100.84 401.05 2153.21 443.65 2205.5 401.05 2205.5 513.4 2100.84 513.4 2100.84 401.05"/><path class="cls-1" d="M2109.36,528.74l9.37,22.84h.39l9.37-22.84h9.17v34.09h-7.16v-22.5h-.28l-8.88,22.16h-4.5L2108,540.33h-.34v22.16h-7.16V528.74Z"/><path class="cls-1" d="M2166.3,540.32c-.56-3.77-3.42-6.06-7.39-6.06-5.31,0-8.8,4.07-8.8,11.21,0,7.34,3.54,11.21,8.75,11.21,3.87,0,6.75-2.11,7.44-5.78l7.34,0c-.79,6.32-6.1,12.17-14.9,12.17-9.18,0-16-6.44-16-17.63s6.92-17.62,16-17.62c7.94,0,13.94,4.56,14.9,12.48h-7.34Z"/><path class="cls-1" d="M2177.54,528.74h28v5.8h-10.23v28.29h-7.16V534.54h-10.56v-5.8Z"/><polygon class="cls-1" points="75.84 601.05 128.21 643.65 180.5 601.05 180.5 713.4 75.84 713.4 75.84 601.05"/><path class="cls-1" d="M84.36,728.74l9.37,22.84h.39l9.37-22.84h9.17v34.09H105.5v-22.5h-.28l-8.88,22.16h-4.5L83,740.33h-.34v22.16H75.5V728.74Z"/><path class="cls-1" d="M141.3,740.32c-.56-3.77-3.42-6.06-7.39-6.06-5.31,0-8.8,4.07-8.8,11.21,0,7.34,3.54,11.21,8.75,11.21,3.87,0,6.75-2.11,7.44-5.78l7.34,0c-.79,6.32-6.1,12.17-14.9,12.17-9.18,0-16-6.44-16-17.63s6.92-17.62,16-17.62c7.94,0,13.94,4.56,14.9,12.48H141.3Z"/><path class="cls-1" d="M152.54,728.74h28v5.8H170.27v28.29h-7.16V734.54H152.55v-5.8Z"/><polygon class="cls-1" points="225.84 601.05 278.21 643.65 330.5 601.05 330.5 713.4 225.84 713.4 225.84 601.05"/><path class="cls-1" d="M234.36,728.74l9.37,22.84h.39l9.37-22.84h9.17v34.09H255.5v-22.5h-.28l-8.88,22.16h-4.5L233,740.33h-.34v22.16H225.5V728.74Z"/><path class="cls-1" d="M291.3,740.32c-.56-3.77-3.42-6.06-7.39-6.06-5.31,0-8.8,4.07-8.8,11.21,0,7.34,3.54,11.21,8.75,11.21,3.87,0,6.75-2.11,7.44-5.78l7.34,0c-.79,6.32-6.1,12.17-14.9,12.17-9.18,0-16-6.44-16-17.63s6.92-17.62,16-17.62c7.94,0,13.94,4.56,14.9,12.48H291.3Z"/><path class="cls-1" d="M302.54,728.74h28v5.8H320.27v28.29h-7.16V734.54H302.55v-5.8Z"/><polygon class="cls-1" points="375.84 601.05 428.21 643.65 480.5 601.05 480.5 713.4 375.84 713.4 375.84 601.05"/><path class="cls-1" d="M384.36,728.74l9.37,22.84h.39l9.37-22.84h9.17v34.09H405.5v-22.5h-.28l-8.88,22.16h-4.5L383,740.33h-.34v22.16H375.5V728.74Z"/><path class="cls-1" d="M441.3,740.32c-.56-3.77-3.42-6.06-7.39-6.06-5.31,0-8.8,4.07-8.8,11.21,0,7.34,3.54,11.21,8.75,11.21,3.87,0,6.75-2.11,7.44-5.78l7.34,0c-.79,6.32-6.1,12.17-14.9,12.17-9.18,0-16-6.44-16-17.63s6.92-17.62,16-17.62c7.94,0,13.94,4.56,14.9,12.48H441.3Z"/><path class="cls-1" d="M452.54,728.74h28v5.8H470.27v28.29h-7.16V734.54H452.55v-5.8Z"/><polygon class="cls-1" points="525.84 601.05 578.21 643.65 630.5 601.05 630.5 713.4 525.84 713.4 525.84 601.05"/><path class="cls-1" d="M534.36,728.74l9.37,22.84h.39l9.37-22.84h9.17v34.09H555.5v-22.5h-.28l-8.88,22.16h-4.5L533,740.33h-.34v22.16H525.5V728.74Z"/><path class="cls-1" d="M591.3,740.32c-.56-3.77-3.42-6.06-7.39-6.06-5.31,0-8.8,4.07-8.8,11.21,0,7.34,3.54,11.21,8.75,11.21,3.87,0,6.75-2.11,7.44-5.78l7.34,0c-.79,6.32-6.1,12.17-14.9,12.17-9.18,0-16-6.44-16-17.63s6.92-17.62,16-17.62c7.94,0,13.94,4.56,14.9,12.48H591.3Z"/><path class="cls-1" d="M602.54,728.74h28v5.8H620.27v28.29h-7.16V734.54H602.55v-5.8Z"/><polygon class="cls-1" points="675.84 601.05 728.21 643.65 780.5 601.05 780.5 713.4 675.84 713.4 675.84 601.05"/><path class="cls-1" d="M684.36,728.74l9.37,22.84h.39l9.37-22.84h9.17v34.09H705.5v-22.5h-.28l-8.88,22.16h-4.5L683,740.33h-.34v22.16H675.5V728.74Z"/><path class="cls-1" d="M741.3,740.32c-.56-3.77-3.42-6.06-7.39-6.06-5.31,0-8.8,4.07-8.8,11.21,0,7.34,3.54,11.21,8.75,11.21,3.87,0,6.75-2.11,7.44-5.78l7.34,0c-.79,6.32-6.1,12.17-14.9,12.17-9.18,0-16-6.44-16-17.63s6.92-17.62,16-17.62c7.94,0,13.94,4.56,14.9,12.48H741.3Z"/><path class="cls-1" d="M752.54,728.74h28v5.8H770.27v28.29h-7.16V734.54H752.55v-5.8Z"/><polygon class="cls-1" points="825.84 601.05 878.21 643.65 930.5 601.05 930.5 713.4 825.84 713.4 825.84 601.05"/><path class="cls-1" d="M834.36,728.74l9.37,22.84h.39l9.37-22.84h9.17v34.09H855.5v-22.5h-.28l-8.88,22.16h-4.5L833,740.33h-.34v22.16H825.5V728.74Z"/><path class="cls-1" d="M891.3,740.32c-.56-3.77-3.42-6.06-7.39-6.06-5.31,0-8.8,4.07-8.8,11.21,0,7.34,3.54,11.21,8.75,11.21,3.87,0,6.75-2.11,7.44-5.78l7.34,0c-.79,6.32-6.1,12.17-14.9,12.17-9.18,0-16-6.44-16-17.63s6.92-17.62,16-17.62c7.94,0,13.94,4.56,14.9,12.48H891.3Z"/><path class="cls-1" d="M902.54,728.74h28v5.8H920.27v28.29h-7.16V734.54H902.55v-5.8Z"/><polygon class="cls-1" points="975.84 601.05 1028.21 643.65 1080.5 601.05 1080.5 713.4 975.84 713.4 975.84 601.05"/><path class="cls-1" d="M984.36,728.74l9.37,22.84h.39l9.37-22.84h9.17v34.09h-7.16v-22.5h-.28l-8.88,22.16h-4.5L983,740.33h-.34v22.16H975.5V728.74Z"/><path class="cls-1" d="M1041.3,740.32c-.56-3.77-3.42-6.06-7.39-6.06-5.31,0-8.8,4.07-8.8,11.21,0,7.34,3.54,11.21,8.75,11.21,3.87,0,6.75-2.11,7.44-5.78l7.34,0c-.79,6.32-6.1,12.17-14.9,12.17-9.18,0-16-6.44-16-17.63s6.92-17.62,16-17.62c7.94,0,13.94,4.56,14.9,12.48h-7.34Z"/><path class="cls-1" d="M1052.54,728.74h28v5.8h-10.23v28.29h-7.16V734.54h-10.56v-5.8Z"/><polygon class="cls-1" points="1125.84 601.05 1178.21 643.65 1230.5 601.05 1230.5 713.4 1125.84 713.4 1125.84 601.05"/><path class="cls-1" d="M1134.36,728.74l9.37,22.84h.39l9.37-22.84h9.17v34.09h-7.16v-22.5h-.28l-8.88,22.16h-4.5L1133,740.33h-.34v22.16h-7.16V728.74Z"/><path class="cls-1" d="M1191.3,740.32c-.56-3.77-3.42-6.06-7.39-6.06-5.31,0-8.8,4.07-8.8,11.21,0,7.34,3.54,11.21,8.75,11.21,3.87,0,6.75-2.11,7.44-5.78l7.34,0c-.79,6.32-6.1,12.17-14.9,12.17-9.18,0-16-6.44-16-17.63s6.92-17.62,16-17.62c7.94,0,13.94,4.56,14.9,12.48h-7.34Z"/><path class="cls-1" d="M1202.54,728.74h28v5.8h-10.23v28.29h-7.16V734.54h-10.56v-5.8Z"/><polygon class="cls-1" points="1275.84 601.05 1328.21 643.65 1380.5 601.05 1380.5 713.4 1275.84 713.4 1275.84 601.05"/><path class="cls-1" d="M1284.36,728.74l9.37,22.84h.39l9.37-22.84h9.17v34.09h-7.16v-22.5h-.28l-8.88,22.16h-4.5L1283,740.33h-.34v22.16h-7.16V728.74Z"/><path class="cls-1" d="M1341.3,740.32c-.56-3.77-3.42-6.06-7.39-6.06-5.31,0-8.8,4.07-8.8,11.21,0,7.34,3.54,11.21,8.75,11.21,3.87,0,6.75-2.11,7.44-5.78l7.34,0c-.79,6.32-6.1,12.17-14.9,12.17-9.18,0-16-6.44-16-17.63s6.92-17.62,16-17.62c7.94,0,13.94,4.56,14.9,12.48h-7.34Z"/><path class="cls-1" d="M1352.54,728.74h28v5.8h-10.23v28.29h-7.16V734.54h-10.56v-5.8Z"/><polygon class="cls-1" points="1425.84 601.05 1478.21 643.65 1530.5 601.05 1530.5 713.4 1425.84 713.4 1425.84 601.05"/><path class="cls-1" d="M1434.36,728.74l9.37,22.84h.39l9.37-22.84h9.17v34.09h-7.16v-22.5h-.28l-8.88,22.16h-4.5L1433,740.33h-.34v22.16h-7.16V728.74Z"/><path class="cls-1" d="M1491.3,740.32c-.56-3.77-3.42-6.06-7.39-6.06-5.31,0-8.8,4.07-8.8,11.21,0,7.34,3.54,11.21,8.75,11.21,3.87,0,6.75-2.11,7.44-5.78l7.34,0c-.79,6.32-6.1,12.17-14.9,12.17-9.18,0-16-6.44-16-17.63s6.92-17.62,16-17.62c7.94,0,13.94,4.56,14.9,12.48h-7.34Z"/><path class="cls-1" d="M1502.54,728.74h28v5.8h-10.23v28.29h-7.16V734.54h-10.56v-5.8Z"/><polygon class="cls-1" points="1575.84 601.05 1628.21 643.65 1680.5 601.05 1680.5 713.4 1575.84 713.4 1575.84 601.05"/><path class="cls-1" d="M1584.36,728.74l9.37,22.84h.39l9.37-22.84h9.17v34.09h-7.16v-22.5h-.28l-8.88,22.16h-4.5L1583,740.33h-.34v22.16h-7.16V728.74Z"/><path class="cls-1" d="M1641.3,740.32c-.56-3.77-3.42-6.06-7.39-6.06-5.31,0-8.8,4.07-8.8,11.21,0,7.34,3.54,11.21,8.75,11.21,3.87,0,6.75-2.11,7.44-5.78l7.34,0c-.79,6.32-6.1,12.17-14.9,12.17-9.18,0-16-6.44-16-17.63s6.92-17.62,16-17.62c7.94,0,13.94,4.56,14.9,12.48h-7.34Z"/><path class="cls-1" d="M1652.54,728.74h28v5.8h-10.23v28.29h-7.16V734.54h-10.56v-5.8Z"/><polygon class="cls-1" points="1725.84 601.05 1778.21 643.65 1830.5 601.05 1830.5 713.4 1725.84 713.4 1725.84 601.05"/><path class="cls-1" d="M1734.36,728.74l9.37,22.84h.39l9.37-22.84h9.17v34.09h-7.16v-22.5h-.28l-8.88,22.16h-4.5L1733,740.33h-.34v22.16h-7.16V728.74Z"/><path class="cls-1" d="M1791.3,740.32c-.56-3.77-3.42-6.06-7.39-6.06-5.31,0-8.8,4.07-8.8,11.21,0,7.34,3.54,11.21,8.75,11.21,3.87,0,6.75-2.11,7.44-5.78l7.34,0c-.79,6.32-6.1,12.17-14.9,12.17-9.18,0-16-6.44-16-17.63s6.92-17.62,16-17.62c7.94,0,13.94,4.56,14.9,12.48h-7.34Z"/><path class="cls-1" d="M1802.54,728.74h28v5.8h-10.23v28.29h-7.16V734.54h-10.56v-5.8Z"/><polygon class="cls-1" points="1875.84 601.05 1928.21 643.65 1980.5 601.05 1980.5 713.4 1875.84 713.4 1875.84 601.05"/><path class="cls-1" d="M1884.36,728.74l9.37,22.84h.39l9.37-22.84h9.17v34.09h-7.16v-22.5h-.28l-8.88,22.16h-4.5L1883,740.33h-.34v22.16h-7.16V728.74Z"/><path class="cls-1" d="M1941.3,740.32c-.56-3.77-3.42-6.06-7.39-6.06-5.31,0-8.8,4.07-8.8,11.21,0,7.34,3.54,11.21,8.75,11.21,3.87,0,6.75-2.11,7.44-5.78l7.34,0c-.79,6.32-6.1,12.17-14.9,12.17-9.18,0-16-6.44-16-17.63s6.92-17.62,16-17.62c7.94,0,13.94,4.56,14.9,12.48h-7.34Z"/><path class="cls-1" d="M1952.54,728.74h28v5.8h-10.23v28.29h-7.16V734.54h-10.56v-5.8Z"/><polygon class="cls-1" points="2025.84 601.05 2078.21 643.65 2130.5 601.05 2130.5 713.4 2025.84 713.4 2025.84 601.05"/><path class="cls-1" d="M2034.36,728.74l9.37,22.84h.39l9.37-22.84h9.17v34.09h-7.16v-22.5h-.28l-8.88,22.16h-4.5L2033,740.33h-.34v22.16h-7.16V728.74Z"/><path class="cls-1" d="M2091.3,740.32c-.56-3.77-3.42-6.06-7.39-6.06-5.31,0-8.8,4.07-8.8,11.21,0,7.34,3.54,11.21,8.75,11.21,3.87,0,6.75-2.11,7.44-5.78l7.34,0c-.79,6.32-6.1,12.17-14.9,12.17-9.18,0-16-6.44-16-17.63s6.92-17.62,16-17.62c7.94,0,13.94,4.56,14.9,12.48h-7.34Z"/><path class="cls-1" d="M2102.54,728.74h28v5.8h-10.23v28.29h-7.16V734.54h-10.56v-5.8Z"/><polygon class="cls-1" points="2175.84 601.05 2228.21 643.65 2280.5 601.05 2280.5 713.4 2175.84 713.4 2175.84 601.05"/><path class="cls-1" d="M2184.36,728.74l9.37,22.84h.39l9.37-22.84h9.17v34.09h-7.16v-22.5h-.28l-8.88,22.16h-4.5L2183,740.33h-.34v22.16h-7.16V728.74Z"/><path class="cls-1" d="M2241.3,740.32c-.56-3.77-3.42-6.06-7.39-6.06-5.31,0-8.8,4.07-8.8,11.21,0,7.34,3.54,11.21,8.75,11.21,3.87,0,6.75-2.11,7.44-5.78l7.34,0c-.79,6.32-6.1,12.17-14.9,12.17-9.18,0-16-6.44-16-17.63s6.92-17.62,16-17.62c7.94,0,13.94,4.56,14.9,12.48h-7.34Z"/><path class="cls-1" d="M2252.54,728.74h28v5.8h-10.23v28.29h-7.16V734.54h-10.56v-5.8Z"/><polygon class="cls-1" points="0.84 801.05 53.21 843.65 105.5 801.05 105.5 913.4 0.84 913.4 0.84 801.05"/><path class="cls-1" d="M9.36,928.74l9.37,22.84h.39l9.37-22.84h9.17v34.09H30.5v-22.5h-.28l-8.88,22.16h-4.5L8,940.33H7.66v22.16H.5V928.74Z"/><path class="cls-1" d="M66.3,940.32c-.56-3.77-3.42-6.06-7.39-6.06-5.31,0-8.8,4.07-8.8,11.21,0,7.34,3.54,11.21,8.75,11.21,3.87,0,6.75-2.11,7.44-5.78l7.34,0c-.79,6.32-6.1,12.17-14.9,12.17-9.18,0-16-6.44-16-17.63s6.92-17.62,16-17.62c7.94,0,13.94,4.56,14.9,12.48H66.3Z"/><path class="cls-1" d="M77.54,928.74h28v5.8H95.27v28.29H88.11V934.54H77.55v-5.8Z"/><polygon class="cls-1" points="150.84 801.05 203.21 843.65 255.5 801.05 255.5 913.4 150.84 913.4 150.84 801.05"/><path class="cls-1" d="M159.36,928.74l9.37,22.84h.39l9.37-22.84h9.17v34.09H180.5v-22.5h-.28l-8.88,22.16h-4.5L158,940.33h-.34v22.16H150.5V928.74Z"/><path class="cls-1" d="M216.3,940.32c-.56-3.77-3.42-6.06-7.39-6.06-5.31,0-8.8,4.07-8.8,11.21,0,7.34,3.54,11.21,8.75,11.21,3.87,0,6.75-2.11,7.44-5.78l7.34,0c-.79,6.32-6.1,12.17-14.9,12.17-9.18,0-16-6.44-16-17.63s6.92-17.62,16-17.62c7.94,0,13.94,4.56,14.9,12.48H216.3Z"/><path class="cls-1" d="M227.54,928.74h28v5.8H245.27v28.29h-7.16V934.54H227.55v-5.8Z"/><polygon class="cls-1" points="300.84 801.05 353.21 843.65 405.5 801.05 405.5 913.4 300.84 913.4 300.84 801.05"/><path class="cls-1" d="M309.36,928.74l9.37,22.84h.39l9.37-22.84h9.17v34.09H330.5v-22.5h-.28l-8.88,22.16h-4.5L308,940.33h-.34v22.16H300.5V928.74Z"/><path class="cls-1" d="M366.3,940.32c-.56-3.77-3.42-6.06-7.39-6.06-5.31,0-8.8,4.07-8.8,11.21,0,7.34,3.54,11.21,8.75,11.21,3.87,0,6.75-2.11,7.44-5.78l7.34,0c-.79,6.32-6.1,12.17-14.9,12.17-9.18,0-16-6.44-16-17.63s6.92-17.62,16-17.62c7.94,0,13.94,4.56,14.9,12.48H366.3Z"/><path class="cls-1" d="M377.54,928.74h28v5.8H395.27v28.29h-7.16V934.54H377.55v-5.8Z"/><polygon class="cls-1" points="450.84 801.05 503.21 843.65 555.5 801.05 555.5 913.4 450.84 913.4 450.84 801.05"/><path class="cls-1" d="M459.36,928.74l9.37,22.84h.39l9.37-22.84h9.17v34.09H480.5v-22.5h-.28l-8.88,22.16h-4.5L458,940.33h-.34v22.16H450.5V928.74Z"/><path class="cls-1" d="M516.3,940.32c-.56-3.77-3.42-6.06-7.39-6.06-5.31,0-8.8,4.07-8.8,11.21,0,7.34,3.54,11.21,8.75,11.21,3.87,0,6.75-2.11,7.44-5.78l7.34,0c-.79,6.32-6.1,12.17-14.9,12.17-9.18,0-16-6.44-16-17.63s6.92-17.62,16-17.62c7.94,0,13.94,4.56,14.9,12.48H516.3Z"/><path class="cls-1" d="M527.54,928.74h28v5.8H545.27v28.29h-7.16V934.54H527.55v-5.8Z"/><polygon class="cls-1" points="600.84 801.05 653.21 843.65 705.5 801.05 705.5 913.4 600.84 913.4 600.84 801.05"/><path class="cls-1" d="M609.36,928.74l9.37,22.84h.39l9.37-22.84h9.17v34.09H630.5v-22.5h-.28l-8.88,22.16h-4.5L608,940.33h-.34v22.16H600.5V928.74Z"/><path class="cls-1" d="M666.3,940.32c-.56-3.77-3.42-6.06-7.39-6.06-5.31,0-8.8,4.07-8.8,11.21,0,7.34,3.54,11.21,8.75,11.21,3.87,0,6.75-2.11,7.44-5.78l7.34,0c-.79,6.32-6.1,12.17-14.9,12.17-9.18,0-16-6.44-16-17.63s6.92-17.62,16-17.62c7.94,0,13.94,4.56,14.9,12.48H666.3Z"/><path class="cls-1" d="M677.54,928.74h28v5.8H695.27v28.29h-7.16V934.54H677.55v-5.8Z"/><polygon class="cls-1" points="750.84 801.05 803.21 843.65 855.5 801.05 855.5 913.4 750.84 913.4 750.84 801.05"/><path class="cls-1" d="M759.36,928.74l9.37,22.84h.39l9.37-22.84h9.17v34.09H780.5v-22.5h-.28l-8.88,22.16h-4.5L758,940.33h-.34v22.16H750.5V928.74Z"/><path class="cls-1" d="M816.3,940.32c-.56-3.77-3.42-6.06-7.39-6.06-5.31,0-8.8,4.07-8.8,11.21,0,7.34,3.54,11.21,8.75,11.21,3.87,0,6.75-2.11,7.44-5.78l7.34,0c-.79,6.32-6.1,12.17-14.9,12.17-9.18,0-16-6.44-16-17.63s6.92-17.62,16-17.62c7.94,0,13.94,4.56,14.9,12.48H816.3Z"/><path class="cls-1" d="M827.54,928.74h28v5.8H845.27v28.29h-7.16V934.54H827.55v-5.8Z"/><polygon class="cls-1" points="900.84 801.05 953.21 843.65 1005.5 801.05 1005.5 913.4 900.84 913.4 900.84 801.05"/><path class="cls-1" d="M909.36,928.74l9.37,22.84h.39l9.37-22.84h9.17v34.09H930.5v-22.5h-.28l-8.88,22.16h-4.5L908,940.33h-.34v22.16H900.5V928.74Z"/><path class="cls-1" d="M966.3,940.32c-.56-3.77-3.42-6.06-7.39-6.06-5.31,0-8.8,4.07-8.8,11.21,0,7.34,3.54,11.21,8.75,11.21,3.87,0,6.75-2.11,7.44-5.78l7.34,0c-.79,6.32-6.1,12.17-14.9,12.17-9.18,0-16-6.44-16-17.63s6.92-17.62,16-17.62c7.94,0,13.94,4.56,14.9,12.48H966.3Z"/><path class="cls-1" d="M977.54,928.74h28v5.8H995.27v28.29h-7.16V934.54H977.55v-5.8Z"/><polygon class="cls-1" points="1050.84 801.05 1103.21 843.65 1155.5 801.05 1155.5 913.4 1050.84 913.4 1050.84 801.05"/><path class="cls-1" d="M1059.36,928.74l9.37,22.84h.39l9.37-22.84h9.17v34.09h-7.16v-22.5h-.28l-8.88,22.16h-4.5L1058,940.33h-.34v22.16h-7.16V928.74Z"/><path class="cls-1" d="M1116.3,940.32c-.56-3.77-3.42-6.06-7.39-6.06-5.31,0-8.8,4.07-8.8,11.21,0,7.34,3.54,11.21,8.75,11.21,3.87,0,6.75-2.11,7.44-5.78l7.34,0c-.79,6.32-6.1,12.17-14.9,12.17-9.18,0-16-6.44-16-17.63s6.92-17.62,16-17.62c7.94,0,13.94,4.56,14.9,12.48h-7.34Z"/><path class="cls-1" d="M1127.54,928.74h28v5.8h-10.23v28.29h-7.16V934.54h-10.56v-5.8Z"/><polygon class="cls-1" points="1200.84 801.05 1253.21 843.65 1305.5 801.05 1305.5 913.4 1200.84 913.4 1200.84 801.05"/><path class="cls-1" d="M1209.36,928.74l9.37,22.84h.39l9.37-22.84h9.17v34.09h-7.16v-22.5h-.28l-8.88,22.16h-4.5L1208,940.33h-.34v22.16h-7.16V928.74Z"/><path class="cls-1" d="M1266.3,940.32c-.56-3.77-3.42-6.06-7.39-6.06-5.31,0-8.8,4.07-8.8,11.21,0,7.34,3.54,11.21,8.75,11.21,3.87,0,6.75-2.11,7.44-5.78l7.34,0c-.79,6.32-6.1,12.17-14.9,12.17-9.18,0-16-6.44-16-17.63s6.92-17.62,16-17.62c7.94,0,13.94,4.56,14.9,12.48h-7.34Z"/><path class="cls-1" d="M1277.54,928.74h28v5.8h-10.23v28.29h-7.16V934.54h-10.56v-5.8Z"/><polygon class="cls-1" points="1350.84 801.05 1403.21 843.65 1455.5 801.05 1455.5 913.4 1350.84 913.4 1350.84 801.05"/><path class="cls-1" d="M1359.36,928.74l9.37,22.84h.39l9.37-22.84h9.17v34.09h-7.16v-22.5h-.28l-8.88,22.16h-4.5L1358,940.33h-.34v22.16h-7.16V928.74Z"/><path class="cls-1" d="M1416.3,940.32c-.56-3.77-3.42-6.06-7.39-6.06-5.31,0-8.8,4.07-8.8,11.21,0,7.34,3.54,11.21,8.75,11.21,3.87,0,6.75-2.11,7.44-5.78l7.34,0c-.79,6.32-6.1,12.17-14.9,12.17-9.18,0-16-6.44-16-17.63s6.92-17.62,16-17.62c7.94,0,13.94,4.56,14.9,12.48h-7.34Z"/><path class="cls-1" d="M1427.54,928.74h28v5.8h-10.23v28.29h-7.16V934.54h-10.56v-5.8Z"/><polygon class="cls-1" points="1500.84 801.05 1553.21 843.65 1605.5 801.05 1605.5 913.4 1500.84 913.4 1500.84 801.05"/><path class="cls-1" d="M1509.36,928.74l9.37,22.84h.39l9.37-22.84h9.17v34.09h-7.16v-22.5h-.28l-8.88,22.16h-4.5L1508,940.33h-.34v22.16h-7.16V928.74Z"/><path class="cls-1" d="M1566.3,940.32c-.56-3.77-3.42-6.06-7.39-6.06-5.31,0-8.8,4.07-8.8,11.21,0,7.34,3.54,11.21,8.75,11.21,3.87,0,6.75-2.11,7.44-5.78l7.34,0c-.79,6.32-6.1,12.17-14.9,12.17-9.18,0-16-6.44-16-17.63s6.92-17.62,16-17.62c7.94,0,13.94,4.56,14.9,12.48h-7.34Z"/><path class="cls-1" d="M1577.54,928.74h28v5.8h-10.23v28.29h-7.16V934.54h-10.56v-5.8Z"/><polygon class="cls-1" points="1650.84 801.05 1703.21 843.65 1755.5 801.05 1755.5 913.4 1650.84 913.4 1650.84 801.05"/><path class="cls-1" d="M1659.36,928.74l9.37,22.84h.39l9.37-22.84h9.17v34.09h-7.16v-22.5h-.28l-8.88,22.16h-4.5L1658,940.33h-.34v22.16h-7.16V928.74Z"/><path class="cls-1" d="M1716.3,940.32c-.56-3.77-3.42-6.06-7.39-6.06-5.31,0-8.8,4.07-8.8,11.21,0,7.34,3.54,11.21,8.75,11.21,3.87,0,6.75-2.11,7.44-5.78l7.34,0c-.79,6.32-6.1,12.17-14.9,12.17-9.18,0-16-6.44-16-17.63s6.92-17.62,16-17.62c7.94,0,13.94,4.56,14.9,12.48h-7.34Z"/><path class="cls-1" d="M1727.54,928.74h28v5.8h-10.23v28.29h-7.16V934.54h-10.56v-5.8Z"/><polygon class="cls-1" points="1800.84 801.05 1853.21 843.65 1905.5 801.05 1905.5 913.4 1800.84 913.4 1800.84 801.05"/><path class="cls-1" d="M1809.36,928.74l9.37,22.84h.39l9.37-22.84h9.17v34.09h-7.16v-22.5h-.28l-8.88,22.16h-4.5L1808,940.33h-.34v22.16h-7.16V928.74Z"/><path class="cls-1" d="M1866.3,940.32c-.56-3.77-3.42-6.06-7.39-6.06-5.31,0-8.8,4.07-8.8,11.21,0,7.34,3.54,11.21,8.75,11.21,3.87,0,6.75-2.11,7.44-5.78l7.34,0c-.79,6.32-6.1,12.17-14.9,12.17-9.18,0-16-6.44-16-17.63s6.92-17.62,16-17.62c7.94,0,13.94,4.56,14.9,12.48h-7.34Z"/><path class="cls-1" d="M1877.54,928.74h28v5.8h-10.23v28.29h-7.16V934.54h-10.56v-5.8Z"/><polygon class="cls-1" points="1950.84 801.05 2003.21 843.65 2055.5 801.05 2055.5 913.4 1950.84 913.4 1950.84 801.05"/><path class="cls-1" d="M1959.36,928.74l9.37,22.84h.39l9.37-22.84h9.17v34.09h-7.16v-22.5h-.28l-8.88,22.16h-4.5L1958,940.33h-.34v22.16h-7.16V928.74Z"/><path class="cls-1" d="M2016.3,940.32c-.56-3.77-3.42-6.06-7.39-6.06-5.31,0-8.8,4.07-8.8,11.21,0,7.34,3.54,11.21,8.75,11.21,3.87,0,6.75-2.11,7.44-5.78l7.34,0c-.79,6.32-6.1,12.17-14.9,12.17-9.18,0-16-6.44-16-17.63s6.92-17.62,16-17.62c7.94,0,13.94,4.56,14.9,12.48h-7.34Z"/><path class="cls-1" d="M2027.54,928.74h28v5.8h-10.23v28.29h-7.16V934.54h-10.56v-5.8Z"/><polygon class="cls-1" points="2100.84 801.05 2153.21 843.65 2205.5 801.05 2205.5 913.4 2100.84 913.4 2100.84 801.05"/><path class="cls-1" d="M2109.36,928.74l9.37,22.84h.39l9.37-22.84h9.17v34.09h-7.16v-22.5h-.28l-8.88,22.16h-4.5L2108,940.33h-.34v22.16h-7.16V928.74Z"/><path class="cls-1" d="M2166.3,940.32c-.56-3.77-3.42-6.06-7.39-6.06-5.31,0-8.8,4.07-8.8,11.21,0,7.34,3.54,11.21,8.75,11.21,3.87,0,6.75-2.11,7.44-5.78l7.34,0c-.79,6.32-6.1,12.17-14.9,12.17-9.18,0-16-6.44-16-17.63s6.92-17.62,16-17.62c7.94,0,13.94,4.56,14.9,12.48h-7.34Z"/><path class="cls-1" d="M2177.54,928.74h28v5.8h-10.23v28.29h-7.16V934.54h-10.56v-5.8Z"/><polygon class="cls-1" points="75.84 1001.05 128.21 1043.65 180.5 1001.05 180.5 1113.4 75.84 1113.4 75.84 1001.05"/><path class="cls-1" d="M84.36,1128.74l9.37,22.84h.39l9.37-22.84h9.17v34.09H105.5v-22.5h-.28l-8.88,22.16h-4.5L83,1140.33h-.34v22.16H75.5v-33.75Z"/><path class="cls-1" d="M141.3,1140.32c-.56-3.77-3.42-6.06-7.39-6.06-5.31,0-8.8,4.07-8.8,11.21,0,7.34,3.54,11.21,8.75,11.21,3.87,0,6.75-2.11,7.44-5.78l7.34,0c-.79,6.32-6.1,12.17-14.9,12.17-9.18,0-16-6.44-16-17.63s6.92-17.62,16-17.62c7.94,0,13.94,4.56,14.9,12.48H141.3Z"/><path class="cls-1" d="M152.54,1128.74h28v5.8H170.27v28.29h-7.16v-28.29H152.55v-5.8Z"/><polygon class="cls-1" points="225.84 1001.05 278.21 1043.65 330.5 1001.05 330.5 1113.4 225.84 1113.4 225.84 1001.05"/><path class="cls-1" d="M234.36,1128.74l9.37,22.84h.39l9.37-22.84h9.17v34.09H255.5v-22.5h-.28l-8.88,22.16h-4.5L233,1140.33h-.34v22.16H225.5v-33.75Z"/><path class="cls-1" d="M291.3,1140.32c-.56-3.77-3.42-6.06-7.39-6.06-5.31,0-8.8,4.07-8.8,11.21,0,7.34,3.54,11.21,8.75,11.21,3.87,0,6.75-2.11,7.44-5.78l7.34,0c-.79,6.32-6.1,12.17-14.9,12.17-9.18,0-16-6.44-16-17.63s6.92-17.62,16-17.62c7.94,0,13.94,4.56,14.9,12.48H291.3Z"/><path class="cls-1" d="M302.54,1128.74h28v5.8H320.27v28.29h-7.16v-28.29H302.55v-5.8Z"/><polygon class="cls-1" points="375.84 1001.05 428.21 1043.65 480.5 1001.05 480.5 1113.4 375.84 1113.4 375.84 1001.05"/><path class="cls-1" d="M384.36,1128.74l9.37,22.84h.39l9.37-22.84h9.17v34.09H405.5v-22.5h-.28l-8.88,22.16h-4.5L383,1140.33h-.34v22.16H375.5v-33.75Z"/><path class="cls-1" d="M441.3,1140.32c-.56-3.77-3.42-6.06-7.39-6.06-5.31,0-8.8,4.07-8.8,11.21,0,7.34,3.54,11.21,8.75,11.21,3.87,0,6.75-2.11,7.44-5.78l7.34,0c-.79,6.32-6.1,12.17-14.9,12.17-9.18,0-16-6.44-16-17.63s6.92-17.62,16-17.62c7.94,0,13.94,4.56,14.9,12.48H441.3Z"/><path class="cls-1" d="M452.54,1128.74h28v5.8H470.27v28.29h-7.16v-28.29H452.55v-5.8Z"/><polygon class="cls-1" points="525.84 1001.05 578.21 1043.65 630.5 1001.05 630.5 1113.4 525.84 1113.4 525.84 1001.05"/><path class="cls-1" d="M534.36,1128.74l9.37,22.84h.39l9.37-22.84h9.17v34.09H555.5v-22.5h-.28l-8.88,22.16h-4.5L533,1140.33h-.34v22.16H525.5v-33.75Z"/><path class="cls-1" d="M591.3,1140.32c-.56-3.77-3.42-6.06-7.39-6.06-5.31,0-8.8,4.07-8.8,11.21,0,7.34,3.54,11.21,8.75,11.21,3.87,0,6.75-2.11,7.44-5.78l7.34,0c-.79,6.32-6.1,12.17-14.9,12.17-9.18,0-16-6.44-16-17.63s6.92-17.62,16-17.62c7.94,0,13.94,4.56,14.9,12.48H591.3Z"/><path class="cls-1" d="M602.54,1128.74h28v5.8H620.27v28.29h-7.16v-28.29H602.55v-5.8Z"/><polygon class="cls-1" points="675.84 1001.05 728.21 1043.65 780.5 1001.05 780.5 1113.4 675.84 1113.4 675.84 1001.05"/><path class="cls-1" d="M684.36,1128.74l9.37,22.84h.39l9.37-22.84h9.17v34.09H705.5v-22.5h-.28l-8.88,22.16h-4.5L683,1140.33h-.34v22.16H675.5v-33.75Z"/><path class="cls-1" d="M741.3,1140.32c-.56-3.77-3.42-6.06-7.39-6.06-5.31,0-8.8,4.07-8.8,11.21,0,7.34,3.54,11.21,8.75,11.21,3.87,0,6.75-2.11,7.44-5.78l7.34,0c-.79,6.32-6.1,12.17-14.9,12.17-9.18,0-16-6.44-16-17.63s6.92-17.62,16-17.62c7.94,0,13.94,4.56,14.9,12.48H741.3Z"/><path class="cls-1" d="M752.54,1128.74h28v5.8H770.27v28.29h-7.16v-28.29H752.55v-5.8Z"/><polygon class="cls-1" points="825.84 1001.05 878.21 1043.65 930.5 1001.05 930.5 1113.4 825.84 1113.4 825.84 1001.05"/><path class="cls-1" d="M834.36,1128.74l9.37,22.84h.39l9.37-22.84h9.17v34.09H855.5v-22.5h-.28l-8.88,22.16h-4.5L833,1140.33h-.34v22.16H825.5v-33.75Z"/><path class="cls-1" d="M891.3,1140.32c-.56-3.77-3.42-6.06-7.39-6.06-5.31,0-8.8,4.07-8.8,11.21,0,7.34,3.54,11.21,8.75,11.21,3.87,0,6.75-2.11,7.44-5.78l7.34,0c-.79,6.32-6.1,12.17-14.9,12.17-9.18,0-16-6.44-16-17.63s6.92-17.62,16-17.62c7.94,0,13.94,4.56,14.9,12.48H891.3Z"/><path class="cls-1" d="M902.54,1128.74h28v5.8H920.27v28.29h-7.16v-28.29H902.55v-5.8Z"/><polygon class="cls-1" points="975.84 1001.05 1028.21 1043.65 1080.5 1001.05 1080.5 1113.4 975.84 1113.4 975.84 1001.05"/><path class="cls-1" d="M984.36,1128.74l9.37,22.84h.39l9.37-22.84h9.17v34.09h-7.16v-22.5h-.28l-8.88,22.16h-4.5L983,1140.33h-.34v22.16H975.5v-33.75Z"/><path class="cls-1" d="M1041.3,1140.32c-.56-3.77-3.42-6.06-7.39-6.06-5.31,0-8.8,4.07-8.8,11.21,0,7.34,3.54,11.21,8.75,11.21,3.87,0,6.75-2.11,7.44-5.78l7.34,0c-.79,6.32-6.1,12.17-14.9,12.17-9.18,0-16-6.44-16-17.63s6.92-17.62,16-17.62c7.94,0,13.94,4.56,14.9,12.48h-7.34Z"/><path class="cls-1" d="M1052.54,1128.74h28v5.8h-10.23v28.29h-7.16v-28.29h-10.56v-5.8Z"/><polygon class="cls-1" points="1125.84 1001.05 1178.21 1043.65 1230.5 1001.05 1230.5 1113.4 1125.84 1113.4 1125.84 1001.05"/><path class="cls-1" d="M1134.36,1128.74l9.37,22.84h.39l9.37-22.84h9.17v34.09h-7.16v-22.5h-.28l-8.88,22.16h-4.5l-8.84-22.16h-.34v22.16h-7.16v-33.75Z"/><path class="cls-1" d="M1191.3,1140.32c-.56-3.77-3.42-6.06-7.39-6.06-5.31,0-8.8,4.07-8.8,11.21,0,7.34,3.54,11.21,8.75,11.21,3.87,0,6.75-2.11,7.44-5.78l7.34,0c-.79,6.32-6.1,12.17-14.9,12.17-9.18,0-16-6.44-16-17.63s6.92-17.62,16-17.62c7.94,0,13.94,4.56,14.9,12.48h-7.34Z"/><path class="cls-1" d="M1202.54,1128.74h28v5.8h-10.23v28.29h-7.16v-28.29h-10.56v-5.8Z"/><polygon class="cls-1" points="1275.84 1001.05 1328.21 1043.65 1380.5 1001.05 1380.5 1113.4 1275.84 1113.4 1275.84 1001.05"/><path class="cls-1" d="M1284.36,1128.74l9.37,22.84h.39l9.37-22.84h9.17v34.09h-7.16v-22.5h-.28l-8.88,22.16h-4.5l-8.84-22.16h-.34v22.16h-7.16v-33.75Z"/><path class="cls-1" d="M1341.3,1140.32c-.56-3.77-3.42-6.06-7.39-6.06-5.31,0-8.8,4.07-8.8,11.21,0,7.34,3.54,11.21,8.75,11.21,3.87,0,6.75-2.11,7.44-5.78l7.34,0c-.79,6.32-6.1,12.17-14.9,12.17-9.18,0-16-6.44-16-17.63s6.92-17.62,16-17.62c7.94,0,13.94,4.56,14.9,12.48h-7.34Z"/><path class="cls-1" d="M1352.54,1128.74h28v5.8h-10.23v28.29h-7.16v-28.29h-10.56v-5.8Z"/><polygon class="cls-1" points="1425.84 1001.05 1478.21 1043.65 1530.5 1001.05 1530.5 1113.4 1425.84 1113.4 1425.84 1001.05"/><path class="cls-1" d="M1434.36,1128.74l9.37,22.84h.39l9.37-22.84h9.17v34.09h-7.16v-22.5h-.28l-8.88,22.16h-4.5l-8.84-22.16h-.34v22.16h-7.16v-33.75Z"/><path class="cls-1" d="M1491.3,1140.32c-.56-3.77-3.42-6.06-7.39-6.06-5.31,0-8.8,4.07-8.8,11.21,0,7.34,3.54,11.21,8.75,11.21,3.87,0,6.75-2.11,7.44-5.78l7.34,0c-.79,6.32-6.1,12.17-14.9,12.17-9.18,0-16-6.44-16-17.63s6.92-17.62,16-17.62c7.94,0,13.94,4.56,14.9,12.48h-7.34Z"/><path class="cls-1" d="M1502.54,1128.74h28v5.8h-10.23v28.29h-7.16v-28.29h-10.56v-5.8Z"/><polygon class="cls-1" points="1575.84 1001.05 1628.21 1043.65 1680.5 1001.05 1680.5 1113.4 1575.84 1113.4 1575.84 1001.05"/><path class="cls-1" d="M1584.36,1128.74l9.37,22.84h.39l9.37-22.84h9.17v34.09h-7.16v-22.5h-.28l-8.88,22.16h-4.5l-8.84-22.16h-.34v22.16h-7.16v-33.75Z"/><path class="cls-1" d="M1641.3,1140.32c-.56-3.77-3.42-6.06-7.39-6.06-5.31,0-8.8,4.07-8.8,11.21,0,7.34,3.54,11.21,8.75,11.21,3.87,0,6.75-2.11,7.44-5.78l7.34,0c-.79,6.32-6.1,12.17-14.9,12.17-9.18,0-16-6.44-16-17.63s6.92-17.62,16-17.62c7.94,0,13.94,4.56,14.9,12.48h-7.34Z"/><path class="cls-1" d="M1652.54,1128.74h28v5.8h-10.23v28.29h-7.16v-28.29h-10.56v-5.8Z"/><polygon class="cls-1" points="1725.84 1001.05 1778.21 1043.65 1830.5 1001.05 1830.5 1113.4 1725.84 1113.4 1725.84 1001.05"/><path class="cls-1" d="M1734.36,1128.74l9.37,22.84h.39l9.37-22.84h9.17v34.09h-7.16v-22.5h-.28l-8.88,22.16h-4.5l-8.84-22.16h-.34v22.16h-7.16v-33.75Z"/><path class="cls-1" d="M1791.3,1140.32c-.56-3.77-3.42-6.06-7.39-6.06-5.31,0-8.8,4.07-8.8,11.21,0,7.34,3.54,11.21,8.75,11.21,3.87,0,6.75-2.11,7.44-5.78l7.34,0c-.79,6.32-6.1,12.17-14.9,12.17-9.18,0-16-6.44-16-17.63s6.92-17.62,16-17.62c7.94,0,13.94,4.56,14.9,12.48h-7.34Z"/><path class="cls-1" d="M1802.54,1128.74h28v5.8h-10.23v28.29h-7.16v-28.29h-10.56v-5.8Z"/><polygon class="cls-1" points="1875.84 1001.05 1928.21 1043.65 1980.5 1001.05 1980.5 1113.4 1875.84 1113.4 1875.84 1001.05"/><path class="cls-1" d="M1884.36,1128.74l9.37,22.84h.39l9.37-22.84h9.17v34.09h-7.16v-22.5h-.28l-8.88,22.16h-4.5l-8.84-22.16h-.34v22.16h-7.16v-33.75Z"/><path class="cls-1" d="M1941.3,1140.32c-.56-3.77-3.42-6.06-7.39-6.06-5.31,0-8.8,4.07-8.8,11.21,0,7.34,3.54,11.21,8.75,11.21,3.87,0,6.75-2.11,7.44-5.78l7.34,0c-.79,6.32-6.1,12.17-14.9,12.17-9.18,0-16-6.44-16-17.63s6.92-17.62,16-17.62c7.94,0,13.94,4.56,14.9,12.48h-7.34Z"/><path class="cls-1" d="M1952.54,1128.74h28v5.8h-10.23v28.29h-7.16v-28.29h-10.56v-5.8Z"/><polygon class="cls-1" points="2025.84 1001.05 2078.21 1043.65 2130.5 1001.05 2130.5 1113.4 2025.84 1113.4 2025.84 1001.05"/><path class="cls-1" d="M2034.36,1128.74l9.37,22.84h.39l9.37-22.84h9.17v34.09h-7.16v-22.5h-.28l-8.88,22.16h-4.5l-8.84-22.16h-.34v22.16h-7.16v-33.75Z"/><path class="cls-1" d="M2091.3,1140.32c-.56-3.77-3.42-6.06-7.39-6.06-5.31,0-8.8,4.07-8.8,11.21,0,7.34,3.54,11.21,8.75,11.21,3.87,0,6.75-2.11,7.44-5.78l7.34,0c-.79,6.32-6.1,12.17-14.9,12.17-9.18,0-16-6.44-16-17.63s6.92-17.62,16-17.62c7.94,0,13.94,4.56,14.9,12.48h-7.34Z"/><path class="cls-1" d="M2102.54,1128.74h28v5.8h-10.23v28.29h-7.16v-28.29h-10.56v-5.8Z"/><polygon class="cls-1" points="2175.84 1001.05 2228.21 1043.65 2280.5 1001.05 2280.5 1113.4 2175.84 1113.4 2175.84 1001.05"/><path class="cls-1" d="M2184.36,1128.74l9.37,22.84h.39l9.37-22.84h9.17v34.09h-7.16v-22.5h-.28l-8.88,22.16h-4.5l-8.84-22.16h-.34v22.16h-7.16v-33.75Z"/><path class="cls-1" d="M2241.3,1140.32c-.56-3.77-3.42-6.06-7.39-6.06-5.31,0-8.8,4.07-8.8,11.21,0,7.34,3.54,11.21,8.75,11.21,3.87,0,6.75-2.11,7.44-5.78l7.34,0c-.79,6.32-6.1,12.17-14.9,12.17-9.18,0-16-6.44-16-17.63s6.92-17.62,16-17.62c7.94,0,13.94,4.56,14.9,12.48h-7.34Z"/><path class="cls-1" d="M2252.54,1128.74h28v5.8h-10.23v28.29h-7.16v-28.29h-10.56v-5.8Z"/></g></g></svg>