<svg id="Layer_1" data-name="Layer 1" xmlns="http://www.w3.org/2000/svg" viewBox="0 0 1920 1080"><defs><style>.cls-1{fill:#0a0400;stroke:#43c6f3;stroke-miterlimit:10;}</style></defs><title>BG</title><rect width="1920" height="1080"/><path class="cls-1" d="M-44.83,12.44q0,19.7,0,39.4c0,.37.21.89-.19,1.07-.21.09-.63-.24-.94-.41-2.75-1.61-5.53-3.19-8.25-4.85-6.44-3.95-9.86-9.74-9.89-17.29q-.12-30.45,0-60.92c0-7.5,3.33-13.42,9.81-17.21Q-27.82-63.22-1.2-78.41a19.26,19.26,0,0,1,20.19,0Q45.45-63.21,71.81-47.88a19.15,19.15,0,0,1,10,17.42q.1,30.36,0,60.71c0,7.51-3.4,13.28-9.79,17.23-2.78,1.72-5.62,3.32-8.44,5-1.07.63-1.08.63-1.08-.64V-25.58c0-.54,0-1.08,0-1.62A4.24,4.24,0,0,0,56-31c-5.46,3-10.88,6.12-16.31,9.18q-15,8.46-30,16.94a1.64,1.64,0,0,1-1.85,0Q-14.79-17.71-37.52-30.51a6,6,0,0,0-3-1.06,4.22,4.22,0,0,0-4.28,4c0,.57,0,1.14,0,1.72Z"/><path class="cls-1" d="M-16.07,55.46V42.12c0-1.13,0-1.13,1-.58q11.45,6.3,22.87,12.63a1.84,1.84,0,0,0,2.06,0c7.61-4.24,15.24-8.43,22.87-12.64,1-.55,1-.55,1,.56,0,8.86,0,17.73,0,26.59a1.51,1.51,0,0,1-.89,1.51c-4.61,2.62-9.19,5.32-13.81,7.92a19.6,19.6,0,0,1-20.28.11c-4.71-2.61-9.33-5.36-14-8a1.52,1.52,0,0,1-.89-1.52C-16,64.29-16.07,59.87-16.07,55.46Z"/><path class="cls-1" d="M129.17,12.44q0,19.7,0,39.4c0,.37.21.89-.19,1.07-.21.09-.63-.24-.94-.41-2.75-1.61-5.53-3.19-8.25-4.85-6.44-3.95-9.86-9.74-9.89-17.29q-.12-30.45,0-60.92c0-7.5,3.33-13.42,9.81-17.21q26.47-15.45,53.1-30.64a19.26,19.26,0,0,1,20.19,0q26.46,15.17,52.82,30.49a19.15,19.15,0,0,1,10,17.42q.1,30.36,0,60.71c0,7.51-3.4,13.28-9.79,17.23-2.78,1.72-5.62,3.32-8.44,5-1.07.63-1.08.63-1.08-.64V-25.58c0-.54,0-1.08,0-1.62A4.24,4.24,0,0,0,230-31c-5.46,3-10.88,6.12-16.31,9.18q-15,8.46-30,16.94a1.64,1.64,0,0,1-1.85,0q-22.69-12.85-45.42-25.65a6,6,0,0,0-3-1.06,4.22,4.22,0,0,0-4.28,4c0,.57,0,1.14,0,1.72Z"/><path class="cls-1" d="M157.93,55.46V42.12c0-1.13,0-1.13,1-.58q11.44,6.3,22.87,12.63a1.84,1.84,0,0,0,2.06,0c7.61-4.24,15.24-8.43,22.87-12.64,1-.55,1-.55,1,.56,0,8.86,0,17.73,0,26.59a1.51,1.51,0,0,1-.89,1.51c-4.61,2.62-9.19,5.32-13.81,7.92a19.6,19.6,0,0,1-20.28.11c-4.71-2.61-9.33-5.36-14-8a1.52,1.52,0,0,1-.89-1.52C158,64.29,157.93,59.87,157.93,55.46Z"/><path class="cls-1" d="M303.17,12.44q0,19.7,0,39.4c0,.37.21.89-.19,1.07-.21.09-.63-.24-.94-.41-2.75-1.61-5.53-3.19-8.25-4.85-6.44-3.95-9.86-9.74-9.89-17.29q-.12-30.45,0-60.92c0-7.5,3.33-13.42,9.81-17.21q26.48-15.45,53.1-30.64a19.26,19.26,0,0,1,20.19,0q26.46,15.17,52.82,30.49a19.15,19.15,0,0,1,10,17.42q.1,30.36,0,60.71c0,7.51-3.4,13.28-9.79,17.23-2.78,1.72-5.62,3.32-8.44,5-1.07.63-1.08.63-1.08-.64V-25.58c0-.54,0-1.08,0-1.62A4.24,4.24,0,0,0,404-31c-5.46,3-10.88,6.12-16.31,9.18q-15,8.46-30,16.94a1.64,1.64,0,0,1-1.85,0q-22.69-12.85-45.42-25.65a6,6,0,0,0-3-1.06,4.22,4.22,0,0,0-4.28,4c0,.57,0,1.14,0,1.72Z"/><path class="cls-1" d="M331.93,55.46V42.12c0-1.13,0-1.13,1-.58q11.44,6.3,22.87,12.63a1.84,1.84,0,0,0,2.06,0c7.61-4.24,15.24-8.43,22.87-12.64,1-.55,1-.55,1,.56,0,8.86,0,17.73,0,26.59a1.51,1.51,0,0,1-.89,1.51c-4.61,2.62-9.19,5.32-13.81,7.92a19.6,19.6,0,0,1-20.28.11c-4.71-2.61-9.33-5.36-14-8a1.52,1.52,0,0,1-.89-1.52C332,64.29,331.93,59.87,331.93,55.46Z"/><path class="cls-1" d="M477.17,12.44q0,19.7,0,39.4c0,.37.21.89-.19,1.07-.21.09-.63-.24-.94-.41-2.75-1.61-5.53-3.19-8.25-4.85-6.44-3.95-9.86-9.74-9.89-17.29q-.12-30.45,0-60.92c0-7.5,3.33-13.42,9.81-17.21q26.48-15.45,53.1-30.64a19.26,19.26,0,0,1,20.19,0q26.46,15.17,52.82,30.49a19.15,19.15,0,0,1,10,17.42q.11,30.36,0,60.71c0,7.51-3.4,13.28-9.79,17.23-2.78,1.72-5.62,3.32-8.44,5-1.07.63-1.08.63-1.08-.64V-25.58c0-.54,0-1.08,0-1.62A4.24,4.24,0,0,0,578-31c-5.46,3-10.88,6.12-16.31,9.18q-15,8.46-30,16.94a1.64,1.64,0,0,1-1.85,0q-22.69-12.85-45.42-25.65a6,6,0,0,0-3-1.06,4.22,4.22,0,0,0-4.28,4c0,.57,0,1.14,0,1.72Z"/><path class="cls-1" d="M505.93,55.46V42.12c0-1.13,0-1.13,1-.58q11.45,6.3,22.87,12.63a1.84,1.84,0,0,0,2.06,0c7.61-4.24,15.24-8.43,22.87-12.64,1-.55,1-.55,1,.56,0,8.86,0,17.73,0,26.59a1.51,1.51,0,0,1-.89,1.51c-4.61,2.62-9.19,5.32-13.81,7.92a19.6,19.6,0,0,1-20.28.11c-4.71-2.61-9.33-5.36-14-8a1.52,1.52,0,0,1-.89-1.52C506,64.29,505.93,59.87,505.93,55.46Z"/><path class="cls-1" d="M651.17,12.44q0,19.7,0,39.4c0,.37.21.89-.19,1.07-.21.09-.63-.24-.94-.41-2.75-1.61-5.53-3.19-8.25-4.85-6.44-3.95-9.86-9.74-9.89-17.29q-.12-30.45,0-60.92c0-7.5,3.33-13.42,9.81-17.21q26.47-15.45,53.1-30.64a19.26,19.26,0,0,1,20.19,0q26.46,15.17,52.82,30.49a19.15,19.15,0,0,1,10,17.42q.11,30.36,0,60.71c0,7.51-3.4,13.28-9.79,17.23-2.78,1.72-5.62,3.32-8.44,5-1.07.63-1.08.63-1.08-.64V-25.58c0-.54,0-1.08,0-1.62A4.24,4.24,0,0,0,752-31c-5.46,3-10.88,6.12-16.31,9.18q-15,8.46-30,16.94a1.64,1.64,0,0,1-1.85,0q-22.7-12.85-45.42-25.65a6,6,0,0,0-3-1.06,4.22,4.22,0,0,0-4.28,4c0,.57,0,1.14,0,1.72Z"/><path class="cls-1" d="M679.93,55.46V42.12c0-1.13,0-1.13,1-.58q11.44,6.3,22.87,12.63a1.84,1.84,0,0,0,2.06,0c7.61-4.24,15.24-8.43,22.87-12.64,1-.55,1-.55,1,.56,0,8.86,0,17.73,0,26.59a1.51,1.51,0,0,1-.89,1.51c-4.61,2.62-9.19,5.32-13.81,7.92a19.6,19.6,0,0,1-20.28.11c-4.71-2.61-9.33-5.36-14-8a1.52,1.52,0,0,1-.89-1.52C680,64.29,679.93,59.87,679.93,55.46Z"/><path class="cls-1" d="M825.17,12.44q0,19.7,0,39.4c0,.37.21.89-.19,1.07-.21.09-.63-.24-.94-.41-2.75-1.61-5.53-3.19-8.25-4.85-6.44-3.95-9.86-9.74-9.89-17.29q-.12-30.45,0-60.92c0-7.5,3.33-13.42,9.81-17.21q26.47-15.45,53.1-30.64a19.26,19.26,0,0,1,20.19,0q26.46,15.17,52.82,30.49a19.15,19.15,0,0,1,10,17.42q.11,30.36,0,60.71c0,7.51-3.4,13.28-9.79,17.23-2.78,1.72-5.62,3.32-8.44,5-1.07.63-1.08.63-1.08-.64V-25.58c0-.54,0-1.08,0-1.62A4.24,4.24,0,0,0,926-31c-5.46,3-10.88,6.12-16.31,9.18q-15,8.46-30,16.94a1.64,1.64,0,0,1-1.85,0q-22.7-12.85-45.42-25.65a6,6,0,0,0-3-1.06,4.22,4.22,0,0,0-4.28,4c0,.57,0,1.14,0,1.72Z"/><path class="cls-1" d="M853.93,55.46V42.12c0-1.13,0-1.13,1-.58q11.44,6.3,22.87,12.63a1.84,1.84,0,0,0,2.06,0c7.61-4.24,15.24-8.43,22.87-12.64,1-.55,1-.55,1,.56,0,8.86,0,17.73,0,26.59a1.51,1.51,0,0,1-.89,1.51c-4.61,2.62-9.19,5.32-13.81,7.92a19.6,19.6,0,0,1-20.28.11c-4.71-2.61-9.33-5.36-14-8a1.52,1.52,0,0,1-.89-1.52C854,64.29,853.93,59.87,853.93,55.46Z"/><path class="cls-1" d="M999.17,12.44q0,19.7,0,39.4c0,.37.21.89-.19,1.07-.21.09-.63-.24-.94-.41-2.75-1.61-5.53-3.19-8.25-4.85-6.44-3.95-9.86-9.74-9.89-17.29q-.12-30.45,0-60.92c0-7.5,3.33-13.42,9.81-17.21q26.47-15.45,53.1-30.64a19.26,19.26,0,0,1,20.19,0q26.46,15.17,52.82,30.49a19.15,19.15,0,0,1,10,17.42q.11,30.36,0,60.71c0,7.51-3.4,13.28-9.79,17.23-2.78,1.72-5.62,3.32-8.44,5-1.07.63-1.08.63-1.08-.64V-25.58c0-.54,0-1.08,0-1.62A4.24,4.24,0,0,0,1100-31c-5.46,3-10.88,6.12-16.31,9.18q-15,8.46-30,16.94a1.64,1.64,0,0,1-1.85,0q-22.7-12.85-45.42-25.65a6,6,0,0,0-3-1.06,4.22,4.22,0,0,0-4.28,4c0,.57,0,1.14,0,1.72Z"/><path class="cls-1" d="M1027.93,55.46V42.12c0-1.13,0-1.13,1-.58q11.44,6.3,22.87,12.63a1.84,1.84,0,0,0,2.06,0c7.61-4.24,15.24-8.43,22.87-12.64,1-.55,1-.55,1,.56,0,8.86,0,17.73,0,26.59a1.51,1.51,0,0,1-.89,1.51c-4.61,2.62-9.19,5.32-13.81,7.92a19.6,19.6,0,0,1-20.28.11c-4.71-2.61-9.33-5.36-14-8a1.52,1.52,0,0,1-.89-1.52C1028,64.29,1027.93,59.87,1027.93,55.46Z"/><path class="cls-1" d="M1173.17,12.44q0,19.7,0,39.4c0,.37.21.89-.19,1.07-.21.09-.63-.24-.94-.41-2.75-1.61-5.53-3.19-8.25-4.85-6.44-3.95-9.86-9.74-9.89-17.29q-.12-30.45,0-60.92c0-7.5,3.33-13.42,9.81-17.21q26.47-15.45,53.1-30.64a19.26,19.26,0,0,1,20.19,0q26.46,15.17,52.82,30.49a19.15,19.15,0,0,1,10,17.42q.11,30.36,0,60.71c0,7.51-3.4,13.28-9.79,17.23-2.78,1.72-5.62,3.32-8.44,5-1.07.63-1.08.63-1.08-.64V-25.58c0-.54,0-1.08,0-1.62A4.24,4.24,0,0,0,1274-31c-5.46,3-10.88,6.12-16.31,9.18q-15,8.46-30,16.94a1.64,1.64,0,0,1-1.85,0q-22.7-12.85-45.42-25.65a6,6,0,0,0-3-1.06,4.22,4.22,0,0,0-4.28,4c0,.57,0,1.14,0,1.72Z"/><path class="cls-1" d="M1201.93,55.46V42.12c0-1.13,0-1.13,1-.58q11.44,6.3,22.87,12.63a1.84,1.84,0,0,0,2.06,0c7.61-4.24,15.24-8.43,22.87-12.64,1-.55,1-.55,1,.56,0,8.86,0,17.73,0,26.59a1.51,1.51,0,0,1-.89,1.51c-4.61,2.62-9.19,5.32-13.81,7.92a19.6,19.6,0,0,1-20.28.11c-4.71-2.61-9.33-5.36-14-8a1.52,1.52,0,0,1-.89-1.52C1202,64.29,1201.93,59.87,1201.93,55.46Z"/><path class="cls-1" d="M1347.17,12.44q0,19.7,0,39.4c0,.37.21.89-.19,1.07-.21.09-.63-.24-.94-.41-2.75-1.61-5.53-3.19-8.25-4.85-6.44-3.95-9.86-9.74-9.89-17.29q-.12-30.45,0-60.92c0-7.5,3.33-13.42,9.81-17.21q26.47-15.45,53.1-30.64a19.26,19.26,0,0,1,20.19,0q26.46,15.17,52.82,30.49a19.15,19.15,0,0,1,10,17.42q.11,30.36,0,60.71c0,7.51-3.4,13.28-9.79,17.23-2.78,1.72-5.62,3.32-8.44,5-1.07.63-1.08.63-1.08-.64V-25.58c0-.54,0-1.08,0-1.62A4.24,4.24,0,0,0,1448-31c-5.46,3-10.88,6.12-16.31,9.18q-15,8.46-30,16.94a1.64,1.64,0,0,1-1.85,0q-22.7-12.85-45.42-25.65a6,6,0,0,0-3-1.06,4.22,4.22,0,0,0-4.28,4c0,.57,0,1.14,0,1.72Z"/><path class="cls-1" d="M1375.93,55.46V42.12c0-1.13,0-1.13,1-.58q11.44,6.3,22.87,12.63a1.84,1.84,0,0,0,2.06,0c7.61-4.24,15.24-8.43,22.87-12.64,1-.55,1-.55,1,.56,0,8.86,0,17.73,0,26.59a1.51,1.51,0,0,1-.89,1.51c-4.61,2.62-9.19,5.32-13.81,7.92a19.6,19.6,0,0,1-20.28.11c-4.71-2.61-9.33-5.36-14-8a1.52,1.52,0,0,1-.89-1.52C1376,64.29,1375.93,59.87,1375.93,55.46Z"/><path class="cls-1" d="M1521.17,12.44q0,19.7,0,39.4c0,.37.21.89-.19,1.07-.21.09-.63-.24-.94-.41-2.75-1.61-5.53-3.19-8.25-4.85-6.44-3.95-9.86-9.74-9.89-17.29q-.12-30.45,0-60.92c0-7.5,3.33-13.42,9.81-17.21q26.47-15.45,53.1-30.64a19.26,19.26,0,0,1,20.19,0q26.46,15.17,52.82,30.49a19.15,19.15,0,0,1,10,17.42q.11,30.36,0,60.71c0,7.51-3.4,13.28-9.79,17.23-2.78,1.72-5.62,3.32-8.44,5-1.07.63-1.08.63-1.08-.64V-25.58c0-.54,0-1.08,0-1.62A4.24,4.24,0,0,0,1622-31c-5.46,3-10.88,6.12-16.31,9.18q-15,8.46-30,16.94a1.64,1.64,0,0,1-1.85,0q-22.7-12.85-45.42-25.65a6,6,0,0,0-3-1.06,4.22,4.22,0,0,0-4.28,4c0,.57,0,1.14,0,1.72Z"/><path class="cls-1" d="M1549.93,55.46V42.12c0-1.13,0-1.13,1-.58q11.44,6.3,22.87,12.63a1.84,1.84,0,0,0,2.06,0c7.61-4.24,15.24-8.43,22.87-12.64,1-.55,1-.55,1,.56,0,8.86,0,17.73,0,26.59a1.51,1.51,0,0,1-.89,1.51c-4.61,2.62-9.19,5.32-13.81,7.92a19.6,19.6,0,0,1-20.28.11c-4.71-2.61-9.33-5.36-14-8a1.52,1.52,0,0,1-.89-1.52C1550,64.29,1549.93,59.87,1549.93,55.46Z"/><path class="cls-1" d="M1695.17,12.44q0,19.7,0,39.4c0,.37.21.89-.19,1.07-.21.09-.63-.24-.94-.41-2.75-1.61-5.53-3.19-8.25-4.85-6.44-3.95-9.86-9.74-9.89-17.29q-.12-30.45,0-60.92c0-7.5,3.33-13.42,9.81-17.21q26.47-15.45,53.1-30.64a19.26,19.26,0,0,1,20.19,0q26.46,15.17,52.82,30.49a19.15,19.15,0,0,1,10,17.42q.11,30.36,0,60.71c0,7.51-3.4,13.28-9.79,17.23-2.78,1.72-5.62,3.32-8.44,5-1.07.63-1.08.63-1.08-.64V-25.58c0-.54,0-1.08,0-1.62A4.24,4.24,0,0,0,1796-31c-5.46,3-10.88,6.12-16.31,9.18q-15,8.46-30,16.94a1.64,1.64,0,0,1-1.85,0q-22.7-12.85-45.42-25.65a6,6,0,0,0-3-1.06,4.22,4.22,0,0,0-4.28,4c0,.57,0,1.14,0,1.72Z"/><path class="cls-1" d="M1723.93,55.46V42.12c0-1.13,0-1.13,1-.58q11.44,6.3,22.87,12.63a1.84,1.84,0,0,0,2.06,0c7.61-4.24,15.24-8.43,22.87-12.64,1-.55,1-.55,1,.56,0,8.86,0,17.73,0,26.59a1.51,1.51,0,0,1-.89,1.51c-4.61,2.62-9.19,5.32-13.81,7.92a19.6,19.6,0,0,1-20.28.11c-4.71-2.61-9.33-5.36-14-8a1.52,1.52,0,0,1-.89-1.52C1724,64.29,1723.93,59.87,1723.93,55.46Z"/><path class="cls-1" d="M1869.17,12.44q0,19.7,0,39.4c0,.37.21.89-.19,1.07-.21.09-.63-.24-.94-.41-2.75-1.61-5.53-3.19-8.25-4.85-6.44-3.95-9.86-9.74-9.89-17.29q-.12-30.45,0-60.92c0-7.5,3.33-13.42,9.81-17.21q26.47-15.45,53.1-30.64a19.26,19.26,0,0,1,20.19,0q26.46,15.17,52.82,30.49a19.15,19.15,0,0,1,10,17.42q.11,30.36,0,60.71c0,7.51-3.4,13.28-9.79,17.23-2.78,1.72-5.62,3.32-8.44,5-1.07.63-1.08.63-1.08-.64V-25.58c0-.54,0-1.08,0-1.62A4.24,4.24,0,0,0,1970-31c-5.46,3-10.88,6.12-16.31,9.18q-15,8.46-30,16.94a1.64,1.64,0,0,1-1.85,0q-22.7-12.85-45.42-25.65a6,6,0,0,0-3-1.06,4.22,4.22,0,0,0-4.28,4c0,.57,0,1.14,0,1.72Z"/><path class="cls-1" d="M1897.93,55.46V42.12c0-1.13,0-1.13,1-.58q11.44,6.3,22.87,12.63a1.84,1.84,0,0,0,2.06,0c7.61-4.24,15.24-8.43,22.87-12.64,1-.55,1-.55,1,.56,0,8.86,0,17.73,0,26.59a1.51,1.51,0,0,1-.89,1.51c-4.61,2.62-9.19,5.32-13.81,7.92a19.6,19.6,0,0,1-20.28.11c-4.71-2.61-9.33-5.36-14-8a1.52,1.52,0,0,1-.89-1.52C1898,64.29,1897.93,59.87,1897.93,55.46Z"/><path class="cls-1" d="M43.17,187.44q0,19.69,0,39.4c0,.37.21.89-.19,1.07-.21.09-.63-.24-.94-.41-2.75-1.61-5.53-3.19-8.25-4.85-6.44-4-9.86-9.74-9.89-17.29q-.12-30.45,0-60.92c0-7.5,3.33-13.42,9.81-17.21q26.47-15.45,53.1-30.64a19.26,19.26,0,0,1,20.19,0q26.46,15.16,52.82,30.49a19.15,19.15,0,0,1,10,17.42q.1,30.36,0,60.71c0,7.51-3.4,13.28-9.79,17.23-2.78,1.72-5.62,3.32-8.44,5-1.07.63-1.08.63-1.08-.64V149.42c0-.54,0-1.08,0-1.62A4.24,4.24,0,0,0,144,144c-5.46,3-10.88,6.12-16.31,9.18q-15,8.46-30,16.94a1.64,1.64,0,0,1-1.85,0q-22.7-12.85-45.42-25.65a6,6,0,0,0-3-1.06,4.22,4.22,0,0,0-4.28,4c0,.57,0,1.14,0,1.72Z"/><path class="cls-1" d="M71.93,230.46V217.12c0-1.13,0-1.13,1-.58q11.44,6.3,22.87,12.63a1.84,1.84,0,0,0,2.06,0c7.61-4.24,15.24-8.43,22.87-12.64,1-.55,1-.55,1,.56,0,8.86,0,17.73,0,26.59a1.51,1.51,0,0,1-.89,1.51c-4.61,2.62-9.19,5.32-13.81,7.92a19.6,19.6,0,0,1-20.28.11c-4.71-2.61-9.33-5.36-14-8a1.52,1.52,0,0,1-.89-1.52C72,239.29,71.93,234.87,71.93,230.46Z"/><path class="cls-1" d="M217.17,187.44q0,19.69,0,39.4c0,.37.21.89-.19,1.07-.21.09-.63-.24-.94-.41-2.75-1.61-5.53-3.19-8.25-4.85-6.44-4-9.86-9.74-9.89-17.29q-.12-30.45,0-60.92c0-7.5,3.33-13.42,9.81-17.21q26.48-15.45,53.1-30.64a19.26,19.26,0,0,1,20.19,0q26.46,15.16,52.82,30.49a19.15,19.15,0,0,1,10,17.42q.1,30.36,0,60.71c0,7.51-3.4,13.28-9.79,17.23-2.78,1.72-5.62,3.32-8.44,5-1.07.63-1.08.63-1.08-.64V149.42c0-.54,0-1.08,0-1.62A4.24,4.24,0,0,0,318,144c-5.46,3-10.88,6.12-16.31,9.18q-15,8.46-30,16.94a1.64,1.64,0,0,1-1.85,0q-22.69-12.85-45.42-25.65a6,6,0,0,0-3-1.06,4.22,4.22,0,0,0-4.28,4c0,.57,0,1.14,0,1.72Z"/><path class="cls-1" d="M245.93,230.46V217.12c0-1.13,0-1.13,1-.58q11.44,6.3,22.87,12.63a1.84,1.84,0,0,0,2.06,0c7.61-4.24,15.24-8.43,22.87-12.64,1-.55,1-.55,1,.56,0,8.86,0,17.73,0,26.59a1.51,1.51,0,0,1-.89,1.51c-4.61,2.62-9.19,5.32-13.81,7.92a19.6,19.6,0,0,1-20.28.11c-4.71-2.61-9.33-5.36-14-8a1.52,1.52,0,0,1-.89-1.52C246,239.29,245.93,234.87,245.93,230.46Z"/><path class="cls-1" d="M391.17,187.44q0,19.69,0,39.4c0,.37.21.89-.19,1.07-.21.09-.63-.24-.94-.41-2.75-1.61-5.53-3.19-8.25-4.85-6.44-4-9.86-9.74-9.89-17.29q-.12-30.45,0-60.92c0-7.5,3.33-13.42,9.81-17.21q26.48-15.45,53.1-30.64a19.26,19.26,0,0,1,20.19,0q26.46,15.16,52.82,30.49a19.15,19.15,0,0,1,10,17.42q.11,30.36,0,60.71c0,7.51-3.4,13.28-9.79,17.23-2.78,1.72-5.62,3.32-8.44,5-1.07.63-1.08.63-1.08-.64V149.42c0-.54,0-1.08,0-1.62A4.24,4.24,0,0,0,492,144c-5.46,3-10.88,6.12-16.31,9.18q-15,8.46-30,16.94a1.64,1.64,0,0,1-1.85,0q-22.69-12.85-45.42-25.65a6,6,0,0,0-3-1.06,4.22,4.22,0,0,0-4.28,4c0,.57,0,1.14,0,1.72Z"/><path class="cls-1" d="M419.93,230.46V217.12c0-1.13,0-1.13,1-.58q11.44,6.3,22.87,12.63a1.84,1.84,0,0,0,2.06,0c7.61-4.24,15.24-8.43,22.87-12.64,1-.55,1-.55,1,.56,0,8.86,0,17.73,0,26.59a1.51,1.51,0,0,1-.89,1.51c-4.61,2.62-9.19,5.32-13.81,7.92a19.6,19.6,0,0,1-20.28.11c-4.71-2.61-9.33-5.36-14-8a1.52,1.52,0,0,1-.89-1.52C420,239.29,419.93,234.87,419.93,230.46Z"/><path class="cls-1" d="M565.17,187.44q0,19.69,0,39.4c0,.37.21.89-.19,1.07-.21.09-.63-.24-.94-.41-2.75-1.61-5.53-3.19-8.25-4.85-6.44-4-9.86-9.74-9.89-17.29q-.12-30.45,0-60.92c0-7.5,3.33-13.42,9.81-17.21q26.47-15.45,53.1-30.64a19.26,19.26,0,0,1,20.19,0q26.46,15.16,52.82,30.49a19.15,19.15,0,0,1,10,17.42q.11,30.36,0,60.71c0,7.51-3.4,13.28-9.79,17.23-2.78,1.72-5.62,3.32-8.44,5-1.07.63-1.08.63-1.08-.64V149.42c0-.54,0-1.08,0-1.62A4.24,4.24,0,0,0,666,144c-5.46,3-10.88,6.12-16.31,9.18q-15,8.46-30,16.94a1.64,1.64,0,0,1-1.85,0q-22.7-12.85-45.42-25.65a6,6,0,0,0-3-1.06,4.22,4.22,0,0,0-4.28,4c0,.57,0,1.14,0,1.72Z"/><path class="cls-1" d="M593.93,230.46V217.12c0-1.13,0-1.13,1-.58q11.44,6.3,22.87,12.63a1.84,1.84,0,0,0,2.06,0c7.61-4.24,15.24-8.43,22.87-12.64,1-.55,1-.55,1,.56,0,8.86,0,17.73,0,26.59a1.51,1.51,0,0,1-.89,1.51c-4.61,2.62-9.19,5.32-13.81,7.92a19.6,19.6,0,0,1-20.28.11c-4.71-2.61-9.33-5.36-14-8a1.52,1.52,0,0,1-.89-1.52C594,239.29,593.93,234.87,593.93,230.46Z"/><path class="cls-1" d="M739.17,187.44q0,19.69,0,39.4c0,.37.21.89-.19,1.07-.21.09-.63-.24-.94-.41-2.75-1.61-5.53-3.19-8.25-4.85-6.44-4-9.86-9.74-9.89-17.29q-.12-30.45,0-60.92c0-7.5,3.33-13.42,9.81-17.21q26.47-15.45,53.1-30.64a19.26,19.26,0,0,1,20.19,0q26.46,15.16,52.82,30.49a19.15,19.15,0,0,1,10,17.42q.11,30.36,0,60.71c0,7.51-3.4,13.28-9.79,17.23-2.78,1.72-5.62,3.32-8.44,5-1.07.63-1.08.63-1.08-.64V149.42c0-.54,0-1.08,0-1.62A4.24,4.24,0,0,0,840,144c-5.46,3-10.88,6.12-16.31,9.18q-15,8.46-30,16.94a1.64,1.64,0,0,1-1.85,0q-22.7-12.85-45.42-25.65a6,6,0,0,0-3-1.06,4.22,4.22,0,0,0-4.28,4c0,.57,0,1.14,0,1.72Z"/><path class="cls-1" d="M767.93,230.46V217.12c0-1.13,0-1.13,1-.58q11.44,6.3,22.87,12.63a1.84,1.84,0,0,0,2.06,0c7.61-4.24,15.24-8.43,22.87-12.64,1-.55,1-.55,1,.56,0,8.86,0,17.73,0,26.59a1.51,1.51,0,0,1-.89,1.51c-4.61,2.62-9.19,5.32-13.81,7.92a19.6,19.6,0,0,1-20.28.11c-4.71-2.61-9.33-5.36-14-8a1.52,1.52,0,0,1-.89-1.52C768,239.29,767.93,234.87,767.93,230.46Z"/><path class="cls-1" d="M913.17,187.44q0,19.69,0,39.4c0,.37.21.89-.19,1.07-.21.09-.63-.24-.94-.41-2.75-1.61-5.53-3.19-8.25-4.85-6.44-4-9.86-9.74-9.89-17.29q-.12-30.45,0-60.92c0-7.5,3.33-13.42,9.81-17.21q26.47-15.45,53.1-30.64a19.26,19.26,0,0,1,20.19,0q26.46,15.16,52.82,30.49a19.15,19.15,0,0,1,10,17.42q.11,30.36,0,60.71c0,7.51-3.4,13.28-9.79,17.23-2.78,1.72-5.62,3.32-8.44,5-1.07.63-1.08.63-1.08-.64V149.42c0-.54,0-1.08,0-1.62A4.24,4.24,0,0,0,1014,144c-5.46,3-10.88,6.12-16.31,9.18q-15,8.46-30,16.94a1.64,1.64,0,0,1-1.85,0q-22.7-12.85-45.42-25.65a6,6,0,0,0-3-1.06,4.22,4.22,0,0,0-4.28,4c0,.57,0,1.14,0,1.72Z"/><path class="cls-1" d="M941.93,230.46V217.12c0-1.13,0-1.13,1-.58q11.44,6.3,22.87,12.63a1.84,1.84,0,0,0,2.06,0c7.61-4.24,15.24-8.43,22.87-12.64,1-.55,1-.55,1,.56,0,8.86,0,17.73,0,26.59a1.51,1.51,0,0,1-.89,1.51c-4.61,2.62-9.19,5.32-13.81,7.92a19.6,19.6,0,0,1-20.28.11c-4.71-2.61-9.33-5.36-14-8a1.52,1.52,0,0,1-.89-1.52C942,239.29,941.93,234.87,941.93,230.46Z"/><path class="cls-1" d="M1087.17,187.44q0,19.69,0,39.4c0,.37.21.89-.19,1.07-.21.09-.63-.24-.94-.41-2.75-1.61-5.53-3.19-8.25-4.85-6.44-4-9.86-9.74-9.89-17.29q-.12-30.45,0-60.92c0-7.5,3.33-13.42,9.81-17.21q26.47-15.45,53.1-30.64a19.26,19.26,0,0,1,20.19,0q26.46,15.16,52.82,30.49a19.15,19.15,0,0,1,10,17.42q.11,30.36,0,60.71c0,7.51-3.4,13.28-9.79,17.23-2.78,1.72-5.62,3.32-8.44,5-1.07.63-1.08.63-1.08-.64V149.42c0-.54,0-1.08,0-1.62A4.24,4.24,0,0,0,1188,144c-5.46,3-10.88,6.12-16.31,9.18q-15,8.46-30,16.94a1.64,1.64,0,0,1-1.85,0q-22.7-12.85-45.42-25.65a6,6,0,0,0-3-1.06,4.22,4.22,0,0,0-4.28,4c0,.57,0,1.14,0,1.72Z"/><path class="cls-1" d="M1115.93,230.46V217.12c0-1.13,0-1.13,1-.58q11.44,6.3,22.87,12.63a1.84,1.84,0,0,0,2.06,0c7.61-4.24,15.24-8.43,22.87-12.64,1-.55,1-.55,1,.56,0,8.86,0,17.73,0,26.59a1.51,1.51,0,0,1-.89,1.51c-4.61,2.62-9.19,5.32-13.81,7.92a19.6,19.6,0,0,1-20.28.11c-4.71-2.61-9.33-5.36-14-8a1.52,1.52,0,0,1-.89-1.52C1116,239.29,1115.93,234.87,1115.93,230.46Z"/><path class="cls-1" d="M1261.17,187.44q0,19.69,0,39.4c0,.37.21.89-.19,1.07-.21.09-.63-.24-.94-.41-2.75-1.61-5.53-3.19-8.25-4.85-6.44-4-9.86-9.74-9.89-17.29q-.12-30.45,0-60.92c0-7.5,3.33-13.42,9.81-17.21q26.47-15.45,53.1-30.64a19.26,19.26,0,0,1,20.19,0q26.46,15.16,52.82,30.49a19.15,19.15,0,0,1,10,17.42q.11,30.36,0,60.71c0,7.51-3.4,13.28-9.79,17.23-2.78,1.72-5.62,3.32-8.44,5-1.07.63-1.08.63-1.08-.64V149.42c0-.54,0-1.08,0-1.62A4.24,4.24,0,0,0,1362,144c-5.46,3-10.88,6.12-16.31,9.18q-15,8.46-30,16.94a1.64,1.64,0,0,1-1.85,0q-22.7-12.85-45.42-25.65a6,6,0,0,0-3-1.06,4.22,4.22,0,0,0-4.28,4c0,.57,0,1.14,0,1.72Z"/><path class="cls-1" d="M1289.93,230.46V217.12c0-1.13,0-1.13,1-.58q11.44,6.3,22.87,12.63a1.84,1.84,0,0,0,2.06,0c7.61-4.24,15.24-8.43,22.87-12.64,1-.55,1-.55,1,.56,0,8.86,0,17.73,0,26.59a1.51,1.51,0,0,1-.89,1.51c-4.61,2.62-9.19,5.32-13.81,7.92a19.6,19.6,0,0,1-20.28.11c-4.71-2.61-9.33-5.36-14-8a1.52,1.52,0,0,1-.89-1.52C1290,239.29,1289.93,234.87,1289.93,230.46Z"/><path class="cls-1" d="M1435.17,187.44q0,19.69,0,39.4c0,.37.21.89-.19,1.07-.21.09-.63-.24-.94-.41-2.75-1.61-5.53-3.19-8.25-4.85-6.44-4-9.86-9.74-9.89-17.29q-.12-30.45,0-60.92c0-7.5,3.33-13.42,9.81-17.21q26.47-15.45,53.1-30.64a19.26,19.26,0,0,1,20.19,0q26.46,15.16,52.82,30.49a19.15,19.15,0,0,1,10,17.42q.11,30.36,0,60.71c0,7.51-3.4,13.28-9.79,17.23-2.78,1.72-5.62,3.32-8.44,5-1.07.63-1.08.63-1.08-.64V149.42c0-.54,0-1.08,0-1.62A4.24,4.24,0,0,0,1536,144c-5.46,3-10.88,6.12-16.31,9.18q-15,8.46-30,16.94a1.64,1.64,0,0,1-1.85,0q-22.7-12.85-45.42-25.65a6,6,0,0,0-3-1.06,4.22,4.22,0,0,0-4.28,4c0,.57,0,1.14,0,1.72Z"/><path class="cls-1" d="M1463.93,230.46V217.12c0-1.13,0-1.13,1-.58q11.44,6.3,22.87,12.63a1.84,1.84,0,0,0,2.06,0c7.61-4.24,15.24-8.43,22.87-12.64,1-.55,1-.55,1,.56,0,8.86,0,17.73,0,26.59a1.51,1.51,0,0,1-.89,1.51c-4.61,2.62-9.19,5.32-13.81,7.92a19.6,19.6,0,0,1-20.28.11c-4.71-2.61-9.33-5.36-14-8a1.52,1.52,0,0,1-.89-1.52C1464,239.29,1463.93,234.87,1463.93,230.46Z"/><path class="cls-1" d="M1609.17,187.44q0,19.69,0,39.4c0,.37.21.89-.19,1.07-.21.09-.63-.24-.94-.41-2.75-1.61-5.53-3.19-8.25-4.85-6.44-4-9.86-9.74-9.89-17.29q-.12-30.45,0-60.92c0-7.5,3.33-13.42,9.81-17.21q26.47-15.45,53.1-30.64a19.26,19.26,0,0,1,20.19,0q26.46,15.16,52.82,30.49a19.15,19.15,0,0,1,10,17.42q.11,30.36,0,60.71c0,7.51-3.4,13.28-9.79,17.23-2.78,1.72-5.62,3.32-8.44,5-1.07.63-1.08.63-1.08-.64V149.42c0-.54,0-1.08,0-1.62A4.24,4.24,0,0,0,1710,144c-5.46,3-10.88,6.12-16.31,9.18q-15,8.46-30,16.94a1.64,1.64,0,0,1-1.85,0q-22.7-12.85-45.42-25.65a6,6,0,0,0-3-1.06,4.22,4.22,0,0,0-4.28,4c0,.57,0,1.14,0,1.72Z"/><path class="cls-1" d="M1637.93,230.46V217.12c0-1.13,0-1.13,1-.58q11.44,6.3,22.87,12.63a1.84,1.84,0,0,0,2.06,0c7.61-4.24,15.24-8.43,22.87-12.64,1-.55,1-.55,1,.56,0,8.86,0,17.73,0,26.59a1.51,1.51,0,0,1-.89,1.51c-4.61,2.62-9.19,5.32-13.81,7.92a19.6,19.6,0,0,1-20.28.11c-4.71-2.61-9.33-5.36-14-8a1.52,1.52,0,0,1-.89-1.52C1638,239.29,1637.93,234.87,1637.93,230.46Z"/><path class="cls-1" d="M1783.17,187.44q0,19.69,0,39.4c0,.37.21.89-.19,1.07-.21.09-.63-.24-.94-.41-2.75-1.61-5.53-3.19-8.25-4.85-6.44-4-9.86-9.74-9.89-17.29q-.12-30.45,0-60.92c0-7.5,3.33-13.42,9.81-17.21q26.47-15.45,53.1-30.64a19.26,19.26,0,0,1,20.19,0q26.46,15.16,52.82,30.49a19.15,19.15,0,0,1,10,17.42q.11,30.36,0,60.71c0,7.51-3.4,13.28-9.79,17.23-2.78,1.72-5.62,3.32-8.44,5-1.07.63-1.08.63-1.08-.64V149.42c0-.54,0-1.08,0-1.62A4.24,4.24,0,0,0,1884,144c-5.46,3-10.88,6.12-16.31,9.18q-15,8.46-30,16.94a1.64,1.64,0,0,1-1.85,0q-22.7-12.85-45.42-25.65a6,6,0,0,0-3-1.06,4.22,4.22,0,0,0-4.28,4c0,.57,0,1.14,0,1.72Z"/><path class="cls-1" d="M1811.93,230.46V217.12c0-1.13,0-1.13,1-.58q11.44,6.3,22.87,12.63a1.84,1.84,0,0,0,2.06,0c7.61-4.24,15.24-8.43,22.87-12.64,1-.55,1-.55,1,.56,0,8.86,0,17.73,0,26.59a1.51,1.51,0,0,1-.89,1.51c-4.61,2.62-9.19,5.32-13.81,7.92a19.6,19.6,0,0,1-20.28.11c-4.71-2.61-9.33-5.36-14-8a1.52,1.52,0,0,1-.89-1.52C1812,239.29,1811.93,234.87,1811.93,230.46Z"/><path class="cls-1" d="M-44.83,355.44q0,19.69,0,39.4c0,.37.21.89-.19,1.07-.21.09-.63-.24-.94-.41-2.75-1.61-5.53-3.19-8.25-4.85-6.44-3.95-9.86-9.74-9.89-17.29q-.12-30.45,0-60.92c0-7.5,3.33-13.42,9.81-17.21q26.48-15.45,53.1-30.64a19.26,19.26,0,0,1,20.19,0q26.46,15.17,52.82,30.49a19.15,19.15,0,0,1,10,17.42q.1,30.36,0,60.71c0,7.51-3.4,13.28-9.79,17.23-2.78,1.72-5.62,3.32-8.44,5-1.07.63-1.08.63-1.08-.64V317.42c0-.54,0-1.08,0-1.62A4.24,4.24,0,0,0,56,312c-5.46,3-10.88,6.12-16.31,9.18q-15,8.46-30,16.94a1.64,1.64,0,0,1-1.85,0q-22.69-12.86-45.42-25.65a6,6,0,0,0-3-1.06,4.22,4.22,0,0,0-4.28,4c0,.57,0,1.14,0,1.72Z"/><path class="cls-1" d="M-16.07,398.46V385.12c0-1.13,0-1.13,1-.58q11.45,6.3,22.87,12.63a1.84,1.84,0,0,0,2.06,0c7.61-4.24,15.24-8.43,22.87-12.64,1-.55,1-.55,1,.56,0,8.86,0,17.73,0,26.59a1.51,1.51,0,0,1-.89,1.51c-4.61,2.62-9.19,5.32-13.81,7.92a19.6,19.6,0,0,1-20.28.11c-4.71-2.61-9.33-5.36-14-8a1.52,1.52,0,0,1-.89-1.52C-16,407.29-16.07,402.87-16.07,398.46Z"/><path class="cls-1" d="M129.17,355.44q0,19.69,0,39.4c0,.37.21.89-.19,1.07-.21.09-.63-.24-.94-.41-2.75-1.61-5.53-3.19-8.25-4.85-6.44-3.95-9.86-9.74-9.89-17.29q-.12-30.45,0-60.92c0-7.5,3.33-13.42,9.81-17.21q26.47-15.45,53.1-30.64a19.26,19.26,0,0,1,20.19,0q26.46,15.17,52.82,30.49a19.15,19.15,0,0,1,10,17.42q.1,30.36,0,60.71c0,7.51-3.4,13.28-9.79,17.23-2.78,1.72-5.62,3.32-8.44,5-1.07.63-1.08.63-1.08-.64V317.42c0-.54,0-1.08,0-1.62A4.24,4.24,0,0,0,230,312c-5.46,3-10.88,6.12-16.31,9.18q-15,8.46-30,16.94a1.64,1.64,0,0,1-1.85,0q-22.69-12.86-45.42-25.65a6,6,0,0,0-3-1.06,4.22,4.22,0,0,0-4.28,4c0,.57,0,1.14,0,1.72Z"/><path class="cls-1" d="M157.93,398.46V385.12c0-1.13,0-1.13,1-.58q11.44,6.3,22.87,12.63a1.84,1.84,0,0,0,2.06,0c7.61-4.24,15.24-8.43,22.87-12.64,1-.55,1-.55,1,.56,0,8.86,0,17.73,0,26.59a1.51,1.51,0,0,1-.89,1.51c-4.61,2.62-9.19,5.32-13.81,7.92a19.6,19.6,0,0,1-20.28.11c-4.71-2.61-9.33-5.36-14-8a1.52,1.52,0,0,1-.89-1.52C158,407.29,157.93,402.87,157.93,398.46Z"/><path class="cls-1" d="M303.17,355.44q0,19.69,0,39.4c0,.37.21.89-.19,1.07-.21.09-.63-.24-.94-.41-2.75-1.61-5.53-3.19-8.25-4.85-6.44-3.95-9.86-9.74-9.89-17.29q-.12-30.45,0-60.92c0-7.5,3.33-13.42,9.81-17.21q26.48-15.45,53.1-30.64a19.26,19.26,0,0,1,20.19,0q26.46,15.17,52.82,30.49a19.15,19.15,0,0,1,10,17.42q.1,30.36,0,60.71c0,7.51-3.4,13.28-9.79,17.23-2.78,1.72-5.62,3.32-8.44,5-1.07.63-1.08.63-1.08-.64V317.42c0-.54,0-1.08,0-1.62A4.24,4.24,0,0,0,404,312c-5.46,3-10.88,6.12-16.31,9.18q-15,8.46-30,16.94a1.64,1.64,0,0,1-1.85,0q-22.69-12.86-45.42-25.65a6,6,0,0,0-3-1.06,4.22,4.22,0,0,0-4.28,4c0,.57,0,1.14,0,1.72Z"/><path class="cls-1" d="M331.93,398.46V385.12c0-1.13,0-1.13,1-.58q11.44,6.3,22.87,12.63a1.84,1.84,0,0,0,2.06,0c7.61-4.24,15.24-8.43,22.87-12.64,1-.55,1-.55,1,.56,0,8.86,0,17.73,0,26.59a1.51,1.51,0,0,1-.89,1.51c-4.61,2.62-9.19,5.32-13.81,7.92a19.6,19.6,0,0,1-20.28.11c-4.71-2.61-9.33-5.36-14-8a1.52,1.52,0,0,1-.89-1.52C332,407.29,331.93,402.87,331.93,398.46Z"/><path class="cls-1" d="M477.17,355.44q0,19.69,0,39.4c0,.37.21.89-.19,1.07-.21.09-.63-.24-.94-.41-2.75-1.61-5.53-3.19-8.25-4.85-6.44-3.95-9.86-9.74-9.89-17.29q-.12-30.45,0-60.92c0-7.5,3.33-13.42,9.81-17.21q26.48-15.45,53.1-30.64a19.26,19.26,0,0,1,20.19,0q26.46,15.17,52.82,30.49a19.15,19.15,0,0,1,10,17.42q.11,30.36,0,60.71c0,7.51-3.4,13.28-9.79,17.23-2.78,1.72-5.62,3.32-8.44,5-1.07.63-1.08.63-1.08-.64V317.42c0-.54,0-1.08,0-1.62A4.24,4.24,0,0,0,578,312c-5.46,3-10.88,6.12-16.31,9.18q-15,8.46-30,16.94a1.64,1.64,0,0,1-1.85,0q-22.69-12.86-45.42-25.65a6,6,0,0,0-3-1.06,4.22,4.22,0,0,0-4.28,4c0,.57,0,1.14,0,1.72Z"/><path class="cls-1" d="M505.93,398.46V385.12c0-1.13,0-1.13,1-.58q11.45,6.3,22.87,12.63a1.84,1.84,0,0,0,2.06,0c7.61-4.24,15.24-8.43,22.87-12.64,1-.55,1-.55,1,.56,0,8.86,0,17.73,0,26.59a1.51,1.51,0,0,1-.89,1.51c-4.61,2.62-9.19,5.32-13.81,7.92a19.6,19.6,0,0,1-20.28.11c-4.71-2.61-9.33-5.36-14-8a1.52,1.52,0,0,1-.89-1.52C506,407.29,505.93,402.87,505.93,398.46Z"/><path class="cls-1" d="M651.17,355.44q0,19.69,0,39.4c0,.37.21.89-.19,1.07-.21.09-.63-.24-.94-.41-2.75-1.61-5.53-3.19-8.25-4.85-6.44-3.95-9.86-9.74-9.89-17.29q-.12-30.45,0-60.92c0-7.5,3.33-13.42,9.81-17.21q26.47-15.45,53.1-30.64a19.26,19.26,0,0,1,20.19,0q26.46,15.17,52.82,30.49a19.15,19.15,0,0,1,10,17.42q.11,30.36,0,60.71c0,7.51-3.4,13.28-9.79,17.23-2.78,1.72-5.62,3.32-8.44,5-1.07.63-1.08.63-1.08-.64V317.42c0-.54,0-1.08,0-1.62A4.24,4.24,0,0,0,752,312c-5.46,3-10.88,6.12-16.31,9.18q-15,8.46-30,16.94a1.64,1.64,0,0,1-1.85,0q-22.7-12.86-45.42-25.65a6,6,0,0,0-3-1.06,4.22,4.22,0,0,0-4.28,4c0,.57,0,1.14,0,1.72Z"/><path class="cls-1" d="M679.93,398.46V385.12c0-1.13,0-1.13,1-.58q11.44,6.3,22.87,12.63a1.84,1.84,0,0,0,2.06,0c7.61-4.24,15.24-8.43,22.87-12.64,1-.55,1-.55,1,.56,0,8.86,0,17.73,0,26.59a1.51,1.51,0,0,1-.89,1.51c-4.61,2.62-9.19,5.32-13.81,7.92a19.6,19.6,0,0,1-20.28.11c-4.71-2.61-9.33-5.36-14-8a1.52,1.52,0,0,1-.89-1.52C680,407.29,679.93,402.87,679.93,398.46Z"/><path class="cls-1" d="M825.17,355.44q0,19.69,0,39.4c0,.37.21.89-.19,1.07-.21.09-.63-.24-.94-.41-2.75-1.61-5.53-3.19-8.25-4.85-6.44-3.95-9.86-9.74-9.89-17.29q-.12-30.45,0-60.92c0-7.5,3.33-13.42,9.81-17.21q26.47-15.45,53.1-30.64a19.26,19.26,0,0,1,20.19,0q26.46,15.17,52.82,30.49a19.15,19.15,0,0,1,10,17.42q.11,30.36,0,60.71c0,7.51-3.4,13.28-9.79,17.23-2.78,1.72-5.62,3.32-8.44,5-1.07.63-1.08.63-1.08-.64V317.42c0-.54,0-1.08,0-1.62A4.24,4.24,0,0,0,926,312c-5.46,3-10.88,6.12-16.31,9.18q-15,8.46-30,16.94a1.64,1.64,0,0,1-1.85,0q-22.7-12.86-45.42-25.65a6,6,0,0,0-3-1.06,4.22,4.22,0,0,0-4.28,4c0,.57,0,1.14,0,1.72Z"/><path class="cls-1" d="M853.93,398.46V385.12c0-1.13,0-1.13,1-.58q11.44,6.3,22.87,12.63a1.84,1.84,0,0,0,2.06,0c7.61-4.24,15.24-8.43,22.87-12.64,1-.55,1-.55,1,.56,0,8.86,0,17.73,0,26.59a1.51,1.51,0,0,1-.89,1.51c-4.61,2.62-9.19,5.32-13.81,7.92a19.6,19.6,0,0,1-20.28.11c-4.71-2.61-9.33-5.36-14-8a1.52,1.52,0,0,1-.89-1.52C854,407.29,853.93,402.87,853.93,398.46Z"/><path class="cls-1" d="M999.17,355.44q0,19.69,0,39.4c0,.37.21.89-.19,1.07-.21.09-.63-.24-.94-.41-2.75-1.61-5.53-3.19-8.25-4.85-6.44-3.95-9.86-9.74-9.89-17.29q-.12-30.45,0-60.92c0-7.5,3.33-13.42,9.81-17.21q26.47-15.45,53.1-30.64a19.26,19.26,0,0,1,20.19,0q26.46,15.17,52.82,30.49a19.15,19.15,0,0,1,10,17.42q.11,30.36,0,60.71c0,7.51-3.4,13.28-9.79,17.23-2.78,1.72-5.62,3.32-8.44,5-1.07.63-1.08.63-1.08-.64V317.42c0-.54,0-1.08,0-1.62A4.24,4.24,0,0,0,1100,312c-5.46,3-10.88,6.12-16.31,9.18q-15,8.46-30,16.94a1.64,1.64,0,0,1-1.85,0q-22.7-12.86-45.42-25.65a6,6,0,0,0-3-1.06,4.22,4.22,0,0,0-4.28,4c0,.57,0,1.14,0,1.72Z"/><path class="cls-1" d="M1027.93,398.46V385.12c0-1.13,0-1.13,1-.58q11.44,6.3,22.87,12.63a1.84,1.84,0,0,0,2.06,0c7.61-4.24,15.24-8.43,22.87-12.64,1-.55,1-.55,1,.56,0,8.86,0,17.73,0,26.59a1.51,1.51,0,0,1-.89,1.51c-4.61,2.62-9.19,5.32-13.81,7.92a19.6,19.6,0,0,1-20.28.11c-4.71-2.61-9.33-5.36-14-8a1.52,1.52,0,0,1-.89-1.52C1028,407.29,1027.93,402.87,1027.93,398.46Z"/><path class="cls-1" d="M1173.17,355.44q0,19.69,0,39.4c0,.37.21.89-.19,1.07-.21.09-.63-.24-.94-.41-2.75-1.61-5.53-3.19-8.25-4.85-6.44-3.95-9.86-9.74-9.89-17.29q-.12-30.45,0-60.92c0-7.5,3.33-13.42,9.81-17.21q26.47-15.45,53.1-30.64a19.26,19.26,0,0,1,20.19,0q26.46,15.17,52.82,30.49a19.15,19.15,0,0,1,10,17.42q.11,30.36,0,60.71c0,7.51-3.4,13.28-9.79,17.23-2.78,1.72-5.62,3.32-8.44,5-1.07.63-1.08.63-1.08-.64V317.42c0-.54,0-1.08,0-1.62A4.24,4.24,0,0,0,1274,312c-5.46,3-10.88,6.12-16.31,9.18q-15,8.46-30,16.94a1.64,1.64,0,0,1-1.85,0q-22.7-12.86-45.42-25.65a6,6,0,0,0-3-1.06,4.22,4.22,0,0,0-4.28,4c0,.57,0,1.14,0,1.72Z"/><path class="cls-1" d="M1201.93,398.46V385.12c0-1.13,0-1.13,1-.58q11.44,6.3,22.87,12.63a1.84,1.84,0,0,0,2.06,0c7.61-4.24,15.24-8.43,22.87-12.64,1-.55,1-.55,1,.56,0,8.86,0,17.73,0,26.59a1.51,1.51,0,0,1-.89,1.51c-4.61,2.62-9.19,5.32-13.81,7.92a19.6,19.6,0,0,1-20.28.11c-4.71-2.61-9.33-5.36-14-8a1.52,1.52,0,0,1-.89-1.52C1202,407.29,1201.93,402.87,1201.93,398.46Z"/><path class="cls-1" d="M1347.17,355.44q0,19.69,0,39.4c0,.37.21.89-.19,1.07-.21.09-.63-.24-.94-.41-2.75-1.61-5.53-3.19-8.25-4.85-6.44-3.95-9.86-9.74-9.89-17.29q-.12-30.45,0-60.92c0-7.5,3.33-13.42,9.81-17.21q26.47-15.45,53.1-30.64a19.26,19.26,0,0,1,20.19,0q26.46,15.17,52.82,30.49a19.15,19.15,0,0,1,10,17.42q.11,30.36,0,60.71c0,7.51-3.4,13.28-9.79,17.23-2.78,1.72-5.62,3.32-8.44,5-1.07.63-1.08.63-1.08-.64V317.42c0-.54,0-1.08,0-1.62A4.24,4.24,0,0,0,1448,312c-5.46,3-10.88,6.12-16.31,9.18q-15,8.46-30,16.94a1.64,1.64,0,0,1-1.85,0q-22.7-12.86-45.42-25.65a6,6,0,0,0-3-1.06,4.22,4.22,0,0,0-4.28,4c0,.57,0,1.14,0,1.72Z"/><path class="cls-1" d="M1375.93,398.46V385.12c0-1.13,0-1.13,1-.58q11.44,6.3,22.87,12.63a1.84,1.84,0,0,0,2.06,0c7.61-4.24,15.24-8.43,22.87-12.64,1-.55,1-.55,1,.56,0,8.86,0,17.73,0,26.59a1.51,1.51,0,0,1-.89,1.51c-4.61,2.62-9.19,5.32-13.81,7.92a19.6,19.6,0,0,1-20.28.11c-4.71-2.61-9.33-5.36-14-8a1.52,1.52,0,0,1-.89-1.52C1376,407.29,1375.93,402.87,1375.93,398.46Z"/><path class="cls-1" d="M1521.17,355.44q0,19.69,0,39.4c0,.37.21.89-.19,1.07-.21.09-.63-.24-.94-.41-2.75-1.61-5.53-3.19-8.25-4.85-6.44-3.95-9.86-9.74-9.89-17.29q-.12-30.45,0-60.92c0-7.5,3.33-13.42,9.81-17.21q26.47-15.45,53.1-30.64a19.26,19.26,0,0,1,20.19,0q26.46,15.17,52.82,30.49a19.15,19.15,0,0,1,10,17.42q.11,30.36,0,60.71c0,7.51-3.4,13.28-9.79,17.23-2.78,1.72-5.62,3.32-8.44,5-1.07.63-1.08.63-1.08-.64V317.42c0-.54,0-1.08,0-1.62A4.24,4.24,0,0,0,1622,312c-5.46,3-10.88,6.12-16.31,9.18q-15,8.46-30,16.94a1.64,1.64,0,0,1-1.85,0q-22.7-12.86-45.42-25.65a6,6,0,0,0-3-1.06,4.22,4.22,0,0,0-4.28,4c0,.57,0,1.14,0,1.72Z"/><path class="cls-1" d="M1549.93,398.46V385.12c0-1.13,0-1.13,1-.58q11.44,6.3,22.87,12.63a1.84,1.84,0,0,0,2.06,0c7.61-4.24,15.24-8.43,22.87-12.64,1-.55,1-.55,1,.56,0,8.86,0,17.73,0,26.59a1.51,1.51,0,0,1-.89,1.51c-4.61,2.62-9.19,5.32-13.81,7.92a19.6,19.6,0,0,1-20.28.11c-4.71-2.61-9.33-5.36-14-8a1.52,1.52,0,0,1-.89-1.52C1550,407.29,1549.93,402.87,1549.93,398.46Z"/><path class="cls-1" d="M1695.17,355.44q0,19.69,0,39.4c0,.37.21.89-.19,1.07-.21.09-.63-.24-.94-.41-2.75-1.61-5.53-3.19-8.25-4.85-6.44-3.95-9.86-9.74-9.89-17.29q-.12-30.45,0-60.92c0-7.5,3.33-13.42,9.81-17.21q26.47-15.45,53.1-30.64a19.26,19.26,0,0,1,20.19,0q26.46,15.17,52.82,30.49a19.15,19.15,0,0,1,10,17.42q.11,30.36,0,60.71c0,7.51-3.4,13.28-9.79,17.23-2.78,1.72-5.62,3.32-8.44,5-1.07.63-1.08.63-1.08-.64V317.42c0-.54,0-1.08,0-1.62A4.24,4.24,0,0,0,1796,312c-5.46,3-10.88,6.12-16.31,9.18q-15,8.46-30,16.94a1.64,1.64,0,0,1-1.85,0q-22.7-12.86-45.42-25.65a6,6,0,0,0-3-1.06,4.22,4.22,0,0,0-4.28,4c0,.57,0,1.14,0,1.72Z"/><path class="cls-1" d="M1723.93,398.46V385.12c0-1.13,0-1.13,1-.58q11.44,6.3,22.87,12.63a1.84,1.84,0,0,0,2.06,0c7.61-4.24,15.24-8.43,22.87-12.64,1-.55,1-.55,1,.56,0,8.86,0,17.73,0,26.59a1.51,1.51,0,0,1-.89,1.51c-4.61,2.62-9.19,5.32-13.81,7.92a19.6,19.6,0,0,1-20.28.11c-4.71-2.61-9.33-5.36-14-8a1.52,1.52,0,0,1-.89-1.52C1724,407.29,1723.93,402.87,1723.93,398.46Z"/><path class="cls-1" d="M1869.17,355.44q0,19.69,0,39.4c0,.37.21.89-.19,1.07-.21.09-.63-.24-.94-.41-2.75-1.61-5.53-3.19-8.25-4.85-6.44-3.95-9.86-9.74-9.89-17.29q-.12-30.45,0-60.92c0-7.5,3.33-13.42,9.81-17.21q26.47-15.45,53.1-30.64a19.26,19.26,0,0,1,20.19,0q26.46,15.17,52.82,30.49a19.15,19.15,0,0,1,10,17.42q.11,30.36,0,60.71c0,7.51-3.4,13.28-9.79,17.23-2.78,1.72-5.62,3.32-8.44,5-1.07.63-1.08.63-1.08-.64V317.42c0-.54,0-1.08,0-1.62A4.24,4.24,0,0,0,1970,312c-5.46,3-10.88,6.12-16.31,9.18q-15,8.46-30,16.94a1.64,1.64,0,0,1-1.85,0q-22.7-12.86-45.42-25.65a6,6,0,0,0-3-1.06,4.22,4.22,0,0,0-4.28,4c0,.57,0,1.14,0,1.72Z"/><path class="cls-1" d="M1897.93,398.46V385.12c0-1.13,0-1.13,1-.58q11.44,6.3,22.87,12.63a1.84,1.84,0,0,0,2.06,0c7.61-4.24,15.24-8.43,22.87-12.64,1-.55,1-.55,1,.56,0,8.86,0,17.73,0,26.59a1.51,1.51,0,0,1-.89,1.51c-4.61,2.62-9.19,5.32-13.81,7.92a19.6,19.6,0,0,1-20.28.11c-4.71-2.61-9.33-5.36-14-8a1.52,1.52,0,0,1-.89-1.52C1898,407.29,1897.93,402.87,1897.93,398.46Z"/><path class="cls-1" d="M43.17,530.44q0,19.69,0,39.4c0,.37.21.89-.19,1.07-.21.09-.63-.24-.94-.41-2.75-1.61-5.53-3.19-8.25-4.85-6.44-3.95-9.86-9.74-9.89-17.29q-.12-30.45,0-60.92c0-7.5,3.33-13.42,9.81-17.21q26.47-15.45,53.1-30.64a19.26,19.26,0,0,1,20.19,0q26.46,15.17,52.82,30.49a19.15,19.15,0,0,1,10,17.42q.1,30.36,0,60.71c0,7.51-3.4,13.28-9.79,17.23-2.78,1.72-5.62,3.32-8.44,5-1.07.63-1.08.63-1.08-.64V492.42c0-.54,0-1.08,0-1.62A4.24,4.24,0,0,0,144,487c-5.46,3-10.88,6.12-16.31,9.18q-15,8.46-30,16.94a1.64,1.64,0,0,1-1.85,0q-22.7-12.86-45.42-25.65a6,6,0,0,0-3-1.06,4.22,4.22,0,0,0-4.28,4c0,.57,0,1.14,0,1.72Z"/><path class="cls-1" d="M71.93,573.46V560.12c0-1.13,0-1.13,1-.58q11.44,6.3,22.87,12.63a1.84,1.84,0,0,0,2.06,0c7.61-4.24,15.24-8.43,22.87-12.64,1-.55,1-.55,1,.56,0,8.86,0,17.73,0,26.59a1.51,1.51,0,0,1-.89,1.51c-4.61,2.62-9.19,5.32-13.81,7.92a19.6,19.6,0,0,1-20.28.11c-4.71-2.61-9.33-5.36-14-8a1.52,1.52,0,0,1-.89-1.52C72,582.29,71.93,577.87,71.93,573.46Z"/><path class="cls-1" d="M217.17,530.44q0,19.69,0,39.4c0,.37.21.89-.19,1.07-.21.09-.63-.24-.94-.41-2.75-1.61-5.53-3.19-8.25-4.85-6.44-3.95-9.86-9.74-9.89-17.29q-.12-30.45,0-60.92c0-7.5,3.33-13.42,9.81-17.21q26.48-15.45,53.1-30.64a19.26,19.26,0,0,1,20.19,0q26.46,15.17,52.82,30.49a19.15,19.15,0,0,1,10,17.42q.1,30.36,0,60.71c0,7.51-3.4,13.28-9.79,17.23-2.78,1.72-5.62,3.32-8.44,5-1.07.63-1.08.63-1.08-.64V492.42c0-.54,0-1.08,0-1.62A4.24,4.24,0,0,0,318,487c-5.46,3-10.88,6.12-16.31,9.18q-15,8.46-30,16.94a1.64,1.64,0,0,1-1.85,0q-22.69-12.86-45.42-25.65a6,6,0,0,0-3-1.06,4.22,4.22,0,0,0-4.28,4c0,.57,0,1.14,0,1.72Z"/><path class="cls-1" d="M245.93,573.46V560.12c0-1.13,0-1.13,1-.58q11.44,6.3,22.87,12.63a1.84,1.84,0,0,0,2.06,0c7.61-4.24,15.24-8.43,22.87-12.64,1-.55,1-.55,1,.56,0,8.86,0,17.73,0,26.59a1.51,1.51,0,0,1-.89,1.51c-4.61,2.62-9.19,5.32-13.81,7.92a19.6,19.6,0,0,1-20.28.11c-4.71-2.61-9.33-5.36-14-8a1.52,1.52,0,0,1-.89-1.52C246,582.29,245.93,577.87,245.93,573.46Z"/><path class="cls-1" d="M391.17,530.44q0,19.69,0,39.4c0,.37.21.89-.19,1.07-.21.09-.63-.24-.94-.41-2.75-1.61-5.53-3.19-8.25-4.85-6.44-3.95-9.86-9.74-9.89-17.29q-.12-30.45,0-60.92c0-7.5,3.33-13.42,9.81-17.21q26.48-15.45,53.1-30.64a19.26,19.26,0,0,1,20.19,0q26.46,15.17,52.82,30.49a19.15,19.15,0,0,1,10,17.42q.11,30.36,0,60.71c0,7.51-3.4,13.28-9.79,17.23-2.78,1.72-5.62,3.32-8.44,5-1.07.63-1.08.63-1.08-.64V492.42c0-.54,0-1.08,0-1.62A4.24,4.24,0,0,0,492,487c-5.46,3-10.88,6.12-16.31,9.18q-15,8.46-30,16.94a1.64,1.64,0,0,1-1.85,0q-22.69-12.86-45.42-25.65a6,6,0,0,0-3-1.06,4.22,4.22,0,0,0-4.28,4c0,.57,0,1.14,0,1.72Z"/><path class="cls-1" d="M419.93,573.46V560.12c0-1.13,0-1.13,1-.58q11.44,6.3,22.87,12.63a1.84,1.84,0,0,0,2.06,0c7.61-4.24,15.24-8.43,22.87-12.64,1-.55,1-.55,1,.56,0,8.86,0,17.73,0,26.59a1.51,1.51,0,0,1-.89,1.51c-4.61,2.62-9.19,5.32-13.81,7.92a19.6,19.6,0,0,1-20.28.11c-4.71-2.61-9.33-5.36-14-8a1.52,1.52,0,0,1-.89-1.52C420,582.29,419.93,577.87,419.93,573.46Z"/><path class="cls-1" d="M565.17,530.44q0,19.69,0,39.4c0,.37.21.89-.19,1.07-.21.09-.63-.24-.94-.41-2.75-1.61-5.53-3.19-8.25-4.85-6.44-3.95-9.86-9.74-9.89-17.29q-.12-30.45,0-60.92c0-7.5,3.33-13.42,9.81-17.21q26.47-15.45,53.1-30.64a19.26,19.26,0,0,1,20.19,0q26.46,15.17,52.82,30.49a19.15,19.15,0,0,1,10,17.42q.11,30.36,0,60.71c0,7.51-3.4,13.28-9.79,17.23-2.78,1.72-5.62,3.32-8.44,5-1.07.63-1.08.63-1.08-.64V492.42c0-.54,0-1.08,0-1.62A4.24,4.24,0,0,0,666,487c-5.46,3-10.88,6.12-16.31,9.18q-15,8.46-30,16.94a1.64,1.64,0,0,1-1.85,0q-22.7-12.86-45.42-25.65a6,6,0,0,0-3-1.06,4.22,4.22,0,0,0-4.28,4c0,.57,0,1.14,0,1.72Z"/><path class="cls-1" d="M593.93,573.46V560.12c0-1.13,0-1.13,1-.58q11.44,6.3,22.87,12.63a1.84,1.84,0,0,0,2.06,0c7.61-4.24,15.24-8.43,22.87-12.64,1-.55,1-.55,1,.56,0,8.86,0,17.73,0,26.59a1.51,1.51,0,0,1-.89,1.51c-4.61,2.62-9.19,5.32-13.81,7.92a19.6,19.6,0,0,1-20.28.11c-4.71-2.61-9.33-5.36-14-8a1.52,1.52,0,0,1-.89-1.52C594,582.29,593.93,577.87,593.93,573.46Z"/><path class="cls-1" d="M739.17,530.44q0,19.69,0,39.4c0,.37.21.89-.19,1.07-.21.09-.63-.24-.94-.41-2.75-1.61-5.53-3.19-8.25-4.85-6.44-3.95-9.86-9.74-9.89-17.29q-.12-30.45,0-60.92c0-7.5,3.33-13.42,9.81-17.21q26.47-15.45,53.1-30.64a19.26,19.26,0,0,1,20.19,0q26.46,15.17,52.82,30.49a19.15,19.15,0,0,1,10,17.42q.11,30.36,0,60.71c0,7.51-3.4,13.28-9.79,17.23-2.78,1.72-5.62,3.32-8.44,5-1.07.63-1.08.63-1.08-.64V492.42c0-.54,0-1.08,0-1.62A4.24,4.24,0,0,0,840,487c-5.46,3-10.88,6.12-16.31,9.18q-15,8.46-30,16.94a1.64,1.64,0,0,1-1.85,0q-22.7-12.86-45.42-25.65a6,6,0,0,0-3-1.06,4.22,4.22,0,0,0-4.28,4c0,.57,0,1.14,0,1.72Z"/><path class="cls-1" d="M767.93,573.46V560.12c0-1.13,0-1.13,1-.58q11.44,6.3,22.87,12.63a1.84,1.84,0,0,0,2.06,0c7.61-4.24,15.24-8.43,22.87-12.64,1-.55,1-.55,1,.56,0,8.86,0,17.73,0,26.59a1.51,1.51,0,0,1-.89,1.51c-4.61,2.62-9.19,5.32-13.81,7.92a19.6,19.6,0,0,1-20.28.11c-4.71-2.61-9.33-5.36-14-8a1.52,1.52,0,0,1-.89-1.52C768,582.29,767.93,577.87,767.93,573.46Z"/><path class="cls-1" d="M913.17,530.44q0,19.69,0,39.4c0,.37.21.89-.19,1.07-.21.09-.63-.24-.94-.41-2.75-1.61-5.53-3.19-8.25-4.85-6.44-3.95-9.86-9.74-9.89-17.29q-.12-30.45,0-60.92c0-7.5,3.33-13.42,9.81-17.21q26.47-15.45,53.1-30.64a19.26,19.26,0,0,1,20.19,0q26.46,15.17,52.82,30.49a19.15,19.15,0,0,1,10,17.42q.11,30.36,0,60.71c0,7.51-3.4,13.28-9.79,17.23-2.78,1.72-5.62,3.32-8.44,5-1.07.63-1.08.63-1.08-.64V492.42c0-.54,0-1.08,0-1.62A4.24,4.24,0,0,0,1014,487c-5.46,3-10.88,6.12-16.31,9.18q-15,8.46-30,16.94a1.64,1.64,0,0,1-1.85,0q-22.7-12.86-45.42-25.65a6,6,0,0,0-3-1.06,4.22,4.22,0,0,0-4.28,4c0,.57,0,1.14,0,1.72Z"/><path class="cls-1" d="M941.93,573.46V560.12c0-1.13,0-1.13,1-.58q11.44,6.3,22.87,12.63a1.84,1.84,0,0,0,2.06,0c7.61-4.24,15.24-8.43,22.87-12.64,1-.55,1-.55,1,.56,0,8.86,0,17.73,0,26.59a1.51,1.51,0,0,1-.89,1.51c-4.61,2.62-9.19,5.32-13.81,7.92a19.6,19.6,0,0,1-20.28.11c-4.71-2.61-9.33-5.36-14-8a1.52,1.52,0,0,1-.89-1.52C942,582.29,941.93,577.87,941.93,573.46Z"/><path class="cls-1" d="M1087.17,530.44q0,19.69,0,39.4c0,.37.21.89-.19,1.07-.21.09-.63-.24-.94-.41-2.75-1.61-5.53-3.19-8.25-4.85-6.44-3.95-9.86-9.74-9.89-17.29q-.12-30.45,0-60.92c0-7.5,3.33-13.42,9.81-17.21q26.47-15.45,53.1-30.64a19.26,19.26,0,0,1,20.19,0q26.46,15.17,52.82,30.49a19.15,19.15,0,0,1,10,17.42q.11,30.36,0,60.71c0,7.51-3.4,13.28-9.79,17.23-2.78,1.72-5.62,3.32-8.44,5-1.07.63-1.08.63-1.08-.64V492.42c0-.54,0-1.08,0-1.62A4.24,4.24,0,0,0,1188,487c-5.46,3-10.88,6.12-16.31,9.18q-15,8.46-30,16.94a1.64,1.64,0,0,1-1.85,0q-22.7-12.86-45.42-25.65a6,6,0,0,0-3-1.06,4.22,4.22,0,0,0-4.28,4c0,.57,0,1.14,0,1.72Z"/><path class="cls-1" d="M1115.93,573.46V560.12c0-1.13,0-1.13,1-.58q11.44,6.3,22.87,12.63a1.84,1.84,0,0,0,2.06,0c7.61-4.24,15.24-8.43,22.87-12.64,1-.55,1-.55,1,.56,0,8.86,0,17.73,0,26.59a1.51,1.51,0,0,1-.89,1.51c-4.61,2.62-9.19,5.32-13.81,7.92a19.6,19.6,0,0,1-20.28.11c-4.71-2.61-9.33-5.36-14-8a1.52,1.52,0,0,1-.89-1.52C1116,582.29,1115.93,577.87,1115.93,573.46Z"/><path class="cls-1" d="M1261.17,530.44q0,19.69,0,39.4c0,.37.21.89-.19,1.07-.21.09-.63-.24-.94-.41-2.75-1.61-5.53-3.19-8.25-4.85-6.44-3.95-9.86-9.74-9.89-17.29q-.12-30.45,0-60.92c0-7.5,3.33-13.42,9.81-17.21q26.47-15.45,53.1-30.64a19.26,19.26,0,0,1,20.19,0q26.46,15.17,52.82,30.49a19.15,19.15,0,0,1,10,17.42q.11,30.36,0,60.71c0,7.51-3.4,13.28-9.79,17.23-2.78,1.72-5.62,3.32-8.44,5-1.07.63-1.08.63-1.08-.64V492.42c0-.54,0-1.08,0-1.62A4.24,4.24,0,0,0,1362,487c-5.46,3-10.88,6.12-16.31,9.18q-15,8.46-30,16.94a1.64,1.64,0,0,1-1.85,0q-22.7-12.86-45.42-25.65a6,6,0,0,0-3-1.06,4.22,4.22,0,0,0-4.28,4c0,.57,0,1.14,0,1.72Z"/><path class="cls-1" d="M1289.93,573.46V560.12c0-1.13,0-1.13,1-.58q11.44,6.3,22.87,12.63a1.84,1.84,0,0,0,2.06,0c7.61-4.24,15.24-8.43,22.87-12.64,1-.55,1-.55,1,.56,0,8.86,0,17.73,0,26.59a1.51,1.51,0,0,1-.89,1.51c-4.61,2.62-9.19,5.32-13.81,7.92a19.6,19.6,0,0,1-20.28.11c-4.71-2.61-9.33-5.36-14-8a1.52,1.52,0,0,1-.89-1.52C1290,582.29,1289.93,577.87,1289.93,573.46Z"/><path class="cls-1" d="M1435.17,530.44q0,19.69,0,39.4c0,.37.21.89-.19,1.07-.21.09-.63-.24-.94-.41-2.75-1.61-5.53-3.19-8.25-4.85-6.44-3.95-9.86-9.74-9.89-17.29q-.12-30.45,0-60.92c0-7.5,3.33-13.42,9.81-17.21q26.47-15.45,53.1-30.64a19.26,19.26,0,0,1,20.19,0q26.46,15.17,52.82,30.49a19.15,19.15,0,0,1,10,17.42q.11,30.36,0,60.71c0,7.51-3.4,13.28-9.79,17.23-2.78,1.72-5.62,3.32-8.44,5-1.07.63-1.08.63-1.08-.64V492.42c0-.54,0-1.08,0-1.62A4.24,4.24,0,0,0,1536,487c-5.46,3-10.88,6.12-16.31,9.18q-15,8.46-30,16.94a1.64,1.64,0,0,1-1.85,0q-22.7-12.86-45.42-25.65a6,6,0,0,0-3-1.06,4.22,4.22,0,0,0-4.28,4c0,.57,0,1.14,0,1.72Z"/><path class="cls-1" d="M1463.93,573.46V560.12c0-1.13,0-1.13,1-.58q11.44,6.3,22.87,12.63a1.84,1.84,0,0,0,2.06,0c7.61-4.24,15.24-8.43,22.87-12.64,1-.55,1-.55,1,.56,0,8.86,0,17.73,0,26.59a1.51,1.51,0,0,1-.89,1.51c-4.61,2.62-9.19,5.32-13.81,7.92a19.6,19.6,0,0,1-20.28.11c-4.71-2.61-9.33-5.36-14-8a1.52,1.52,0,0,1-.89-1.52C1464,582.29,1463.93,577.87,1463.93,573.46Z"/><path class="cls-1" d="M1609.17,530.44q0,19.69,0,39.4c0,.37.21.89-.19,1.07-.21.09-.63-.24-.94-.41-2.75-1.61-5.53-3.19-8.25-4.85-6.44-3.95-9.86-9.74-9.89-17.29q-.12-30.45,0-60.92c0-7.5,3.33-13.42,9.81-17.21q26.47-15.45,53.1-30.64a19.26,19.26,0,0,1,20.19,0q26.46,15.17,52.82,30.49a19.15,19.15,0,0,1,10,17.42q.11,30.36,0,60.71c0,7.51-3.4,13.28-9.79,17.23-2.78,1.72-5.62,3.32-8.44,5-1.07.63-1.08.63-1.08-.64V492.42c0-.54,0-1.08,0-1.62A4.24,4.24,0,0,0,1710,487c-5.46,3-10.88,6.12-16.31,9.18q-15,8.46-30,16.94a1.64,1.64,0,0,1-1.85,0q-22.7-12.86-45.42-25.65a6,6,0,0,0-3-1.06,4.22,4.22,0,0,0-4.28,4c0,.57,0,1.14,0,1.72Z"/><path class="cls-1" d="M1637.93,573.46V560.12c0-1.13,0-1.13,1-.58q11.44,6.3,22.87,12.63a1.84,1.84,0,0,0,2.06,0c7.61-4.24,15.24-8.43,22.87-12.64,1-.55,1-.55,1,.56,0,8.86,0,17.73,0,26.59a1.51,1.51,0,0,1-.89,1.51c-4.61,2.62-9.19,5.32-13.81,7.92a19.6,19.6,0,0,1-20.28.11c-4.71-2.61-9.33-5.36-14-8a1.52,1.52,0,0,1-.89-1.52C1638,582.29,1637.93,577.87,1637.93,573.46Z"/><path class="cls-1" d="M1783.17,530.44q0,19.69,0,39.4c0,.37.21.89-.19,1.07-.21.09-.63-.24-.94-.41-2.75-1.61-5.53-3.19-8.25-4.85-6.44-3.95-9.86-9.74-9.89-17.29q-.12-30.45,0-60.92c0-7.5,3.33-13.42,9.81-17.21q26.47-15.45,53.1-30.64a19.26,19.26,0,0,1,20.19,0q26.46,15.17,52.82,30.49a19.15,19.15,0,0,1,10,17.42q.11,30.36,0,60.71c0,7.51-3.4,13.28-9.79,17.23-2.78,1.72-5.62,3.32-8.44,5-1.07.63-1.08.63-1.08-.64V492.42c0-.54,0-1.08,0-1.62A4.24,4.24,0,0,0,1884,487c-5.46,3-10.88,6.12-16.31,9.18q-15,8.46-30,16.94a1.64,1.64,0,0,1-1.85,0q-22.7-12.86-45.42-25.65a6,6,0,0,0-3-1.06,4.22,4.22,0,0,0-4.28,4c0,.57,0,1.14,0,1.72Z"/><path class="cls-1" d="M1811.93,573.46V560.12c0-1.13,0-1.13,1-.58q11.44,6.3,22.87,12.63a1.84,1.84,0,0,0,2.06,0c7.61-4.24,15.24-8.43,22.87-12.64,1-.55,1-.55,1,.56,0,8.86,0,17.73,0,26.59a1.51,1.51,0,0,1-.89,1.51c-4.61,2.62-9.19,5.32-13.81,7.92a19.6,19.6,0,0,1-20.28.11c-4.71-2.61-9.33-5.36-14-8a1.52,1.52,0,0,1-.89-1.52C1812,582.29,1811.93,577.87,1811.93,573.46Z"/><path class="cls-1" d="M-44.83,711.44q0,19.69,0,39.4c0,.37.21.89-.19,1.07-.21.09-.63-.24-.94-.41-2.75-1.61-5.53-3.19-8.25-4.85-6.44-3.95-9.86-9.74-9.89-17.29q-.12-30.45,0-60.92c0-7.5,3.33-13.42,9.81-17.21q26.48-15.45,53.1-30.64a19.26,19.26,0,0,1,20.19,0q26.46,15.17,52.82,30.49a19.15,19.15,0,0,1,10,17.42q.1,30.36,0,60.71c0,7.51-3.4,13.28-9.79,17.23-2.78,1.72-5.62,3.32-8.44,5-1.07.63-1.08.63-1.08-.64V673.42c0-.54,0-1.08,0-1.62A4.24,4.24,0,0,0,56,668c-5.46,3-10.88,6.12-16.31,9.18q-15,8.46-30,16.94a1.64,1.64,0,0,1-1.85,0q-22.69-12.85-45.42-25.65a6,6,0,0,0-3-1.06,4.22,4.22,0,0,0-4.28,4c0,.57,0,1.14,0,1.72Z"/><path class="cls-1" d="M-16.07,754.46V741.12c0-1.13,0-1.13,1-.58q11.45,6.3,22.87,12.63a1.84,1.84,0,0,0,2.06,0c7.61-4.24,15.24-8.43,22.87-12.64,1-.55,1-.55,1,.56,0,8.86,0,17.73,0,26.59a1.51,1.51,0,0,1-.89,1.51c-4.61,2.62-9.19,5.32-13.81,7.92a19.6,19.6,0,0,1-20.28.11c-4.71-2.61-9.33-5.36-14-8a1.52,1.52,0,0,1-.89-1.52C-16,763.29-16.07,758.87-16.07,754.46Z"/><path class="cls-1" d="M129.17,711.44q0,19.69,0,39.4c0,.37.21.89-.19,1.07-.21.09-.63-.24-.94-.41-2.75-1.61-5.53-3.19-8.25-4.85-6.44-3.95-9.86-9.74-9.89-17.29q-.12-30.45,0-60.92c0-7.5,3.33-13.42,9.81-17.21q26.47-15.45,53.1-30.64a19.26,19.26,0,0,1,20.19,0q26.46,15.17,52.82,30.49a19.15,19.15,0,0,1,10,17.42q.1,30.36,0,60.71c0,7.51-3.4,13.28-9.79,17.23-2.78,1.72-5.62,3.32-8.44,5-1.07.63-1.08.63-1.08-.64V673.42c0-.54,0-1.08,0-1.62A4.24,4.24,0,0,0,230,668c-5.46,3-10.88,6.12-16.31,9.18q-15,8.46-30,16.94a1.64,1.64,0,0,1-1.85,0q-22.69-12.85-45.42-25.65a6,6,0,0,0-3-1.06,4.22,4.22,0,0,0-4.28,4c0,.57,0,1.14,0,1.72Z"/><path class="cls-1" d="M157.93,754.46V741.12c0-1.13,0-1.13,1-.58q11.44,6.3,22.87,12.63a1.84,1.84,0,0,0,2.06,0c7.61-4.24,15.24-8.43,22.87-12.64,1-.55,1-.55,1,.56,0,8.86,0,17.73,0,26.59a1.51,1.51,0,0,1-.89,1.51c-4.61,2.62-9.19,5.32-13.81,7.92a19.6,19.6,0,0,1-20.28.11c-4.71-2.61-9.33-5.36-14-8a1.52,1.52,0,0,1-.89-1.52C158,763.29,157.93,758.87,157.93,754.46Z"/><path class="cls-1" d="M303.17,711.44q0,19.69,0,39.4c0,.37.21.89-.19,1.07-.21.09-.63-.24-.94-.41-2.75-1.61-5.53-3.19-8.25-4.85-6.44-3.95-9.86-9.74-9.89-17.29q-.12-30.45,0-60.92c0-7.5,3.33-13.42,9.81-17.21q26.48-15.45,53.1-30.64a19.26,19.26,0,0,1,20.19,0q26.46,15.17,52.82,30.49a19.15,19.15,0,0,1,10,17.42q.1,30.36,0,60.71c0,7.51-3.4,13.28-9.79,17.23-2.78,1.72-5.62,3.32-8.44,5-1.07.63-1.08.63-1.08-.64V673.42c0-.54,0-1.08,0-1.62A4.24,4.24,0,0,0,404,668c-5.46,3-10.88,6.12-16.31,9.18q-15,8.46-30,16.94a1.64,1.64,0,0,1-1.85,0q-22.69-12.85-45.42-25.65a6,6,0,0,0-3-1.06,4.22,4.22,0,0,0-4.28,4c0,.57,0,1.14,0,1.72Z"/><path class="cls-1" d="M331.93,754.46V741.12c0-1.13,0-1.13,1-.58q11.44,6.3,22.87,12.63a1.84,1.84,0,0,0,2.06,0c7.61-4.24,15.24-8.43,22.87-12.64,1-.55,1-.55,1,.56,0,8.86,0,17.73,0,26.59a1.51,1.51,0,0,1-.89,1.51c-4.61,2.62-9.19,5.32-13.81,7.92a19.6,19.6,0,0,1-20.28.11c-4.71-2.61-9.33-5.36-14-8a1.52,1.52,0,0,1-.89-1.52C332,763.29,331.93,758.87,331.93,754.46Z"/><path class="cls-1" d="M477.17,711.44q0,19.69,0,39.4c0,.37.21.89-.19,1.07-.21.09-.63-.24-.94-.41-2.75-1.61-5.53-3.19-8.25-4.85-6.44-3.95-9.86-9.74-9.89-17.29q-.12-30.45,0-60.92c0-7.5,3.33-13.42,9.81-17.21q26.48-15.45,53.1-30.64a19.26,19.26,0,0,1,20.19,0q26.46,15.17,52.82,30.49a19.15,19.15,0,0,1,10,17.42q.11,30.36,0,60.71c0,7.51-3.4,13.28-9.79,17.23-2.78,1.72-5.62,3.32-8.44,5-1.07.63-1.08.63-1.08-.64V673.42c0-.54,0-1.08,0-1.62A4.24,4.24,0,0,0,578,668c-5.46,3-10.88,6.12-16.31,9.18q-15,8.46-30,16.94a1.64,1.64,0,0,1-1.85,0q-22.69-12.85-45.42-25.65a6,6,0,0,0-3-1.06,4.22,4.22,0,0,0-4.28,4c0,.57,0,1.14,0,1.72Z"/><path class="cls-1" d="M505.93,754.46V741.12c0-1.13,0-1.13,1-.58q11.45,6.3,22.87,12.63a1.84,1.84,0,0,0,2.06,0c7.61-4.24,15.24-8.43,22.87-12.64,1-.55,1-.55,1,.56,0,8.86,0,17.73,0,26.59a1.51,1.51,0,0,1-.89,1.51c-4.61,2.62-9.19,5.32-13.81,7.92a19.6,19.6,0,0,1-20.28.11c-4.71-2.61-9.33-5.36-14-8a1.52,1.52,0,0,1-.89-1.52C506,763.29,505.93,758.87,505.93,754.46Z"/><path class="cls-1" d="M651.17,711.44q0,19.69,0,39.4c0,.37.21.89-.19,1.07-.21.09-.63-.24-.94-.41-2.75-1.61-5.53-3.19-8.25-4.85-6.44-3.95-9.86-9.74-9.89-17.29q-.12-30.45,0-60.92c0-7.5,3.33-13.42,9.81-17.21q26.47-15.45,53.1-30.64a19.26,19.26,0,0,1,20.19,0q26.46,15.17,52.82,30.49a19.15,19.15,0,0,1,10,17.42q.11,30.36,0,60.71c0,7.51-3.4,13.28-9.79,17.23-2.78,1.72-5.62,3.32-8.44,5-1.07.63-1.08.63-1.08-.64V673.42c0-.54,0-1.08,0-1.62A4.24,4.24,0,0,0,752,668c-5.46,3-10.88,6.12-16.31,9.18q-15,8.46-30,16.94a1.64,1.64,0,0,1-1.85,0q-22.7-12.85-45.42-25.65a6,6,0,0,0-3-1.06,4.22,4.22,0,0,0-4.28,4c0,.57,0,1.14,0,1.72Z"/><path class="cls-1" d="M679.93,754.46V741.12c0-1.13,0-1.13,1-.58q11.44,6.3,22.87,12.63a1.84,1.84,0,0,0,2.06,0c7.61-4.24,15.24-8.43,22.87-12.64,1-.55,1-.55,1,.56,0,8.86,0,17.73,0,26.59a1.51,1.51,0,0,1-.89,1.51c-4.61,2.62-9.19,5.32-13.81,7.92a19.6,19.6,0,0,1-20.28.11c-4.71-2.61-9.33-5.36-14-8a1.52,1.52,0,0,1-.89-1.52C680,763.29,679.93,758.87,679.93,754.46Z"/><path class="cls-1" d="M825.17,711.44q0,19.69,0,39.4c0,.37.21.89-.19,1.07-.21.09-.63-.24-.94-.41-2.75-1.61-5.53-3.19-8.25-4.85-6.44-3.95-9.86-9.74-9.89-17.29q-.12-30.45,0-60.92c0-7.5,3.33-13.42,9.81-17.21q26.47-15.45,53.1-30.64a19.26,19.26,0,0,1,20.19,0q26.46,15.17,52.82,30.49a19.15,19.15,0,0,1,10,17.42q.11,30.36,0,60.71c0,7.51-3.4,13.28-9.79,17.23-2.78,1.72-5.62,3.32-8.44,5-1.07.63-1.08.63-1.08-.64V673.42c0-.54,0-1.08,0-1.62A4.24,4.24,0,0,0,926,668c-5.46,3-10.88,6.12-16.31,9.18q-15,8.46-30,16.94a1.64,1.64,0,0,1-1.85,0q-22.7-12.85-45.42-25.65a6,6,0,0,0-3-1.06,4.22,4.22,0,0,0-4.28,4c0,.57,0,1.14,0,1.72Z"/><path class="cls-1" d="M853.93,754.46V741.12c0-1.13,0-1.13,1-.58q11.44,6.3,22.87,12.63a1.84,1.84,0,0,0,2.06,0c7.61-4.24,15.24-8.43,22.87-12.64,1-.55,1-.55,1,.56,0,8.86,0,17.73,0,26.59a1.51,1.51,0,0,1-.89,1.51c-4.61,2.62-9.19,5.32-13.81,7.92a19.6,19.6,0,0,1-20.28.11c-4.71-2.61-9.33-5.36-14-8a1.52,1.52,0,0,1-.89-1.52C854,763.29,853.93,758.87,853.93,754.46Z"/><path class="cls-1" d="M999.17,711.44q0,19.69,0,39.4c0,.37.21.89-.19,1.07-.21.09-.63-.24-.94-.41-2.75-1.61-5.53-3.19-8.25-4.85-6.44-3.95-9.86-9.74-9.89-17.29q-.12-30.45,0-60.92c0-7.5,3.33-13.42,9.81-17.21q26.47-15.45,53.1-30.64a19.26,19.26,0,0,1,20.19,0q26.46,15.17,52.82,30.49a19.15,19.15,0,0,1,10,17.42q.11,30.36,0,60.71c0,7.51-3.4,13.28-9.79,17.23-2.78,1.72-5.62,3.32-8.44,5-1.07.63-1.08.63-1.08-.64V673.42c0-.54,0-1.08,0-1.62A4.24,4.24,0,0,0,1100,668c-5.46,3-10.88,6.12-16.31,9.18q-15,8.46-30,16.94a1.64,1.64,0,0,1-1.85,0q-22.7-12.85-45.42-25.65a6,6,0,0,0-3-1.06,4.22,4.22,0,0,0-4.28,4c0,.57,0,1.14,0,1.72Z"/><path class="cls-1" d="M1027.93,754.46V741.12c0-1.13,0-1.13,1-.58q11.44,6.3,22.87,12.63a1.84,1.84,0,0,0,2.06,0c7.61-4.24,15.24-8.43,22.87-12.64,1-.55,1-.55,1,.56,0,8.86,0,17.73,0,26.59a1.51,1.51,0,0,1-.89,1.51c-4.61,2.62-9.19,5.32-13.81,7.92a19.6,19.6,0,0,1-20.28.11c-4.71-2.61-9.33-5.36-14-8a1.52,1.52,0,0,1-.89-1.52C1028,763.29,1027.93,758.87,1027.93,754.46Z"/><path class="cls-1" d="M1173.17,711.44q0,19.69,0,39.4c0,.37.21.89-.19,1.07-.21.09-.63-.24-.94-.41-2.75-1.61-5.53-3.19-8.25-4.85-6.44-3.95-9.86-9.74-9.89-17.29q-.12-30.45,0-60.92c0-7.5,3.33-13.42,9.81-17.21q26.47-15.45,53.1-30.64a19.26,19.26,0,0,1,20.19,0q26.46,15.17,52.82,30.49a19.15,19.15,0,0,1,10,17.42q.11,30.36,0,60.71c0,7.51-3.4,13.28-9.79,17.23-2.78,1.72-5.62,3.32-8.44,5-1.07.63-1.08.63-1.08-.64V673.42c0-.54,0-1.08,0-1.62A4.24,4.24,0,0,0,1274,668c-5.46,3-10.88,6.12-16.31,9.18q-15,8.46-30,16.94a1.64,1.64,0,0,1-1.85,0q-22.7-12.85-45.42-25.65a6,6,0,0,0-3-1.06,4.22,4.22,0,0,0-4.28,4c0,.57,0,1.14,0,1.72Z"/><path class="cls-1" d="M1201.93,754.46V741.12c0-1.13,0-1.13,1-.58q11.44,6.3,22.87,12.63a1.84,1.84,0,0,0,2.06,0c7.61-4.24,15.24-8.43,22.87-12.64,1-.55,1-.55,1,.56,0,8.86,0,17.73,0,26.59a1.51,1.51,0,0,1-.89,1.51c-4.61,2.62-9.19,5.32-13.81,7.92a19.6,19.6,0,0,1-20.28.11c-4.71-2.61-9.33-5.36-14-8a1.52,1.52,0,0,1-.89-1.52C1202,763.29,1201.93,758.87,1201.93,754.46Z"/><path class="cls-1" d="M1347.17,711.44q0,19.69,0,39.4c0,.37.21.89-.19,1.07-.21.09-.63-.24-.94-.41-2.75-1.61-5.53-3.19-8.25-4.85-6.44-3.95-9.86-9.74-9.89-17.29q-.12-30.45,0-60.92c0-7.5,3.33-13.42,9.81-17.21q26.47-15.45,53.1-30.64a19.26,19.26,0,0,1,20.19,0q26.46,15.17,52.82,30.49a19.15,19.15,0,0,1,10,17.42q.11,30.36,0,60.71c0,7.51-3.4,13.28-9.79,17.23-2.78,1.72-5.62,3.32-8.44,5-1.07.63-1.08.63-1.08-.64V673.42c0-.54,0-1.08,0-1.62A4.24,4.24,0,0,0,1448,668c-5.46,3-10.88,6.12-16.31,9.18q-15,8.46-30,16.94a1.64,1.64,0,0,1-1.85,0q-22.7-12.85-45.42-25.65a6,6,0,0,0-3-1.06,4.22,4.22,0,0,0-4.28,4c0,.57,0,1.14,0,1.72Z"/><path class="cls-1" d="M1375.93,754.46V741.12c0-1.13,0-1.13,1-.58q11.44,6.3,22.87,12.63a1.84,1.84,0,0,0,2.06,0c7.61-4.24,15.24-8.43,22.87-12.64,1-.55,1-.55,1,.56,0,8.86,0,17.73,0,26.59a1.51,1.51,0,0,1-.89,1.51c-4.61,2.62-9.19,5.32-13.81,7.92a19.6,19.6,0,0,1-20.28.11c-4.71-2.61-9.33-5.36-14-8a1.52,1.52,0,0,1-.89-1.52C1376,763.29,1375.93,758.87,1375.93,754.46Z"/><path class="cls-1" d="M1521.17,711.44q0,19.69,0,39.4c0,.37.21.89-.19,1.07-.21.09-.63-.24-.94-.41-2.75-1.61-5.53-3.19-8.25-4.85-6.44-3.95-9.86-9.74-9.89-17.29q-.12-30.45,0-60.92c0-7.5,3.33-13.42,9.81-17.21q26.47-15.45,53.1-30.64a19.26,19.26,0,0,1,20.19,0q26.46,15.17,52.82,30.49a19.15,19.15,0,0,1,10,17.42q.11,30.36,0,60.71c0,7.51-3.4,13.28-9.79,17.23-2.78,1.72-5.62,3.32-8.44,5-1.07.63-1.08.63-1.08-.64V673.42c0-.54,0-1.08,0-1.62A4.24,4.24,0,0,0,1622,668c-5.46,3-10.88,6.12-16.31,9.18q-15,8.46-30,16.94a1.64,1.64,0,0,1-1.85,0q-22.7-12.85-45.42-25.65a6,6,0,0,0-3-1.06,4.22,4.22,0,0,0-4.28,4c0,.57,0,1.14,0,1.72Z"/><path class="cls-1" d="M1549.93,754.46V741.12c0-1.13,0-1.13,1-.58q11.44,6.3,22.87,12.63a1.84,1.84,0,0,0,2.06,0c7.61-4.24,15.24-8.43,22.87-12.64,1-.55,1-.55,1,.56,0,8.86,0,17.73,0,26.59a1.51,1.51,0,0,1-.89,1.51c-4.61,2.62-9.19,5.32-13.81,7.92a19.6,19.6,0,0,1-20.28.11c-4.71-2.61-9.33-5.36-14-8a1.52,1.52,0,0,1-.89-1.52C1550,763.29,1549.93,758.87,1549.93,754.46Z"/><path class="cls-1" d="M1695.17,711.44q0,19.69,0,39.4c0,.37.21.89-.19,1.07-.21.09-.63-.24-.94-.41-2.75-1.61-5.53-3.19-8.25-4.85-6.44-3.95-9.86-9.74-9.89-17.29q-.12-30.45,0-60.92c0-7.5,3.33-13.42,9.81-17.21q26.47-15.45,53.1-30.64a19.26,19.26,0,0,1,20.19,0q26.46,15.17,52.82,30.49a19.15,19.15,0,0,1,10,17.42q.11,30.36,0,60.71c0,7.51-3.4,13.28-9.79,17.23-2.78,1.72-5.62,3.32-8.44,5-1.07.63-1.08.63-1.08-.64V673.42c0-.54,0-1.08,0-1.62A4.24,4.24,0,0,0,1796,668c-5.46,3-10.88,6.12-16.31,9.18q-15,8.46-30,16.94a1.64,1.64,0,0,1-1.85,0q-22.7-12.85-45.42-25.65a6,6,0,0,0-3-1.06,4.22,4.22,0,0,0-4.28,4c0,.57,0,1.14,0,1.72Z"/><path class="cls-1" d="M1723.93,754.46V741.12c0-1.13,0-1.13,1-.58q11.44,6.3,22.87,12.63a1.84,1.84,0,0,0,2.06,0c7.61-4.24,15.24-8.43,22.87-12.64,1-.55,1-.55,1,.56,0,8.86,0,17.73,0,26.59a1.51,1.51,0,0,1-.89,1.51c-4.61,2.62-9.19,5.32-13.81,7.92a19.6,19.6,0,0,1-20.28.11c-4.71-2.61-9.33-5.36-14-8a1.52,1.52,0,0,1-.89-1.52C1724,763.29,1723.93,758.87,1723.93,754.46Z"/><path class="cls-1" d="M1869.17,711.44q0,19.69,0,39.4c0,.37.21.89-.19,1.07-.21.09-.63-.24-.94-.41-2.75-1.61-5.53-3.19-8.25-4.85-6.44-3.95-9.86-9.74-9.89-17.29q-.12-30.45,0-60.92c0-7.5,3.33-13.42,9.81-17.21q26.47-15.45,53.1-30.64a19.26,19.26,0,0,1,20.19,0q26.46,15.17,52.82,30.49a19.15,19.15,0,0,1,10,17.42q.11,30.36,0,60.71c0,7.51-3.4,13.28-9.79,17.23-2.78,1.72-5.62,3.32-8.44,5-1.07.63-1.08.63-1.08-.64V673.42c0-.54,0-1.08,0-1.62A4.24,4.24,0,0,0,1970,668c-5.46,3-10.88,6.12-16.31,9.18q-15,8.46-30,16.94a1.64,1.64,0,0,1-1.85,0q-22.7-12.85-45.42-25.65a6,6,0,0,0-3-1.06,4.22,4.22,0,0,0-4.28,4c0,.57,0,1.14,0,1.72Z"/><path class="cls-1" d="M1897.93,754.46V741.12c0-1.13,0-1.13,1-.58q11.44,6.3,22.87,12.63a1.84,1.84,0,0,0,2.06,0c7.61-4.24,15.24-8.43,22.87-12.64,1-.55,1-.55,1,.56,0,8.86,0,17.73,0,26.59a1.51,1.51,0,0,1-.89,1.51c-4.61,2.62-9.19,5.32-13.81,7.92a19.6,19.6,0,0,1-20.28.11c-4.71-2.61-9.33-5.36-14-8a1.52,1.52,0,0,1-.89-1.52C1898,763.29,1897.93,758.87,1897.93,754.46Z"/><path class="cls-1" d="M43.17,886.44q0,19.69,0,39.4c0,.37.21.89-.19,1.07-.21.09-.63-.24-.94-.41-2.75-1.61-5.53-3.19-8.25-4.85-6.44-3.95-9.86-9.74-9.89-17.29q-.12-30.45,0-60.92c0-7.5,3.33-13.42,9.81-17.21q26.47-15.45,53.1-30.64a19.26,19.26,0,0,1,20.19,0q26.46,15.17,52.82,30.49a19.15,19.15,0,0,1,10,17.42q.1,30.36,0,60.71c0,7.51-3.4,13.28-9.79,17.23-2.78,1.72-5.62,3.32-8.44,5-1.07.63-1.08.63-1.08-.64V848.42c0-.54,0-1.08,0-1.62A4.24,4.24,0,0,0,144,843c-5.46,3-10.88,6.12-16.31,9.18q-15,8.46-30,16.94a1.64,1.64,0,0,1-1.85,0q-22.7-12.85-45.42-25.65a6,6,0,0,0-3-1.06,4.22,4.22,0,0,0-4.28,4c0,.57,0,1.14,0,1.72Z"/><path class="cls-1" d="M71.93,929.46V916.12c0-1.13,0-1.13,1-.58q11.44,6.3,22.87,12.63a1.84,1.84,0,0,0,2.06,0c7.61-4.24,15.24-8.43,22.87-12.64,1-.55,1-.55,1,.56,0,8.86,0,17.73,0,26.59a1.51,1.51,0,0,1-.89,1.51c-4.61,2.62-9.19,5.32-13.81,7.92a19.6,19.6,0,0,1-20.28.11c-4.71-2.61-9.33-5.36-14-8a1.52,1.52,0,0,1-.89-1.52C72,938.29,71.93,933.87,71.93,929.46Z"/><path class="cls-1" d="M217.17,886.44q0,19.69,0,39.4c0,.37.21.89-.19,1.07-.21.09-.63-.24-.94-.41-2.75-1.61-5.53-3.19-8.25-4.85-6.44-3.95-9.86-9.74-9.89-17.29q-.12-30.45,0-60.92c0-7.5,3.33-13.42,9.81-17.21q26.48-15.45,53.1-30.64a19.26,19.26,0,0,1,20.19,0q26.46,15.17,52.82,30.49a19.15,19.15,0,0,1,10,17.42q.1,30.36,0,60.71c0,7.51-3.4,13.28-9.79,17.23-2.78,1.72-5.62,3.32-8.44,5-1.07.63-1.08.63-1.08-.64V848.42c0-.54,0-1.08,0-1.62A4.24,4.24,0,0,0,318,843c-5.46,3-10.88,6.12-16.31,9.18q-15,8.46-30,16.94a1.64,1.64,0,0,1-1.85,0q-22.69-12.85-45.42-25.65a6,6,0,0,0-3-1.06,4.22,4.22,0,0,0-4.28,4c0,.57,0,1.14,0,1.72Z"/><path class="cls-1" d="M245.93,929.46V916.12c0-1.13,0-1.13,1-.58q11.44,6.3,22.87,12.63a1.84,1.84,0,0,0,2.06,0c7.61-4.24,15.24-8.43,22.87-12.64,1-.55,1-.55,1,.56,0,8.86,0,17.73,0,26.59a1.51,1.51,0,0,1-.89,1.51c-4.61,2.62-9.19,5.32-13.81,7.92a19.6,19.6,0,0,1-20.28.11c-4.71-2.61-9.33-5.36-14-8a1.52,1.52,0,0,1-.89-1.52C246,938.29,245.93,933.87,245.93,929.46Z"/><path class="cls-1" d="M391.17,886.44q0,19.69,0,39.4c0,.37.21.89-.19,1.07-.21.09-.63-.24-.94-.41-2.75-1.61-5.53-3.19-8.25-4.85-6.44-3.95-9.86-9.74-9.89-17.29q-.12-30.45,0-60.92c0-7.5,3.33-13.42,9.81-17.21q26.48-15.45,53.1-30.64a19.26,19.26,0,0,1,20.19,0q26.46,15.17,52.82,30.49a19.15,19.15,0,0,1,10,17.42q.11,30.36,0,60.71c0,7.51-3.4,13.28-9.79,17.23-2.78,1.72-5.62,3.32-8.44,5-1.07.63-1.08.63-1.08-.64V848.42c0-.54,0-1.08,0-1.62A4.24,4.24,0,0,0,492,843c-5.46,3-10.88,6.12-16.31,9.18q-15,8.46-30,16.94a1.64,1.64,0,0,1-1.85,0q-22.69-12.85-45.42-25.65a6,6,0,0,0-3-1.06,4.22,4.22,0,0,0-4.28,4c0,.57,0,1.14,0,1.72Z"/><path class="cls-1" d="M419.93,929.46V916.12c0-1.13,0-1.13,1-.58q11.44,6.3,22.87,12.63a1.84,1.84,0,0,0,2.06,0c7.61-4.24,15.24-8.43,22.87-12.64,1-.55,1-.55,1,.56,0,8.86,0,17.73,0,26.59a1.51,1.51,0,0,1-.89,1.51c-4.61,2.62-9.19,5.32-13.81,7.92a19.6,19.6,0,0,1-20.28.11c-4.71-2.61-9.33-5.36-14-8a1.52,1.52,0,0,1-.89-1.52C420,938.29,419.93,933.87,419.93,929.46Z"/><path class="cls-1" d="M565.17,886.44q0,19.69,0,39.4c0,.37.21.89-.19,1.07-.21.09-.63-.24-.94-.41-2.75-1.61-5.53-3.19-8.25-4.85-6.44-3.95-9.86-9.74-9.89-17.29q-.12-30.45,0-60.92c0-7.5,3.33-13.42,9.81-17.21q26.47-15.45,53.1-30.64a19.26,19.26,0,0,1,20.19,0q26.46,15.17,52.82,30.49a19.15,19.15,0,0,1,10,17.42q.11,30.36,0,60.71c0,7.51-3.4,13.28-9.79,17.23-2.78,1.72-5.62,3.32-8.44,5-1.07.63-1.08.63-1.08-.64V848.42c0-.54,0-1.08,0-1.62A4.24,4.24,0,0,0,666,843c-5.46,3-10.88,6.12-16.31,9.18q-15,8.46-30,16.94a1.64,1.64,0,0,1-1.85,0q-22.7-12.85-45.42-25.65a6,6,0,0,0-3-1.06,4.22,4.22,0,0,0-4.28,4c0,.57,0,1.14,0,1.72Z"/><path class="cls-1" d="M593.93,929.46V916.12c0-1.13,0-1.13,1-.58q11.44,6.3,22.87,12.63a1.84,1.84,0,0,0,2.06,0c7.61-4.24,15.24-8.43,22.87-12.64,1-.55,1-.55,1,.56,0,8.86,0,17.73,0,26.59a1.51,1.51,0,0,1-.89,1.51c-4.61,2.62-9.19,5.32-13.81,7.92a19.6,19.6,0,0,1-20.28.11c-4.71-2.61-9.33-5.36-14-8a1.52,1.52,0,0,1-.89-1.52C594,938.29,593.93,933.87,593.93,929.46Z"/><path class="cls-1" d="M739.17,886.44q0,19.69,0,39.4c0,.37.21.89-.19,1.07-.21.09-.63-.24-.94-.41-2.75-1.61-5.53-3.19-8.25-4.85-6.44-3.95-9.86-9.74-9.89-17.29q-.12-30.45,0-60.92c0-7.5,3.33-13.42,9.81-17.21q26.47-15.45,53.1-30.64a19.26,19.26,0,0,1,20.19,0q26.46,15.17,52.82,30.49a19.15,19.15,0,0,1,10,17.42q.11,30.36,0,60.71c0,7.51-3.4,13.28-9.79,17.23-2.78,1.72-5.62,3.32-8.44,5-1.07.63-1.08.63-1.08-.64V848.42c0-.54,0-1.08,0-1.62A4.24,4.24,0,0,0,840,843c-5.46,3-10.88,6.12-16.31,9.18q-15,8.46-30,16.94a1.64,1.64,0,0,1-1.85,0q-22.7-12.85-45.42-25.65a6,6,0,0,0-3-1.06,4.22,4.22,0,0,0-4.28,4c0,.57,0,1.14,0,1.72Z"/><path class="cls-1" d="M767.93,929.46V916.12c0-1.13,0-1.13,1-.58q11.44,6.3,22.87,12.63a1.84,1.84,0,0,0,2.06,0c7.61-4.24,15.24-8.43,22.87-12.64,1-.55,1-.55,1,.56,0,8.86,0,17.73,0,26.59a1.51,1.51,0,0,1-.89,1.51c-4.61,2.62-9.19,5.32-13.81,7.92a19.6,19.6,0,0,1-20.28.11c-4.71-2.61-9.33-5.36-14-8a1.52,1.52,0,0,1-.89-1.52C768,938.29,767.93,933.87,767.93,929.46Z"/><path class="cls-1" d="M913.17,886.44q0,19.69,0,39.4c0,.37.21.89-.19,1.07-.21.09-.63-.24-.94-.41-2.75-1.61-5.53-3.19-8.25-4.85-6.44-3.95-9.86-9.74-9.89-17.29q-.12-30.45,0-60.92c0-7.5,3.33-13.42,9.81-17.21q26.47-15.45,53.1-30.64a19.26,19.26,0,0,1,20.19,0q26.46,15.17,52.82,30.49a19.15,19.15,0,0,1,10,17.42q.11,30.36,0,60.71c0,7.51-3.4,13.28-9.79,17.23-2.78,1.72-5.62,3.32-8.44,5-1.07.63-1.08.63-1.08-.64V848.42c0-.54,0-1.08,0-1.62A4.24,4.24,0,0,0,1014,843c-5.46,3-10.88,6.12-16.31,9.18q-15,8.46-30,16.94a1.64,1.64,0,0,1-1.85,0q-22.7-12.85-45.42-25.65a6,6,0,0,0-3-1.06,4.22,4.22,0,0,0-4.28,4c0,.57,0,1.14,0,1.72Z"/><path class="cls-1" d="M941.93,929.46V916.12c0-1.13,0-1.13,1-.58q11.44,6.3,22.87,12.63a1.84,1.84,0,0,0,2.06,0c7.61-4.24,15.24-8.43,22.87-12.64,1-.55,1-.55,1,.56,0,8.86,0,17.73,0,26.59a1.51,1.51,0,0,1-.89,1.51c-4.61,2.62-9.19,5.32-13.81,7.92a19.6,19.6,0,0,1-20.28.11c-4.71-2.61-9.33-5.36-14-8a1.52,1.52,0,0,1-.89-1.52C942,938.29,941.93,933.87,941.93,929.46Z"/><path class="cls-1" d="M1087.17,886.44q0,19.69,0,39.4c0,.37.21.89-.19,1.07-.21.09-.63-.24-.94-.41-2.75-1.61-5.53-3.19-8.25-4.85-6.44-3.95-9.86-9.74-9.89-17.29q-.12-30.45,0-60.92c0-7.5,3.33-13.42,9.81-17.21q26.47-15.45,53.1-30.64a19.26,19.26,0,0,1,20.19,0q26.46,15.17,52.82,30.49a19.15,19.15,0,0,1,10,17.42q.11,30.36,0,60.71c0,7.51-3.4,13.28-9.79,17.23-2.78,1.72-5.62,3.32-8.44,5-1.07.63-1.08.63-1.08-.64V848.42c0-.54,0-1.08,0-1.62A4.24,4.24,0,0,0,1188,843c-5.46,3-10.88,6.12-16.31,9.18q-15,8.46-30,16.94a1.64,1.64,0,0,1-1.85,0q-22.7-12.85-45.42-25.65a6,6,0,0,0-3-1.06,4.22,4.22,0,0,0-4.28,4c0,.57,0,1.14,0,1.72Z"/><path class="cls-1" d="M1115.93,929.46V916.12c0-1.13,0-1.13,1-.58q11.44,6.3,22.87,12.63a1.84,1.84,0,0,0,2.06,0c7.61-4.24,15.24-8.43,22.87-12.64,1-.55,1-.55,1,.56,0,8.86,0,17.73,0,26.59a1.51,1.51,0,0,1-.89,1.51c-4.61,2.62-9.19,5.32-13.81,7.92a19.6,19.6,0,0,1-20.28.11c-4.71-2.61-9.33-5.36-14-8a1.52,1.52,0,0,1-.89-1.52C1116,938.29,1115.93,933.87,1115.93,929.46Z"/><path class="cls-1" d="M1261.17,886.44q0,19.69,0,39.4c0,.37.21.89-.19,1.07-.21.09-.63-.24-.94-.41-2.75-1.61-5.53-3.19-8.25-4.85-6.44-3.95-9.86-9.74-9.89-17.29q-.12-30.45,0-60.92c0-7.5,3.33-13.42,9.81-17.21q26.47-15.45,53.1-30.64a19.26,19.26,0,0,1,20.19,0q26.46,15.17,52.82,30.49a19.15,19.15,0,0,1,10,17.42q.11,30.36,0,60.71c0,7.51-3.4,13.28-9.79,17.23-2.78,1.72-5.62,3.32-8.44,5-1.07.63-1.08.63-1.08-.64V848.42c0-.54,0-1.08,0-1.62A4.24,4.24,0,0,0,1362,843c-5.46,3-10.88,6.12-16.31,9.18q-15,8.46-30,16.94a1.64,1.64,0,0,1-1.85,0q-22.7-12.85-45.42-25.65a6,6,0,0,0-3-1.06,4.22,4.22,0,0,0-4.28,4c0,.57,0,1.14,0,1.72Z"/><path class="cls-1" d="M1289.93,929.46V916.12c0-1.13,0-1.13,1-.58q11.44,6.3,22.87,12.63a1.84,1.84,0,0,0,2.06,0c7.61-4.24,15.24-8.43,22.87-12.64,1-.55,1-.55,1,.56,0,8.86,0,17.73,0,26.59a1.51,1.51,0,0,1-.89,1.51c-4.61,2.62-9.19,5.32-13.81,7.92a19.6,19.6,0,0,1-20.28.11c-4.71-2.61-9.33-5.36-14-8a1.52,1.52,0,0,1-.89-1.52C1290,938.29,1289.93,933.87,1289.93,929.46Z"/><path class="cls-1" d="M1435.17,886.44q0,19.69,0,39.4c0,.37.21.89-.19,1.07-.21.09-.63-.24-.94-.41-2.75-1.61-5.53-3.19-8.25-4.85-6.44-3.95-9.86-9.74-9.89-17.29q-.12-30.45,0-60.92c0-7.5,3.33-13.42,9.81-17.21q26.47-15.45,53.1-30.64a19.26,19.26,0,0,1,20.19,0q26.46,15.17,52.82,30.49a19.15,19.15,0,0,1,10,17.42q.11,30.36,0,60.71c0,7.51-3.4,13.28-9.79,17.23-2.78,1.72-5.62,3.32-8.44,5-1.07.63-1.08.63-1.08-.64V848.42c0-.54,0-1.08,0-1.62A4.24,4.24,0,0,0,1536,843c-5.46,3-10.88,6.12-16.31,9.18q-15,8.46-30,16.94a1.64,1.64,0,0,1-1.85,0q-22.7-12.85-45.42-25.65a6,6,0,0,0-3-1.06,4.22,4.22,0,0,0-4.28,4c0,.57,0,1.14,0,1.72Z"/><path class="cls-1" d="M1463.93,929.46V916.12c0-1.13,0-1.13,1-.58q11.44,6.3,22.87,12.63a1.84,1.84,0,0,0,2.06,0c7.61-4.24,15.24-8.43,22.87-12.64,1-.55,1-.55,1,.56,0,8.86,0,17.73,0,26.59a1.51,1.51,0,0,1-.89,1.51c-4.61,2.62-9.19,5.32-13.81,7.92a19.6,19.6,0,0,1-20.28.11c-4.71-2.61-9.33-5.36-14-8a1.52,1.52,0,0,1-.89-1.52C1464,938.29,1463.93,933.87,1463.93,929.46Z"/><path class="cls-1" d="M1609.17,886.44q0,19.69,0,39.4c0,.37.21.89-.19,1.07-.21.09-.63-.24-.94-.41-2.75-1.61-5.53-3.19-8.25-4.85-6.44-3.95-9.86-9.74-9.89-17.29q-.12-30.45,0-60.92c0-7.5,3.33-13.42,9.81-17.21q26.47-15.45,53.1-30.64a19.26,19.26,0,0,1,20.19,0q26.46,15.17,52.82,30.49a19.15,19.15,0,0,1,10,17.42q.11,30.36,0,60.71c0,7.51-3.4,13.28-9.79,17.23-2.78,1.72-5.62,3.32-8.44,5-1.07.63-1.08.63-1.08-.64V848.42c0-.54,0-1.08,0-1.62A4.24,4.24,0,0,0,1710,843c-5.46,3-10.88,6.12-16.31,9.18q-15,8.46-30,16.94a1.64,1.64,0,0,1-1.85,0q-22.7-12.85-45.42-25.65a6,6,0,0,0-3-1.06,4.22,4.22,0,0,0-4.28,4c0,.57,0,1.14,0,1.72Z"/><path class="cls-1" d="M1637.93,929.46V916.12c0-1.13,0-1.13,1-.58q11.44,6.3,22.87,12.63a1.84,1.84,0,0,0,2.06,0c7.61-4.24,15.24-8.43,22.87-12.64,1-.55,1-.55,1,.56,0,8.86,0,17.73,0,26.59a1.51,1.51,0,0,1-.89,1.51c-4.61,2.62-9.19,5.32-13.81,7.92a19.6,19.6,0,0,1-20.28.11c-4.71-2.61-9.33-5.36-14-8a1.52,1.52,0,0,1-.89-1.52C1638,938.29,1637.93,933.87,1637.93,929.46Z"/><path class="cls-1" d="M1783.17,886.44q0,19.69,0,39.4c0,.37.21.89-.19,1.07-.21.09-.63-.24-.94-.41-2.75-1.61-5.53-3.19-8.25-4.85-6.44-3.95-9.86-9.74-9.89-17.29q-.12-30.45,0-60.92c0-7.5,3.33-13.42,9.81-17.21q26.47-15.45,53.1-30.64a19.26,19.26,0,0,1,20.19,0q26.46,15.17,52.82,30.49a19.15,19.15,0,0,1,10,17.42q.11,30.36,0,60.71c0,7.51-3.4,13.28-9.79,17.23-2.78,1.72-5.62,3.32-8.44,5-1.07.63-1.08.63-1.08-.64V848.42c0-.54,0-1.08,0-1.62A4.24,4.24,0,0,0,1884,843c-5.46,3-10.88,6.12-16.31,9.18q-15,8.46-30,16.94a1.64,1.64,0,0,1-1.85,0q-22.7-12.85-45.42-25.65a6,6,0,0,0-3-1.06,4.22,4.22,0,0,0-4.28,4c0,.57,0,1.14,0,1.72Z"/><path class="cls-1" d="M1811.93,929.46V916.12c0-1.13,0-1.13,1-.58q11.44,6.3,22.87,12.63a1.84,1.84,0,0,0,2.06,0c7.61-4.24,15.24-8.43,22.87-12.64,1-.55,1-.55,1,.56,0,8.86,0,17.73,0,26.59a1.51,1.51,0,0,1-.89,1.51c-4.61,2.62-9.19,5.32-13.81,7.92a19.6,19.6,0,0,1-20.28.11c-4.71-2.61-9.33-5.36-14-8a1.52,1.52,0,0,1-.89-1.52C1812,938.29,1811.93,933.87,1811.93,929.46Z"/><path class="cls-1" d="M-44.83,1059.44q0,19.69,0,39.4c0,.37.21.89-.19,1.07-.21.09-.63-.24-.94-.41-2.75-1.61-5.53-3.19-8.25-4.85-6.44-4-9.86-9.74-9.89-17.29q-.12-30.45,0-60.92c0-7.5,3.33-13.42,9.81-17.21q26.48-15.45,53.1-30.64a19.26,19.26,0,0,1,20.19,0q26.46,15.17,52.82,30.49a19.15,19.15,0,0,1,10,17.42q.1,30.36,0,60.71c0,7.51-3.4,13.28-9.79,17.23-2.78,1.72-5.62,3.32-8.44,5-1.07.63-1.08.63-1.08-.64v-77.39c0-.54,0-1.08,0-1.62A4.24,4.24,0,0,0,56,1016c-5.46,3-10.88,6.12-16.31,9.18q-15,8.46-30,16.94a1.64,1.64,0,0,1-1.85,0q-22.69-12.86-45.42-25.65a6,6,0,0,0-3-1.06,4.22,4.22,0,0,0-4.28,4c0,.57,0,1.14,0,1.72Z"/><path class="cls-1" d="M129.17,1059.44q0,19.69,0,39.4c0,.37.21.89-.19,1.07-.21.09-.63-.24-.94-.41-2.75-1.61-5.53-3.19-8.25-4.85-6.44-4-9.86-9.74-9.89-17.29q-.12-30.45,0-60.92c0-7.5,3.33-13.42,9.81-17.21q26.47-15.45,53.1-30.64a19.26,19.26,0,0,1,20.19,0q26.46,15.17,52.82,30.49a19.15,19.15,0,0,1,10,17.42q.1,30.36,0,60.71c0,7.51-3.4,13.28-9.79,17.23-2.78,1.72-5.62,3.32-8.44,5-1.07.63-1.08.63-1.08-.64v-77.39c0-.54,0-1.08,0-1.62A4.24,4.24,0,0,0,230,1016c-5.46,3-10.88,6.12-16.31,9.18q-15,8.46-30,16.94a1.64,1.64,0,0,1-1.85,0q-22.69-12.86-45.42-25.65a6,6,0,0,0-3-1.06,4.22,4.22,0,0,0-4.28,4c0,.57,0,1.14,0,1.72Z"/><path class="cls-1" d="M303.17,1059.44q0,19.69,0,39.4c0,.37.21.89-.19,1.07-.21.09-.63-.24-.94-.41-2.75-1.61-5.53-3.19-8.25-4.85-6.44-4-9.86-9.74-9.89-17.29q-.12-30.45,0-60.92c0-7.5,3.33-13.42,9.81-17.21q26.48-15.45,53.1-30.64a19.26,19.26,0,0,1,20.19,0q26.46,15.17,52.82,30.49a19.15,19.15,0,0,1,10,17.42q.1,30.36,0,60.71c0,7.51-3.4,13.28-9.79,17.23-2.78,1.72-5.62,3.32-8.44,5-1.07.63-1.08.63-1.08-.64v-77.39c0-.54,0-1.08,0-1.62A4.24,4.24,0,0,0,404,1016c-5.46,3-10.88,6.12-16.31,9.18q-15,8.46-30,16.94a1.64,1.64,0,0,1-1.85,0q-22.69-12.86-45.42-25.65a6,6,0,0,0-3-1.06,4.22,4.22,0,0,0-4.28,4c0,.57,0,1.14,0,1.72Z"/><path class="cls-1" d="M477.17,1059.44q0,19.69,0,39.4c0,.37.21.89-.19,1.07-.21.09-.63-.24-.94-.41-2.75-1.61-5.53-3.19-8.25-4.85-6.44-4-9.86-9.74-9.89-17.29q-.12-30.45,0-60.92c0-7.5,3.33-13.42,9.81-17.21q26.48-15.45,53.1-30.64a19.26,19.26,0,0,1,20.19,0q26.46,15.17,52.82,30.49a19.15,19.15,0,0,1,10,17.42q.11,30.36,0,60.71c0,7.51-3.4,13.28-9.79,17.23-2.78,1.72-5.62,3.32-8.44,5-1.07.63-1.08.63-1.08-.64v-77.39c0-.54,0-1.08,0-1.62A4.24,4.24,0,0,0,578,1016c-5.46,3-10.88,6.12-16.31,9.18q-15,8.46-30,16.94a1.64,1.64,0,0,1-1.85,0q-22.69-12.86-45.42-25.65a6,6,0,0,0-3-1.06,4.22,4.22,0,0,0-4.28,4c0,.57,0,1.14,0,1.72Z"/><path class="cls-1" d="M651.17,1059.44q0,19.69,0,39.4c0,.37.21.89-.19,1.07-.21.09-.63-.24-.94-.41-2.75-1.61-5.53-3.19-8.25-4.85-6.44-4-9.86-9.74-9.89-17.29q-.12-30.45,0-60.92c0-7.5,3.33-13.42,9.81-17.21q26.47-15.45,53.1-30.64a19.26,19.26,0,0,1,20.19,0q26.46,15.17,52.82,30.49a19.15,19.15,0,0,1,10,17.42q.11,30.36,0,60.71c0,7.51-3.4,13.28-9.79,17.23-2.78,1.72-5.62,3.32-8.44,5-1.07.63-1.08.63-1.08-.64v-77.39c0-.54,0-1.08,0-1.62A4.24,4.24,0,0,0,752,1016c-5.46,3-10.88,6.12-16.31,9.18q-15,8.46-30,16.94a1.64,1.64,0,0,1-1.85,0q-22.7-12.86-45.42-25.65a6,6,0,0,0-3-1.06,4.22,4.22,0,0,0-4.28,4c0,.57,0,1.14,0,1.72Z"/><path class="cls-1" d="M825.17,1059.44q0,19.69,0,39.4c0,.37.21.89-.19,1.07-.21.09-.63-.24-.94-.41-2.75-1.61-5.53-3.19-8.25-4.85-6.44-4-9.86-9.74-9.89-17.29q-.12-30.45,0-60.92c0-7.5,3.33-13.42,9.81-17.21q26.47-15.45,53.1-30.64a19.26,19.26,0,0,1,20.19,0q26.46,15.17,52.82,30.49a19.15,19.15,0,0,1,10,17.42q.11,30.36,0,60.71c0,7.51-3.4,13.28-9.79,17.23-2.78,1.72-5.62,3.32-8.44,5-1.07.63-1.08.63-1.08-.64v-77.39c0-.54,0-1.08,0-1.62A4.24,4.24,0,0,0,926,1016c-5.46,3-10.88,6.12-16.31,9.18q-15,8.46-30,16.94a1.64,1.64,0,0,1-1.85,0q-22.7-12.86-45.42-25.65a6,6,0,0,0-3-1.06,4.22,4.22,0,0,0-4.28,4c0,.57,0,1.14,0,1.72Z"/><path class="cls-1" d="M999.17,1059.44q0,19.69,0,39.4c0,.37.21.89-.19,1.07-.21.09-.63-.24-.94-.41-2.75-1.61-5.53-3.19-8.25-4.85-6.44-4-9.86-9.74-9.89-17.29q-.12-30.45,0-60.92c0-7.5,3.33-13.42,9.81-17.21q26.47-15.45,53.1-30.64a19.26,19.26,0,0,1,20.19,0q26.46,15.17,52.82,30.49a19.15,19.15,0,0,1,10,17.42q.11,30.36,0,60.71c0,7.51-3.4,13.28-9.79,17.23-2.78,1.72-5.62,3.32-8.44,5-1.07.63-1.08.63-1.08-.64v-77.39c0-.54,0-1.08,0-1.62A4.24,4.24,0,0,0,1100,1016c-5.46,3-10.88,6.12-16.31,9.18q-15,8.46-30,16.94a1.64,1.64,0,0,1-1.85,0q-22.7-12.86-45.42-25.65a6,6,0,0,0-3-1.06,4.22,4.22,0,0,0-4.28,4c0,.57,0,1.14,0,1.72Z"/><path class="cls-1" d="M1173.17,1059.44q0,19.69,0,39.4c0,.37.21.89-.19,1.07-.21.09-.63-.24-.94-.41-2.75-1.61-5.53-3.19-8.25-4.85-6.44-4-9.86-9.74-9.89-17.29q-.12-30.45,0-60.92c0-7.5,3.33-13.42,9.81-17.21q26.47-15.45,53.1-30.64a19.26,19.26,0,0,1,20.19,0q26.46,15.17,52.82,30.49a19.15,19.15,0,0,1,10,17.42q.11,30.36,0,60.71c0,7.51-3.4,13.28-9.79,17.23-2.78,1.72-5.62,3.32-8.44,5-1.07.63-1.08.63-1.08-.64v-77.39c0-.54,0-1.08,0-1.62A4.24,4.24,0,0,0,1274,1016c-5.46,3-10.88,6.12-16.31,9.18q-15,8.46-30,16.94a1.64,1.64,0,0,1-1.85,0q-22.7-12.86-45.42-25.65a6,6,0,0,0-3-1.06,4.22,4.22,0,0,0-4.28,4c0,.57,0,1.14,0,1.72Z"/><path class="cls-1" d="M1347.17,1059.44q0,19.69,0,39.4c0,.37.21.89-.19,1.07-.21.09-.63-.24-.94-.41-2.75-1.61-5.53-3.19-8.25-4.85-6.44-4-9.86-9.74-9.89-17.29q-.12-30.45,0-60.92c0-7.5,3.33-13.42,9.81-17.21q26.47-15.45,53.1-30.64a19.26,19.26,0,0,1,20.19,0q26.46,15.17,52.82,30.49a19.15,19.15,0,0,1,10,17.42q.11,30.36,0,60.71c0,7.51-3.4,13.28-9.79,17.23-2.78,1.72-5.62,3.32-8.44,5-1.07.63-1.08.63-1.08-.64v-77.39c0-.54,0-1.08,0-1.62A4.24,4.24,0,0,0,1448,1016c-5.46,3-10.88,6.12-16.31,9.18q-15,8.46-30,16.94a1.64,1.64,0,0,1-1.85,0q-22.7-12.86-45.42-25.65a6,6,0,0,0-3-1.06,4.22,4.22,0,0,0-4.28,4c0,.57,0,1.14,0,1.72Z"/><path class="cls-1" d="M1521.17,1059.44q0,19.69,0,39.4c0,.37.21.89-.19,1.07-.21.09-.63-.24-.94-.41-2.75-1.61-5.53-3.19-8.25-4.85-6.44-4-9.86-9.74-9.89-17.29q-.12-30.45,0-60.92c0-7.5,3.33-13.42,9.81-17.21q26.47-15.45,53.1-30.64a19.26,19.26,0,0,1,20.19,0q26.46,15.17,52.82,30.49a19.15,19.15,0,0,1,10,17.42q.11,30.36,0,60.71c0,7.51-3.4,13.28-9.79,17.23-2.78,1.72-5.62,3.32-8.44,5-1.07.63-1.08.63-1.08-.64v-77.39c0-.54,0-1.08,0-1.62A4.24,4.24,0,0,0,1622,1016c-5.46,3-10.88,6.12-16.31,9.18q-15,8.46-30,16.94a1.64,1.64,0,0,1-1.85,0q-22.7-12.86-45.42-25.65a6,6,0,0,0-3-1.06,4.22,4.22,0,0,0-4.28,4c0,.57,0,1.14,0,1.72Z"/><path class="cls-1" d="M1695.17,1059.44q0,19.69,0,39.4c0,.37.21.89-.19,1.07-.21.09-.63-.24-.94-.41-2.75-1.61-5.53-3.19-8.25-4.85-6.44-4-9.86-9.74-9.89-17.29q-.12-30.45,0-60.92c0-7.5,3.33-13.42,9.81-17.21q26.47-15.45,53.1-30.64a19.26,19.26,0,0,1,20.19,0q26.46,15.17,52.82,30.49a19.15,19.15,0,0,1,10,17.42q.11,30.36,0,60.71c0,7.51-3.4,13.28-9.79,17.23-2.78,1.72-5.62,3.32-8.44,5-1.07.63-1.08.63-1.08-.64v-77.39c0-.54,0-1.08,0-1.62A4.24,4.24,0,0,0,1796,1016c-5.46,3-10.88,6.12-16.31,9.18q-15,8.46-30,16.94a1.64,1.64,0,0,1-1.85,0q-22.7-12.86-45.42-25.65a6,6,0,0,0-3-1.06,4.22,4.22,0,0,0-4.28,4c0,.57,0,1.14,0,1.72Z"/><path class="cls-1" d="M1869.17,1059.44q0,19.69,0,39.4c0,.37.21.89-.19,1.07-.21.09-.63-.24-.94-.41-2.75-1.61-5.53-3.19-8.25-4.85-6.44-4-9.86-9.74-9.89-17.29q-.12-30.45,0-60.92c0-7.5,3.33-13.42,9.81-17.21q26.47-15.45,53.1-30.64a19.26,19.26,0,0,1,20.19,0q26.46,15.17,52.82,30.49a19.15,19.15,0,0,1,10,17.42q.11,30.36,0,60.71c0,7.51-3.4,13.28-9.79,17.23-2.78,1.72-5.62,3.32-8.44,5-1.07.63-1.08.63-1.08-.64v-77.39c0-.54,0-1.08,0-1.62A4.24,4.24,0,0,0,1970,1016c-5.46,3-10.88,6.12-16.31,9.18q-15,8.46-30,16.94a1.64,1.64,0,0,1-1.85,0q-22.7-12.86-45.42-25.65a6,6,0,0,0-3-1.06,4.22,4.22,0,0,0-4.28,4c0,.57,0,1.14,0,1.72Z"/></svg>